<svg width="60" height="61" viewBox="0 0 60 61" fill="none" xmlns="http://www.w3.org/2000/svg">
<circle cx="30" cy="30.5" r="30" fill="#34384C"/>
<g clip-path="url(#clip0_3_3685)">
<path d="M49.6144 36.2642C46.8174 47.4849 35.449 54.3058 24.2444 51.5087C13.0234 48.7117 6.20246 37.3438 8.99962 26.1393C11.7966 14.9186 23.1485 8.09773 34.3695 10.8949C45.5741 13.6755 52.4116 25.0434 49.6144 36.2642Z" fill="url(#paint0_linear_3_3685)"/>
<path d="M39.2735 28.5928C39.6824 25.8124 37.5726 24.3078 34.6615 23.3102L35.61 19.5322L33.3204 18.9598L32.4045 22.6396C31.7994 22.4924 31.1779 22.3452 30.5564 22.2144L31.4723 18.5182L29.1826 17.9458L28.2504 21.7074C27.7434 21.5929 27.2528 21.4784 26.7785 21.3639V21.3476L23.6056 20.5626L23.0005 23.0158C23.0005 23.0158 24.7014 23.4083 24.6687 23.4246C25.6009 23.6536 25.7645 24.2751 25.7318 24.7657L24.6523 29.067C24.7178 29.0834 24.7995 29.0998 24.8977 29.1488C24.8159 29.1325 24.7341 29.1161 24.6523 29.0834L23.1477 35.102C23.0332 35.38 22.7388 35.8052 22.101 35.6417C22.1174 35.6744 20.4328 35.2328 20.4328 35.2328L19.288 37.8659L22.2809 38.6182C22.837 38.7654 23.3767 38.8963 23.9164 39.0435L22.9678 42.8541L25.2575 43.4265L26.206 39.6486C26.8275 39.8121 27.449 39.9757 28.0378 40.1229L27.1056 43.8845L29.3952 44.4569L30.3438 40.6462C34.269 41.3822 37.2128 41.0878 38.4394 37.5388C39.4371 34.6931 38.3904 33.0413 36.3297 31.9618C37.8506 31.6184 38.9791 30.6208 39.2735 28.5928ZM34.0236 35.9524C33.3204 38.7981 28.5121 37.2608 26.9584 36.8683L28.2177 31.8146C29.7714 32.2072 34.7759 32.9758 34.0236 35.9524ZM34.7432 28.5437C34.089 31.1441 30.0985 29.8194 28.8065 29.4923L29.9513 24.9129C31.2433 25.24 35.4138 25.8452 34.7432 28.5437Z" fill="white"/>
</g>
<defs>
<linearGradient id="paint0_linear_3_3685" x1="29.2952" y1="10.2577" x2="29.2952" y2="52.1317" gradientUnits="userSpaceOnUse">
<stop stop-color="#F9AA4B"/>
<stop offset="1" stop-color="#F7931A"/>
</linearGradient>
<clipPath id="clip0_3_3685">
<rect width="41.8682" height="41.8682" fill="white" transform="translate(8.3721 10.2675)"/>
</clipPath>
</defs>
</svg>
