<svg width="178" height="48" viewBox="0 0 178 48" fill="none" xmlns="http://www.w3.org/2000/svg">
<path d="M5.34199 39.1747L0.988892 35.7728V47C0.988892 47.5523 1.43661 48 1.98889 48H176.011C176.563 48 177.011 47.5523 177.011 47V7.21122L170.076 12.3706C169.656 12.6826 169.067 12.6189 168.724 12.2245L162.174 4.69337C161.869 4.34306 161.363 4.24855 160.953 4.46516L159.395 5.28674C158.987 5.50189 158.485 5.41023 158.179 5.06485L155.11 1.59565C154.794 1.23771 154.268 1.15386 153.856 1.39551L151.215 2.94308C151.088 3.01796 150.945 3.06353 150.797 3.0765L139.818 4.04174C139.444 4.07468 139.119 4.31494 138.978 4.66363L133.503 18.2287C133.187 19.0124 132.101 19.0747 131.698 18.3323L126.497 8.77196C126.322 8.45015 125.985 8.24982 125.618 8.24982H120.494C120.036 8.24982 119.637 8.56083 119.524 9.00476L117.543 16.8423C117.431 17.2862 117.032 17.5973 116.574 17.5973H113.406C113.282 17.5973 113.158 17.574 113.042 17.5287L108.707 15.8348C108.245 15.6541 107.72 15.8402 107.474 16.2719L102.011 25.8771C101.698 26.428 100.958 26.5522 100.482 26.1338L98.74 24.6024C98.2782 24.1964 97.5628 24.2994 97.2344 24.8192L95.7151 27.2234C95.3321 27.8296 94.4544 27.8475 94.0469 27.2575L85.8498 15.3877C85.4123 14.7542 84.453 14.832 84.1233 15.5277L82.2382 19.5052C82.0454 19.9119 81.6047 20.1397 81.1614 20.0618L76.7321 19.283C76.2999 19.207 75.8687 19.4216 75.6687 19.8122L70.9469 29.0373C70.7869 29.3499 70.4746 29.5557 70.1242 29.5794L63.4831 30.0285C63.1837 30.0488 62.9093 30.2023 62.7355 30.4468L58.1378 36.9143C57.685 37.5511 56.7095 37.4459 56.4029 36.7272L54.124 31.3843C53.8504 30.7431 53.0212 30.5714 52.5156 31.0515L39.7543 43.1682C39.2724 43.6258 38.4863 43.4947 38.1791 42.9053L33.1116 33.185C32.7522 32.4957 31.7781 32.4621 31.3721 33.125L28.3516 38.0567C28.228 38.2585 28.0367 38.41 27.8119 38.4841L24.3072 39.6396C23.8138 39.8022 23.2781 39.56 23.0742 39.0822L20.1498 32.2261C19.9926 31.8575 19.6306 31.6184 19.23 31.6184H16.8432C16.5303 31.6184 16.2355 31.4719 16.0464 31.2226L13.7739 28.2258C13.3263 27.6355 12.4145 27.7199 12.0829 28.3825L6.852 38.8343C6.56922 39.3993 5.83983 39.5637 5.34199 39.1747Z" fill="url(#paint0_linear_3_7788)"/>
<path d="M0.988892 35.7728L5.34199 39.1747C5.83983 39.5637 6.56922 39.3993 6.852 38.8343L12.0829 28.3825C12.4145 27.7199 13.3263 27.6355 13.7739 28.2258L16.0464 31.2226C16.2355 31.4719 16.5303 31.6184 16.8432 31.6184H19.23C19.6306 31.6184 19.9926 31.8575 20.1498 32.2261L23.0742 39.0822C23.2781 39.56 23.8138 39.8022 24.3072 39.6396L27.8119 38.4841C28.0367 38.41 28.228 38.2585 28.3516 38.0567L31.3721 33.125C31.7781 32.4621 32.7522 32.4957 33.1116 33.185L38.1791 42.9053C38.4863 43.4947 39.2724 43.6258 39.7543 43.1682L52.5156 31.0515C53.0212 30.5714 53.8504 30.7431 54.124 31.3843L56.4029 36.7272C56.7095 37.4459 57.685 37.5511 58.1378 36.9143L62.7355 30.4468C62.9093 30.2023 63.1837 30.0488 63.4831 30.0285L70.1242 29.5794C70.4746 29.5557 70.7869 29.3499 70.9469 29.0373L75.6687 19.8122C75.8687 19.4216 76.2999 19.207 76.7321 19.283L81.1614 20.0618C81.6047 20.1398 82.0454 19.9119 82.2382 19.5052L84.1233 15.5277C84.453 14.832 85.4123 14.7542 85.8498 15.3877L94.0469 27.2575C94.4544 27.8475 95.3321 27.8296 95.7151 27.2234L97.2344 24.8192C97.5628 24.2994 98.2782 24.1964 98.74 24.6024L100.482 26.1338C100.958 26.5522 101.698 26.428 102.011 25.8771L107.474 16.2719C107.72 15.8402 108.245 15.6541 108.707 15.8348L113.042 17.5287C113.158 17.574 113.282 17.5973 113.406 17.5973H116.574C117.032 17.5973 117.431 17.2862 117.543 16.8423L119.524 9.00477C119.637 8.56083 120.036 8.24982 120.494 8.24982H125.618C125.985 8.24982 126.322 8.45015 126.497 8.77196L131.698 18.3323C132.101 19.0747 133.187 19.0124 133.503 18.2287L138.978 4.66363C139.119 4.31494 139.444 4.07468 139.818 4.04175L150.797 3.0765C150.945 3.06353 151.088 3.01796 151.215 2.94308L153.856 1.39551C154.268 1.15386 154.794 1.23771 155.11 1.59565L158.179 5.06485C158.485 5.41024 158.987 5.50189 159.395 5.28674L160.953 4.46516C161.363 4.24855 161.869 4.34306 162.174 4.69337L168.724 12.2245C169.067 12.6189 169.656 12.6826 170.076 12.3706L177.011 7.21122" stroke="#42D559" stroke-linecap="round"/>
<defs>
<linearGradient id="paint0_linear_3_7788" x1="89" y1="0.979599" x2="89" y2="48" gradientUnits="userSpaceOnUse">
<stop offset="0.260417" stop-color="#42D559" stop-opacity="0.4"/>
<stop offset="1" stop-opacity="0"/>
</linearGradient>
</defs>
</svg>
