<svg width="57" height="58" viewBox="0 0 57 58" fill="none" xmlns="http://www.w3.org/2000/svg">
<circle cx="28.2538" cy="28.754" r="21.5" transform="rotate(-23.3151 28.2538 28.754)" fill="#34384C"/>
<g clip-path="url(#clip0_3_3663)">
<circle cx="27.9962" cy="29.4125" r="15.0028" transform="rotate(-23.3151 27.9962 29.4125)" fill="white"/>
<path fill-rule="evenodd" clip-rule="evenodd" d="M33.9341 43.1902C26.3245 46.4698 17.4981 42.96 14.2185 35.3504C10.9389 27.7409 14.4487 18.9144 22.0583 15.6349C29.6679 12.3553 38.4943 15.865 41.7739 23.4746C45.0534 31.0842 41.5437 39.9106 33.9341 43.1902ZM34.7639 29.7162C33.8275 27.5436 31.9416 26.9014 28.4371 27.5051L26.7894 23.6818C27.8579 23.4602 28.9796 23.4781 30.1845 23.746L30.5397 21.3507C29.0232 21.0032 27.4421 21.0594 25.954 21.5137L25.4337 20.3064L23.6168 21.0895L24.1196 22.2563C21.5956 23.583 20.4625 25.8367 21.3989 28.0093C22.3786 30.2826 24.2755 30.7772 27.6542 30.2277L29.3539 34.1716C27.9091 34.5553 26.5218 34.4375 24.9319 34.025L24.3845 36.4317C26.2896 36.9164 28.2911 36.8709 30.1722 36.3L31.0391 38.3116L32.8561 37.5285L31.9977 35.5368C34.5545 34.1724 35.7176 31.9292 34.7639 29.7162ZM26.6042 27.7937C24.7972 28.0242 24.1669 27.6515 23.8025 26.8059C23.4213 25.9216 23.8066 24.9203 25.079 24.2525L26.6042 27.7937ZM32.3599 30.9187C32.7763 31.8849 32.3107 32.8728 31.0383 33.5406L29.4688 29.899C31.2977 29.6601 31.9698 30.0137 32.3602 30.9196L32.3599 30.9187Z" fill="#1E68F6"/>
</g>
<defs>
<clipPath id="clip0_3_3663">
<rect width="30.0056" height="30.0056" fill="white" transform="translate(8.28058 21.5728) rotate(-23.3151)"/>
</clipPath>
</defs>
</svg>
