<svg width="64" height="64" viewBox="0 0 64 64" fill="none" xmlns="http://www.w3.org/2000/svg">
<path fill-rule="evenodd" clip-rule="evenodd" d="M55.4666 17.0667C56.3502 18.2449 56.1115 19.9163 54.9332 20.8L38.3999 33.2L38.3999 33.2C34.6072 36.0444 29.3926 36.0444 25.5999 33.2L25.5999 33.2L9.06659 20.8001C7.88838 19.9165 7.64959 18.245 8.53324 17.0668C9.41689 15.8886 11.0884 15.6498 12.2666 16.5335L28.7999 28.9333C28.7999 28.9333 28.7999 28.9333 28.7999 28.9333C30.6963 30.3556 33.3035 30.3556 35.1999 28.9333C35.1999 28.9333 35.1999 28.9333 35.1999 28.9333L51.7332 16.5333C52.9114 15.6497 54.5829 15.8885 55.4666 17.0667Z" fill="white"/>
<path fill-rule="evenodd" clip-rule="evenodd" d="M13.3333 16C11.8605 16 10.6666 17.1939 10.6666 18.6667V45.3333C10.6666 46.8061 11.8605 48 13.3333 48H50.6666C52.1393 48 53.3332 46.8061 53.3332 45.3333V18.6667C53.3332 17.1939 52.1393 16 50.6666 16H13.3333ZM5.33325 18.6667C5.33325 14.2484 8.91497 10.6667 13.3333 10.6667H50.6666C55.0849 10.6667 58.6666 14.2484 58.6666 18.6667V45.3333C58.6666 49.7516 55.0849 53.3333 50.6666 53.3333H13.3333C8.91497 53.3333 5.33325 49.7516 5.33325 45.3333V18.6667Z" fill="white"/>
</svg>
