<svg width="109" height="109" viewBox="0 0 109 109" fill="none" xmlns="http://www.w3.org/2000/svg">
<circle cx="54.1884" cy="54.6883" r="41.2352" transform="rotate(-23.3151 54.1884 54.6883)" fill="#34384C"/>
<g clip-path="url(#clip0_3_3651)">
<circle cx="53.6942" cy="55.9515" r="28.7741" transform="rotate(-23.3151 53.6942 55.9515)" fill="#7F6EE9"/>
<path d="M45.7628 35.937L45.7709 35.9557C45.8301 36.0414 45.8786 36.154 45.9271 36.2666L51.7569 49.7933C51.7704 49.8764 51.7222 49.9194 51.6821 49.9812C51.369 50.3386 51.0666 50.6692 50.7453 51.0078C50.3064 51.4862 49.8568 51.9914 49.4178 52.4698L47.836 54.2193C47.397 54.6977 46.9581 55.1761 46.5379 55.6463C46.0294 56.2214 45.494 56.7858 44.9855 57.3609C44.5466 57.8393 44.1157 58.3364 43.658 58.8229C43.2967 59.2233 42.9273 59.605 42.5847 59.9973C42.5553 60.0323 42.5258 60.0672 42.4883 60.0834C42.4695 60.0915 42.4695 60.0915 42.4427 60.0808L42.5854 59.0182C42.8656 56.9843 43.1351 54.9773 43.4153 52.9434C43.7033 50.7727 44.0101 48.5938 44.298 46.4231C44.5676 44.4161 44.8559 42.4009 45.1254 40.3939C45.3183 38.9315 45.5299 37.4611 45.7227 35.9987C45.7253 35.9531 45.736 35.9263 45.7198 35.8888L45.7386 35.8807C45.7279 35.9075 45.7547 35.9182 45.7628 35.937Z" fill="#F3F3F3"/>
<path d="M65.5363 50.128L65.5631 50.1387L63.5087 52.9595L57.0485 61.8168C57.019 61.8517 56.9896 61.8867 56.9789 61.9135C56.9227 61.9378 56.8984 61.8815 56.8903 61.8627L56.8175 61.6939L51.8206 50.0996C51.7964 50.0433 51.764 49.9683 51.7585 49.9039C51.745 49.8208 51.8093 49.8153 51.8737 49.8098C52.1661 49.8172 52.4773 49.8166 52.7697 49.824C53.6469 49.8464 54.5241 49.8688 55.3932 49.8724C56.1524 49.8789 56.9009 49.9122 57.66 49.9187C58.4192 49.9252 59.1865 49.9505 59.9456 49.957C60.5948 49.9664 61.2708 49.9865 61.92 49.9959C62.5692 50.0053 63.2452 50.0254 63.8944 50.0348C64.4068 50.0364 64.9272 50.0568 65.4396 50.0585C65.4638 50.1148 65.4907 50.1254 65.5363 50.128Z" fill="#8A8DA7"/>
<path d="M61.9813 73.5727C61.9894 73.5915 61.9787 73.6183 61.9868 73.6371L61.968 73.6452C61.9518 73.6076 61.9062 73.605 61.8713 73.5756C60.0047 72.4447 58.13 71.295 56.2633 70.1642C54.3618 69.0038 52.4334 67.8328 50.5318 66.6725C48.692 65.5522 46.8254 64.4213 44.9856 63.3011C44.4994 62.999 44.0214 62.7156 43.5352 62.4135C43.5003 62.384 43.4735 62.3734 43.4117 62.3333C43.468 62.309 43.5217 62.3303 43.5485 62.341C45.5931 62.5944 47.6189 62.8558 49.6635 63.1092C52.0166 63.4075 54.351 63.714 56.7042 64.0123L57.9035 64.1628C57.9572 64.1841 57.9734 64.2216 57.9896 64.2592L61.8868 73.302C61.9273 73.3958 61.9677 73.4896 61.9813 73.5727Z" fill="#F3F3F3"/>
<path d="M42.4386 60.1275L42.4305 60.1088C42.9177 59.5874 43.378 59.0553 43.8651 58.5339C44.4807 57.8459 45.1044 57.1767 45.7199 56.4888C46.1883 55.9754 46.6674 55.4353 47.1358 54.922C47.829 54.1561 48.5115 53.417 49.2047 52.6511C49.6731 52.1378 50.1415 51.6245 50.6206 51.0843C50.9525 50.7188 51.3031 50.3452 51.635 49.9797C51.6644 49.9448 51.7126 49.9018 51.7152 49.8562C51.734 49.8481 51.7421 49.8669 51.7314 49.8937L56.8658 61.8069C56.89 61.8632 56.8955 61.9276 56.9492 61.9489C56.9359 62.0214 56.8742 61.9813 56.8473 61.9706C56.638 61.9496 56.4288 61.9285 56.2114 61.8887C51.6688 61.3105 47.0993 60.7216 42.5567 60.1434C42.5298 60.1327 42.4842 60.1301 42.4386 60.1275Z" fill="#C5C8D9"/>
<path d="M66.4688 52.3953L66.4876 52.3872C66.5038 52.4248 66.4824 52.4785 66.4798 52.5241C65.122 58.8709 63.7722 65.2365 62.4143 71.5834C62.2762 72.2436 62.1193 72.9118 61.9811 73.572C61.9543 73.5613 61.9462 73.5426 61.9381 73.5238L61.8896 73.4112L57.9681 64.3121L57.8953 64.1433C58.4811 63.3347 59.0563 62.5529 59.6421 61.7443C61.9052 58.6333 64.1763 55.5412 66.4206 52.4383C66.4475 52.449 66.4581 52.4222 66.4688 52.3953Z" fill="#C5C8D9"/>
<path d="M51.7503 49.8853L51.7341 49.8478L51.6856 49.7352L45.8155 36.1148C45.7912 36.0585 45.7563 36.029 45.7695 35.9566C52.3029 40.6377 58.8281 45.3 65.3427 49.9891C65.4045 50.0293 65.4931 50.08 65.5442 50.147C65.2411 50.1664 64.9406 50.1402 64.6482 50.1327C64.2915 50.1308 63.9078 50.1181 63.5511 50.1162C63.323 50.1032 63.0843 50.1171 62.8563 50.1042C62.4726 50.0916 62.0971 50.0977 61.7135 50.085C61.4935 50.0909 61.2655 50.0779 61.0375 50.065L59.5567 50.0358C59.3099 50.0309 59.0631 50.0261 58.7975 50.0293L57.7272 50.0234C57.5072 50.0292 57.2792 50.0163 57.0512 50.0033L55.5704 49.9741C55.3236 49.9693 55.0768 49.9644 54.8112 49.9676L53.7409 49.9618C53.4941 49.9569 53.266 49.944 53.0192 49.9391C52.59 49.9239 52.1608 49.9086 51.7209 49.9203C51.7691 49.8773 51.7503 49.8853 51.7503 49.8853Z" fill="#C5C8D9"/>
</g>
<defs>
<clipPath id="clip0_3_3651">
<rect width="57.5482" height="57.5482" fill="white" transform="translate(15.8813 40.9154) rotate(-23.3151)"/>
</clipPath>
</defs>
</svg>
