<svg width="40" height="41" viewBox="0 0 40 41" fill="none" xmlns="http://www.w3.org/2000/svg">
<g clip-path="url(#clip0_296_2829)">
<circle cx="20" cy="20.2427" r="20" fill="#2453CC"/>
<path d="M20.0002 14.3336V16.6063M20.0002 14.3336C20.0002 13.0784 21.0177 12.0609 22.2729 12.0609C23.5281 12.0609 24.5456 13.0784 24.5456 14.3336C24.5456 15.5888 23.5281 16.6063 22.2729 16.6063M20.0002 14.3336C20.0002 13.0784 18.9826 12.0609 17.7275 12.0609C16.4723 12.0609 15.4547 13.0784 15.4547 14.3336C15.4547 15.5888 16.4723 16.6063 17.7275 16.6063M20.0002 16.6063H22.2729M20.0002 16.6063H17.7275M20.0002 16.6063V22.0609M22.2729 16.6063H25.2731C26.2914 16.6063 26.7998 16.6063 27.1887 16.8045C27.5308 16.9788 27.8097 17.2567 27.984 17.5988C28.182 17.9874 28.182 18.4963 28.182 19.5126V22.0609M17.7275 16.6063H14.7276C13.7094 16.6063 13.1998 16.6063 12.8109 16.8045C12.4688 16.9788 12.1908 17.2567 12.0165 17.5988C11.8184 17.9878 11.8184 18.4973 11.8184 19.5156V22.0609M11.8184 22.0609V24.6065C11.8184 25.6248 11.8184 26.1336 12.0165 26.5226C12.1908 26.8647 12.4688 27.1431 12.8109 27.3174C13.1995 27.5154 13.7084 27.5154 14.7246 27.5154H20.0002M11.8184 22.0609H20.0002M20.0002 22.0609V27.5154M20.0002 22.0609H28.182M20.0002 27.5154H25.2757C26.292 27.5154 26.8002 27.5154 27.1887 27.3174C27.5308 27.1431 27.8097 26.8647 27.984 26.5226C28.182 26.134 28.182 25.6258 28.182 24.6096V22.0609" stroke="white" stroke-width="2" stroke-linecap="round" stroke-linejoin="round"/>
</g>
<defs>
<clipPath id="clip0_296_2829">
<rect width="40" height="40" fill="white" transform="translate(0 0.242676)"/>
</clipPath>
</defs>
</svg>
