<svg width="40" height="41" viewBox="0 0 40 41" fill="none" xmlns="http://www.w3.org/2000/svg">
<g clip-path="url(#clip0_509_194)">
<circle cx="20" cy="20.2427" r="20" fill="#2453CC"/>
<path d="M18.1814 23.879H13.6359V28.4245M21.8177 16.6063H26.3632V12.0609M13.2568 17.5185C13.7665 16.2569 14.62 15.1636 15.7201 14.3629C16.8202 13.5621 18.124 13.0859 19.4812 12.9886C20.8383 12.8913 22.1948 13.1767 23.3978 13.8123C24.6009 14.448 25.6007 15.4086 26.2851 16.5846M26.7428 22.9673C26.2331 24.2289 25.3797 25.3222 24.2796 26.1229C23.1795 26.9236 21.877 27.3993 20.5198 27.4966C19.1626 27.5939 17.8051 27.3085 16.602 26.6729C15.3989 26.0372 14.3985 25.0768 13.714 23.9008" stroke="white" stroke-width="2" stroke-linecap="round" stroke-linejoin="round"/>
</g>
<defs>
<clipPath id="clip0_509_194">
<rect width="40" height="40" fill="white" transform="translate(0 0.242676)"/>
</clipPath>
</defs>
</svg>
