<svg width="57" height="58" viewBox="0 0 57 58" fill="none" xmlns="http://www.w3.org/2000/svg">
<circle cx="28.2538" cy="28.754" r="21.5" transform="rotate(-23.3151 28.2538 28.754)" fill="#34384C"/>
<g clip-path="url(#clip0_3_3668)">
<circle cx="27.9961" cy="29.4125" r="15.0028" transform="rotate(-23.3151 27.9961 29.4125)" fill="#25292C"/>
<path d="M30.2141 18.9265L32.5373 17.9252L30.1939 25.7895C29.3447 28.6363 26.506 29.8597 23.8522 28.5226L16.5243 24.8265L18.8493 23.8245L24.415 26.6326C25.2247 27.0389 26.0998 27.0851 26.8512 26.7612C27.6026 26.4374 28.17 25.7695 28.4307 24.9019L30.2141 18.9265Z" fill="white"/>
<path d="M25.7474 39.9112L23.4227 40.9131L25.7821 32.9997C26.6313 30.1528 29.47 28.9294 32.1238 30.2666L39.4966 33.9856L37.1734 34.9868L31.561 32.1566C30.7513 31.7503 29.8762 31.7041 29.1248 32.028C28.3734 32.3518 27.806 33.0197 27.5454 33.8873L25.7474 39.9112Z" fill="white"/>
</g>
<defs>
<clipPath id="clip0_3_3668">
<rect width="30.0056" height="30.0056" fill="white" transform="translate(8.28055 21.5728) rotate(-23.3151)"/>
</clipPath>
</defs>
</svg>
