<svg width="43" height="44" viewBox="0 0 43 44" fill="none" xmlns="http://www.w3.org/2000/svg">
<circle cx="21.5" cy="22" r="21.5" fill="#34384C"/>
<g clip-path="url(#clip0_3_3676)">
<path d="M35.9788 22.4975C35.9788 30.7423 29.2955 37.4256 21.0507 37.4256C12.8062 37.4256 6.12253 30.7423 6.12253 22.4975C6.12253 14.2528 12.8062 7.56934 21.0507 7.56934C29.2955 7.56934 35.9788 14.2528 35.9788 22.4975Z" fill="#1BA27A"/>
<path d="M28.0575 15.0969H13.9221V18.5095H19.2835V23.5253H22.6961V18.5095H28.0575V15.0969Z" fill="white"/>
<path d="M21.0223 24.0594C16.5871 24.0594 12.9914 23.3575 12.9914 22.4915C12.9914 21.6257 16.587 20.9236 21.0223 20.9236C25.4574 20.9236 29.053 21.6257 29.053 22.4915C29.053 23.3575 25.4574 24.0594 21.0223 24.0594ZM30.0396 22.7529C30.0396 21.6363 26.0024 20.7312 21.0223 20.7312C16.0422 20.7312 12.0048 21.6363 12.0048 22.7529C12.0048 23.7362 15.1353 24.5555 19.2837 24.737V31.9375H22.696V24.7399C26.8763 24.564 30.0396 23.7413 30.0396 22.7529Z" fill="white"/>
</g>
<defs>
<clipPath id="clip0_3_3676">
<rect width="30.0056" height="30.0056" fill="white" transform="translate(6 7.5)"/>
</clipPath>
</defs>
</svg>
