<svg width="44" height="44" viewBox="0 0 44 44" fill="none" xmlns="http://www.w3.org/2000/svg">
<g clip-path="url(#clip0_169_38)">
<circle cx="22" cy="22" r="22" fill="#EB2121"/>
<path d="M35.6464 18.2414C34.364 17.0574 32.5902 15.2493 31.1454 13.967L31.0599 13.9072C30.9177 13.7929 30.7573 13.7034 30.5855 13.6421C27.1019 12.9924 10.8891 9.96189 10.5728 10.0004C10.4841 10.0128 10.3994 10.0449 10.3249 10.0944L10.2436 10.1585C10.1436 10.2601 10.0677 10.3828 10.0214 10.5176L10 10.5731V10.8766V10.9236C11.8252 16.0059 19.0318 32.6547 20.4509 36.5614C20.5364 36.8265 20.6988 37.3308 21.0023 37.3565H21.0707C21.2331 37.3565 21.9256 36.4418 21.9256 36.4418C21.9256 36.4418 34.3042 21.4301 35.5566 19.8315C35.7187 19.6346 35.8618 19.4227 35.984 19.1989C36.0152 19.0237 36.0005 18.8434 35.9414 18.6756C35.8822 18.5078 35.7805 18.3582 35.6464 18.2414ZM25.1014 19.9896L30.3846 15.6084L33.4835 18.4637L25.1014 19.9896ZM23.0497 19.7032L13.9538 12.2487L28.6706 14.9629L23.0497 19.7032ZM23.8704 21.6566L33.18 20.1563L22.5368 32.9795L23.8704 21.6566ZM12.7185 12.9924L22.2889 21.1138L20.904 32.9881L12.7185 12.9924Z" fill="white"/>
</g>
<defs>
<clipPath id="clip0_169_38">
<rect width="44" height="44" fill="white"/>
</clipPath>
</defs>
</svg>
