<svg width="40" height="41" viewBox="0 0 40 41" fill="none" xmlns="http://www.w3.org/2000/svg">
<g clip-path="url(#clip0_408_1246)">
<circle cx="20" cy="20.7427" r="20" fill="#2453CC"/>
<path d="M18.9175 30.4356C17.6571 30.3956 16.5085 30.2754 15.4717 30.0751C14.4349 29.8748 13.5303 29.6044 12.7578 29.2639V25.8991C13.5303 26.2596 14.4857 26.5901 15.6242 26.8905C16.7626 27.1909 17.8604 27.3612 18.9175 27.4012V22.2939C17.4334 21.7731 16.234 21.2524 15.3192 20.7316C14.4247 20.1908 13.764 19.58 13.3371 18.899C12.9306 18.198 12.7273 17.3668 12.7273 16.4054C12.7273 14.9032 13.2965 13.7215 14.4349 12.8602C15.5733 11.979 17.0675 11.4682 18.9175 11.328V8.92456H20.93V11.2679C22.0481 11.308 23.0849 11.4382 24.0404 11.6585C24.9959 11.8788 25.9107 12.1692 26.7848 12.5298L25.5956 15.5041C24.8434 15.2036 24.0607 14.9633 23.2476 14.783C22.4547 14.5827 21.6822 14.4525 20.93 14.3925V19.3797C22.1091 19.7602 23.1764 20.1808 24.1319 20.6415C25.0873 21.1022 25.8497 21.683 26.4189 22.384C26.9881 23.065 27.2727 23.9563 27.2727 25.0579C27.2727 26.4999 26.734 27.6917 25.6566 28.633C24.5994 29.5744 23.0239 30.1452 20.93 30.3455V33.47H18.9175V30.4356ZM18.9175 14.4525C17.3115 14.6328 16.5085 15.2537 16.5085 16.3152C16.5085 16.876 16.6914 17.3267 17.0574 17.6672C17.4233 18.0077 18.0433 18.3281 18.9175 18.6286V14.4525ZM20.93 27.2811C22.6377 27.0608 23.4915 26.3898 23.4915 25.2682C23.4915 24.7274 23.2882 24.2968 22.8816 23.9763C22.4954 23.6358 21.8449 23.3153 20.93 23.0149V27.2811Z" fill="white"/>
</g>
<defs>
<clipPath id="clip0_408_1246">
<rect width="40" height="40" fill="white" transform="translate(0 0.742676)"/>
</clipPath>
</defs>
</svg>
