<svg width="1439" height="1313" viewBox="0 0 1439 1313" fill="none" xmlns="http://www.w3.org/2000/svg">
<mask id="mask0_111_786" style="mask-type:alpha" maskUnits="userSpaceOnUse" x="0" y="90" width="1477" height="1218">
<path d="M373.686 1257.42C343.718 1248.51 313.748 1238.42 283.837 1227.19C115.568 1163.99 24.1396 1071.85 4.32649 945.515C-12.8413 836.044 26.0688 717.788 60.3977 613.451C83.3124 543.808 104.957 478.024 105.836 425.834C108.766 252.094 66.9136 200.751 41.9078 170.074C27.4275 152.31 17.863 140.576 27.048 115.896C36.0504 91.7089 128.457 84.9415 317.854 94.5966C399.768 98.7706 453.637 132.292 496.923 159.228C518.608 172.722 537.365 184.394 555.408 189.696L554.874 191.371L555.408 189.696C605.077 204.317 620.53 202.45 654.389 198.358C682.624 194.946 725.293 189.789 812.519 191.73C889.172 193.434 1000.5 222.143 1103.05 266.658C1161.4 291.986 1215.09 321.347 1262.63 353.929C1315.85 390.401 1360.08 430.132 1394.1 472.021C1457.13 549.621 1484.36 633.222 1475.05 720.503C1465.88 806.489 1437.07 888.675 1389.44 964.776C1342.13 1040.37 1278.67 1106.11 1200.83 1160.17C1087.51 1238.87 948.512 1288.15 798.852 1302.67C719.068 1310.41 636.087 1308.38 552.211 1296.61C493.277 1288.35 433.511 1275.22 373.686 1257.42ZM388.485 110.128C367.346 103.84 343.872 99.406 317.472 98.0609C231.334 93.6708 166.467 92.7186 119.164 95.1494C50.9316 98.6559 33.0508 108.953 30.0653 116.974C21.608 139.698 29.715 149.643 44.4307 167.696C69.7184 198.719 112.044 250.642 109.093 425.653C108.202 478.414 86.4702 544.463 63.4632 614.389C29.2669 718.32 -9.49166 836.118 7.53845 944.711C27.1557 1069.8 117.948 1161.12 285.106 1223.91C374.529 1257.5 464.613 1280.8 552.856 1293.17C636.497 1304.9 719.238 1306.93 798.783 1299.21C947.892 1284.74 1086.35 1235.67 1199.18 1157.31C1276.62 1103.53 1339.73 1038.15 1386.77 962.994C1434.09 887.394 1462.7 805.756 1471.81 720.351C1481.02 634.037 1454.03 551.285 1391.58 474.393C1357.74 432.729 1313.72 393.194 1260.74 356.884C1213.36 324.409 1159.83 295.137 1101.65 269.882C999.419 225.509 888.518 196.893 812.225 195.196C725.218 193.26 682.68 198.401 654.533 201.803C620.247 205.945 604.598 207.837 554.342 193.044C554.257 193.018 554.169 192.992 554.084 192.967C535.708 187.5 516.903 175.798 495.139 162.255C466.127 144.202 432.327 123.171 388.485 110.128Z" fill="url(#paint0_linear_111_786)"/>
</mask>
<g mask="url(#mask0_111_786)">
<path d="M373.935 1257.42C343.968 1248.49 313.998 1238.39 284.087 1227.14C115.822 1163.85 24.3757 1071.66 4.52462 945.29C-12.6761 835.79 26.1906 717.526 60.4813 613.184C83.3705 543.537 104.991 477.749 105.853 425.55C108.727 251.776 66.8634 200.404 41.8511 169.711C27.367 151.937 17.8 140.197 26.9758 115.515C35.9692 91.3274 128.361 84.5986 317.736 94.3375C399.64 98.5477 453.512 132.099 496.801 159.059C518.487 172.565 537.246 184.248 555.288 189.558L554.754 191.234L555.288 189.558C604.955 204.204 620.405 202.343 654.258 198.265C682.488 194.865 725.15 189.724 812.365 191.704C889.008 193.442 1000.33 222.204 1102.88 266.773C1161.23 292.131 1214.93 321.521 1262.47 354.13C1315.69 390.632 1359.93 430.39 1393.96 472.303C1457 549.945 1484.26 633.574 1474.98 720.869C1465.83 806.868 1437.06 889.058 1389.46 965.153C1342.18 1040.74 1278.75 1106.47 1200.93 1160.51C1087.66 1239.17 948.692 1288.4 799.057 1302.86C719.287 1310.57 636.316 1308.5 552.448 1296.7C493.519 1288.4 433.757 1275.24 373.935 1257.42ZM388.362 109.902C367.224 103.604 343.751 99.1592 317.355 97.8023C231.227 93.3741 166.369 92.3937 119.072 94.8045C50.8506 98.2822 32.9755 108.573 29.9931 116.595C21.5443 139.32 29.6533 149.27 44.3729 167.333C69.6671 198.373 112.003 250.325 109.109 425.37C108.236 478.14 86.528 544.193 63.5467 614.123C29.3884 718.06 -9.32689 835.865 7.7359 944.488C27.3908 1069.61 118.2 1160.99 285.356 1223.86C374.777 1257.49 464.856 1280.84 553.092 1293.25C636.725 1305.02 719.456 1307.09 798.987 1299.4C948.071 1284.99 1086.49 1235.97 1199.29 1157.64C1276.7 1103.88 1339.78 1038.52 1386.79 963.369C1434.08 887.775 1462.66 806.133 1471.74 720.715C1480.92 634.388 1453.9 551.608 1391.44 474.674C1357.59 432.986 1313.56 393.425 1260.58 357.084C1213.19 324.582 1159.66 295.282 1101.48 269.997C999.25 225.571 888.355 196.901 812.072 195.171C725.076 193.197 682.546 198.32 654.403 201.71C620.123 205.839 604.478 207.724 554.223 192.906C554.138 192.88 554.05 192.854 553.965 192.83C535.59 187.354 516.783 175.641 495.019 162.086C466.004 144.017 432.202 122.967 388.362 109.902Z" fill="url(#paint1_linear_111_786)"/>
</g>
<mask id="mask1_111_786" style="mask-type:alpha" maskUnits="userSpaceOnUse" x="68" y="128" width="1347" height="1119">
<path d="M408.25 1201.37C384.014 1194.16 359.773 1186.12 335.568 1177.24C183.06 1121.73 98.4598 1040.27 76.9357 928.211C58.2366 830.861 89.6879 724.525 117.437 630.707C136.766 565.356 155.023 503.628 153.551 454.199C150.865 296.54 110.963 246.478 87.1227 216.567C72.7145 198.491 63.1944 186.548 71.8115 162.487C76.4658 148.832 104.428 139.042 154.907 133.415C200.319 128.353 262.178 126.89 333.795 129.185C408.669 131.265 458.43 159.844 498.412 182.806C517.741 193.906 534.434 203.493 550.734 208.367L550.735 208.366C602.385 223.909 616.635 223.266 658.88 221.436C687.265 220.208 726.138 218.523 796.079 220.679C867.729 222.868 971.559 249.793 1067.05 290.946C1121.66 314.483 1171.83 341.686 1216.17 371.801C1265.91 405.589 1307.17 442.364 1338.8 481.1C1395.86 550.985 1421.02 626.212 1413.57 704.692C1405.91 783.618 1380.26 859.183 1337.33 929.29C1294.67 998.956 1237.16 1059.64 1166.41 1109.67C1064.18 1181.95 938.517 1227.7 803.012 1241.97C730.764 1249.58 655.532 1248.34 579.412 1238.28C522.974 1230.82 465.65 1218.45 408.25 1201.37ZM406.676 143.999C385.18 137.605 361.05 133.208 333.497 132.441C182.016 127.59 82.8427 139.463 74.6718 163.432C66.6887 185.723 75.2801 196.501 89.5143 214.358C113.598 244.574 153.907 295.147 156.611 453.89C158.099 503.859 139.763 565.852 120.352 631.485C92.7171 724.917 61.3954 830.815 79.9364 927.345C101.245 1038.28 185.245 1119.01 336.74 1174.15C418.089 1203.97 499.933 1224.46 579.998 1235.04C655.9 1245.07 730.903 1246.31 802.926 1238.72C937.912 1224.51 1063.06 1178.95 1164.85 1106.99C1235.22 1057.24 1292.4 996.897 1334.81 927.643C1377.45 858.008 1402.93 782.96 1410.53 704.583C1417.89 627.004 1392.96 552.563 1336.43 483.332C1294.65 432.164 1213.78 357.777 1065.74 293.977C970.546 252.954 867.102 226.116 795.781 223.934C725.944 221.783 687.132 223.465 658.793 224.692C617.346 226.486 601.813 227.137 549.72 211.508C533.117 206.543 516.296 196.884 496.819 185.698C471.857 171.363 443.047 154.82 406.676 143.999Z" fill="url(#paint2_linear_111_786)"/>
</mask>
<g mask="url(#mask1_111_786)">
<path d="M408.479 1201.37C384.244 1194.15 360.004 1186.09 335.799 1177.2C183.294 1121.61 98.6795 1040.1 77.1222 928.01C58.3942 830.633 89.8069 724.289 117.522 630.464C136.827 565.109 155.061 503.377 153.574 453.937C150.837 296.245 110.925 246.157 87.0783 216.229C72.6662 198.143 63.1435 186.193 71.7517 162.131C76.4009 148.476 104.356 138.696 154.826 133.09C200.231 128.047 262.08 126.61 333.689 128.936C408.553 131.05 458.316 159.656 498.3 182.64C517.63 193.75 534.324 203.346 550.623 208.228L550.625 208.228C602.272 223.795 616.52 223.159 658.759 221.347C687.139 220.131 726.006 218.462 795.939 220.649C867.579 222.869 971.404 249.844 1066.89 291.047C1121.51 314.613 1171.68 341.842 1216.02 371.983C1265.77 405.799 1307.03 442.599 1338.67 481.357C1395.74 551.28 1420.92 626.532 1413.51 705.025C1405.87 783.964 1380.25 859.532 1337.34 929.635C1294.71 999.296 1237.23 1059.97 1166.51 1109.97C1064.31 1182.23 938.682 1227.93 803.2 1242.15C730.965 1249.72 655.743 1248.45 579.629 1238.35C523.197 1230.87 465.876 1218.47 408.479 1201.37ZM406.564 143.785C385.069 137.38 360.941 132.972 333.391 132.194C181.93 127.275 82.7739 139.108 74.6119 163.078C66.6371 185.37 75.2307 196.154 89.4688 214.021C113.559 244.253 153.879 294.853 156.634 453.63C158.138 503.609 139.824 565.606 120.436 631.244C92.8358 724.682 61.5526 830.588 80.1222 927.145C101.464 1038.11 185.478 1118.89 336.97 1174.11C418.318 1203.97 500.157 1224.5 580.214 1235.12C656.109 1245.18 731.102 1246.46 803.113 1238.9C938.076 1224.74 1063.19 1179.23 1164.95 1107.29C1235.28 1057.56 1292.44 997.235 1334.82 927.986C1377.43 858.355 1402.88 783.304 1410.47 704.915C1417.8 627.324 1392.84 552.857 1336.3 483.587C1294.51 432.392 1213.62 357.955 1065.58 294.078C970.392 253.006 866.954 226.117 795.641 223.905C725.814 221.723 687.007 223.388 658.672 224.603C617.232 226.38 601.701 227.024 549.61 211.37C533.008 206.396 516.187 196.728 496.709 185.532C471.745 171.183 442.934 154.624 406.564 143.785Z" fill="url(#paint3_linear_111_786)"/>
</g>
<mask id="mask2_111_786" style="mask-type:alpha" maskUnits="userSpaceOnUse" x="113" y="163" width="1240" height="1024">
<path d="M443.581 1145.67C424.868 1140.11 406.119 1133.98 387.294 1127.29C250.445 1079.4 172.713 1008.51 149.661 910.592C129.573 825.264 153.693 730.832 174.975 647.516C190.523 586.649 205.207 529.158 201.255 482.556C193.128 341.055 155.161 292.385 132.476 263.306C118.039 244.798 108.502 232.573 116.557 209.062C126.617 176.682 244.476 162.867 349.716 163.753C417.941 163.672 463.784 187.435 500.62 206.529C517.325 215.19 531.752 222.668 546.046 227.019L546.049 227.019C604.626 245.02 616.349 245.259 681.414 246.659C705.914 247.187 736.405 247.842 779.631 249.612C823.834 251.398 881.971 263.115 943.33 282.606C1012.38 304.538 1079.42 334.409 1137.2 368.99C1205.59 409.916 1258.85 455.821 1295.51 505.429C1338.21 563.218 1357.25 624.934 1352.1 688.864C1345.96 760.741 1323.46 829.696 1285.23 893.825C1247.22 957.58 1195.67 1013.23 1132 1059.22C1040.84 1125.07 928.51 1167.29 807.158 1181.29C690.403 1194.77 568.333 1182.78 443.581 1145.67ZM426.149 177.773C404.043 171.198 378.858 166.767 349.508 166.804C224.169 165.748 127.339 183.866 119.256 209.882C111.748 231.799 120.399 242.89 134.732 261.262C157.623 290.606 195.934 339.717 204.112 482.117C208.107 529.223 193.355 586.977 177.736 648.123C156.548 731.073 132.532 825.09 152.442 909.66C175.258 1006.58 252.43 1076.82 388.363 1124.39C532.333 1175.59 673.188 1193.72 807.05 1178.26C927.915 1164.31 1039.77 1122.29 1130.51 1056.73C1193.82 1011 1245.07 955.687 1282.85 892.322C1320.81 828.638 1343.16 760.167 1349.25 688.808C1354.34 625.655 1335.48 564.623 1293.21 507.416C1256.77 458.093 1203.76 412.424 1135.67 371.675C1078.06 337.194 1011.2 307.407 942.341 285.533C881.192 266.119 823.304 254.438 779.324 252.659C736.124 250.89 705.647 250.235 681.159 249.707C615.784 248.299 604.013 248.04 545.084 229.954C530.565 225.534 516.043 218.005 499.227 209.289C478.525 198.56 454.953 186.342 426.149 177.773Z" fill="url(#paint4_linear_111_786)"/>
</mask>
<g mask="url(#mask2_111_786)">
<path d="M443.791 1145.67C425.078 1140.1 406.33 1133.96 387.505 1127.26C250.66 1079.3 172.916 1008.37 149.835 910.416C129.723 825.062 153.81 730.622 175.061 647.299C190.587 586.427 205.251 528.93 201.284 482.318C193.113 340.785 155.135 292.089 132.444 262.995C118.003 244.477 108.464 232.245 116.509 208.733C126.558 176.351 244.396 162.584 349.622 163.517C417.837 163.465 463.681 187.252 500.518 206.367C517.223 215.036 531.651 222.522 545.944 226.88L545.948 226.88C604.522 244.91 616.244 245.155 681.3 246.583C705.797 247.121 736.284 247.79 779.505 249.579C823.702 251.385 881.834 263.129 943.191 282.65C1012.24 304.616 1079.28 334.522 1137.06 369.136C1205.45 410.099 1258.72 456.036 1295.39 505.67C1338.1 563.489 1357.16 625.226 1352.04 689.166C1345.92 761.054 1323.45 830.013 1285.24 894.138C1247.26 957.888 1195.73 1013.52 1132.09 1059.5C1040.96 1125.33 928.659 1167.5 807.329 1181.46C690.594 1194.89 568.537 1182.84 443.791 1145.67ZM426.048 177.573C403.944 170.986 378.76 166.544 349.415 166.568C224.093 165.458 127.282 183.537 119.209 209.554C111.709 231.472 120.362 242.57 134.699 260.952C157.596 290.311 195.918 339.448 204.141 481.88C208.15 528.997 193.419 586.756 177.822 647.907C156.663 730.865 132.682 824.89 152.617 909.485C175.46 1006.43 252.644 1076.72 388.574 1124.35C532.54 1175.64 673.381 1193.82 807.22 1178.43C928.063 1164.52 1039.89 1122.54 1130.6 1057.01C1193.88 1011.3 1245.11 955.994 1282.86 892.633C1320.8 828.954 1343.12 760.479 1349.19 689.109C1354.25 625.946 1335.38 564.893 1293.1 507.657C1256.64 458.308 1203.63 412.606 1135.53 371.82C1077.92 337.308 1011.06 307.485 942.203 285.578C881.057 266.134 823.173 254.424 779.198 252.627C736.004 250.839 705.531 250.17 681.046 249.632C615.68 248.195 603.91 247.93 544.983 229.815C530.465 225.388 515.942 217.852 499.127 209.127C478.423 198.386 454.851 186.156 426.048 177.573Z" fill="url(#paint5_linear_111_786)"/>
</g>
<mask id="mask3_111_786" style="mask-type:alpha" maskUnits="userSpaceOnUse" x="158" y="198" width="1134" height="929">
<path d="M477.842 1089.75C464.931 1085.91 451.991 1081.77 439.012 1077.33C317.689 1036.97 246.866 976.542 222.507 892.582C201.204 819.15 217.427 740.148 233.116 663.747C244.642 607.615 255.529 554.595 248.944 510.908C235.622 385.683 200.967 340.38 178.035 310.402C162.903 290.621 153.771 278.683 161.275 255.622C169.661 225.822 259.422 200.617 365.607 198.3C427.917 195.896 470.22 215.082 504.213 230.497C517.216 236.394 529.499 241.966 541.335 245.643L541.339 245.645L547.324 247.531C616.151 269.236 621.77 271.004 763.169 278.526C802.906 280.605 857.245 291.72 912.241 308.984C975.496 328.856 1036.91 355.673 1089.85 386.535C1152.74 423.206 1201.94 464.288 1236.07 508.638C1275.88 560.372 1294.24 615.68 1290.63 673.022C1286.02 737.862 1266.68 800.224 1233.15 858.391C1199.8 916.255 1154.19 966.878 1097.6 1008.85C1017.49 1068.27 918.487 1106.93 811.283 1120.66C704.663 1134.31 592.669 1123.91 477.842 1089.75ZM447.89 211.408C424.735 204.519 397.822 199.893 365.499 201.14C262.206 203.393 171.738 228.148 163.809 256.322C156.769 277.953 165.569 289.458 180.149 308.518C201.857 336.895 238.19 384.391 251.586 510.332C258.243 554.482 247.301 607.76 235.72 664.167C220.105 740.207 203.959 818.836 225.063 891.574C249.167 974.658 319.467 1034.53 439.979 1074.62C568.045 1118.44 692.923 1132.98 811.154 1117.84C917.903 1104.17 1016.47 1065.69 1096.19 1006.56C1152.44 964.833 1197.77 914.526 1230.91 857.032C1264.2 799.283 1283.4 737.372 1287.97 673.018C1291.53 616.403 1273.36 561.73 1233.96 510.529C1200.03 466.435 1151.07 425.562 1088.45 389.052C1035.66 358.276 974.417 331.534 911.328 311.715C856.521 294.495 802.398 283.433 762.856 281.364C621.146 273.827 615.497 272.048 546.41 250.261L540.429 248.376C528.451 244.655 516.103 239.054 503.03 233.126C486.939 225.828 468.972 217.679 447.89 211.408Z" fill="url(#paint6_linear_111_786)"/>
</mask>
<g mask="url(#mask3_111_786)">
<path d="M478.033 1089.75C465.123 1085.9 452.183 1081.76 439.205 1077.31C317.885 1036.89 247.053 976.416 222.671 892.43C201.346 818.974 217.541 739.964 233.203 663.555C244.71 607.417 255.578 554.391 248.979 510.693C235.619 385.437 200.954 340.111 178.016 310.118C162.88 290.326 153.745 278.381 161.241 255.32C169.615 225.517 259.356 200.346 365.525 198.075C427.825 195.698 470.129 214.906 504.122 230.339C517.125 236.243 529.408 241.82 541.244 245.504L541.248 245.505L547.232 247.395C616.056 269.133 621.675 270.904 763.056 278.49C802.788 280.586 857.123 291.727 912.117 309.018C975.37 328.922 1036.78 355.77 1089.72 386.661C1152.62 423.367 1201.83 464.478 1235.96 508.851C1275.78 560.613 1294.16 615.939 1290.57 673.291C1285.98 738.142 1266.67 800.508 1233.16 858.671C1199.83 916.532 1154.24 967.145 1097.68 1009.1C1017.6 1068.49 918.621 1107.12 811.437 1120.81C704.836 1134.42 592.855 1123.96 478.033 1089.75ZM447.801 211.221C424.647 204.321 397.736 199.682 365.418 200.915C262.14 203.124 171.693 227.844 163.774 256.021C156.743 277.653 165.545 289.164 180.129 308.234C201.843 336.626 238.186 384.147 251.622 510.118C258.292 554.28 247.369 607.563 235.807 663.976C220.219 740.024 204.101 818.661 225.225 891.422C249.353 974.533 319.662 1034.45 440.17 1074.59C568.232 1118.48 693.097 1133.08 811.307 1117.99C918.036 1104.36 1016.57 1065.92 1096.26 1006.81C1152.5 965.099 1197.8 914.801 1230.92 857.311C1264.18 799.565 1283.36 737.651 1287.91 673.286C1291.46 616.662 1273.27 561.97 1233.86 510.742C1199.92 466.624 1150.95 425.722 1088.32 389.178C1035.54 358.373 974.292 331.6 911.205 311.75C856.4 294.502 802.282 283.415 762.744 281.328C621.052 273.727 615.404 271.945 546.319 250.125L540.339 248.237C528.361 244.51 516.013 238.902 502.94 232.967C486.849 225.661 468.882 217.503 447.801 211.221Z" fill="url(#paint7_linear_111_786)"/>
</g>
<mask id="mask4_111_786" style="mask-type:alpha" maskUnits="userSpaceOnUse" x="203" y="231" width="1027" height="836">
<path d="M511.932 1033.97C504.867 1031.87 497.797 1029.67 490.705 1027.36C253.207 953.572 273.797 807.797 291.961 679.184C299.174 628.116 305.986 579.884 296.591 539.236C278.432 430.459 245.611 386.862 223.893 358.011C208.344 337.359 198.959 324.892 205.933 302.141C209.626 287.543 229.959 271.621 261.703 258.529C295.408 244.628 337.93 235.488 381.44 232.794C439.512 227.655 477.483 242.161 510.985 254.961C519.874 258.358 528.27 261.565 536.577 264.208L536.584 264.21C549.07 268.256 559.864 272.041 569.388 275.379C613.377 290.8 639.926 300.105 746.678 307.389C814.782 311.949 936.4 344.14 1042.48 404.035C1099.9 436.454 1145.03 472.714 1176.62 511.806C1213.55 557.488 1231.22 606.388 1229.15 657.144C1226.09 714.968 1209.92 770.761 1181.1 822.99C1152.4 874.992 1112.74 920.614 1063.21 958.59C994.143 1011.55 908.444 1046.64 815.38 1060.07C718.909 1073.99 616.923 1065.2 511.932 1033.97ZM473.328 244.545C448.327 237.107 419.145 232.081 381.439 235.418C287.962 241.208 215.176 275.537 208.295 302.728C201.714 324.207 210.802 336.28 225.86 356.28C247.722 385.321 280.76 429.208 299.007 538.521C308.5 579.58 301.652 628.064 294.402 679.395C285.202 744.535 275.689 811.89 297.773 872.967C322.896 942.45 386.283 992.126 491.559 1024.84C603.712 1061.29 712.607 1072.27 815.215 1057.46C907.857 1044.1 993.145 1009.18 1061.86 956.492C1111.08 918.754 1150.49 873.43 1178.99 821.777C1207.6 769.937 1223.65 714.563 1226.68 657.196C1229.34 592.058 1199.31 495.651 1041.2 406.38C935.425 346.653 814.208 314.559 746.347 310.015C639.29 302.709 612.63 293.366 568.468 277.884C558.957 274.55 548.177 270.772 535.718 266.734C527.35 264.07 518.925 260.851 510.008 257.444C498.524 253.058 486.505 248.466 473.328 244.545Z" fill="url(#paint8_linear_111_786)"/>
</mask>
<g mask="url(#mask4_111_786)">
<path d="M512.104 1033.97C505.039 1031.86 497.969 1029.66 490.878 1027.35C253.39 953.44 273.931 807.647 292.05 679.017C299.245 627.943 306.04 579.704 296.634 539.045C278.442 430.239 245.611 386.619 223.887 357.754C208.335 337.091 198.947 324.617 205.912 301.864C209.6 287.265 229.925 271.349 261.66 258.268C295.355 244.38 337.869 235.256 381.371 232.581C439.433 227.466 477.403 241.992 510.905 254.809C519.793 258.21 528.189 261.421 536.496 264.069L536.503 264.07C548.988 268.123 559.782 271.913 569.306 275.256C613.293 290.699 639.842 300.018 746.58 307.349C814.676 311.94 936.286 344.19 1042.37 404.143C1099.79 436.593 1144.93 472.879 1176.53 511.992C1213.46 557.7 1231.15 606.616 1229.1 657.381C1226.06 715.214 1209.91 771.011 1181.11 823.238C1152.43 875.238 1112.79 920.851 1063.28 958.812C994.237 1011.75 908.562 1046.81 815.516 1060.2C719.064 1074.08 617.09 1065.25 512.104 1033.97ZM473.249 244.375C448.249 236.924 419.07 231.885 381.371 235.206C287.91 240.955 215.145 275.26 208.274 302.453C201.701 323.933 210.792 336.012 225.854 356.023C247.722 385.078 280.77 428.989 299.049 538.331C308.554 579.402 301.723 627.891 294.491 679.229C285.313 744.377 275.823 811.741 297.924 872.839C323.066 942.347 386.46 992.06 491.731 1024.82C603.88 1061.33 712.762 1072.36 815.351 1057.59C907.975 1044.27 993.239 1009.38 1061.93 956.714C1111.13 918.99 1150.51 873.674 1179 822.024C1207.59 770.186 1223.61 714.809 1226.63 657.432C1229.26 592.283 1199.21 495.844 1041.09 406.487C935.312 346.704 814.102 314.55 746.25 309.976C639.206 302.622 612.547 293.265 568.387 277.761C558.875 274.423 548.096 270.639 535.638 266.595C527.27 263.926 518.846 260.704 509.928 257.292C498.444 252.899 486.426 248.302 473.249 244.375Z" fill="url(#paint9_linear_111_786)"/>
</g>
<mask id="mask5_111_786" style="mask-type:alpha" maskUnits="userSpaceOnUse" x="248" y="263" width="920" height="744">
<path d="M534.674 975.143C448.241 949.431 393.831 910.03 368.483 854.846C345.425 804.651 348.579 748.141 351.629 693.49C354.17 647.95 356.572 604.934 344.171 567.52C321.734 475.478 290.758 433.931 270.259 406.439C253.905 384.502 244.032 371.263 250.498 348.591C257.5 317.533 321.725 276.082 397.17 267.201C456.197 257.839 492.57 269.797 527.747 281.367L531.744 282.68C548.668 288.348 562.509 294.122 575.898 299.708C611.784 314.675 645.682 328.813 730.133 336.175C791.687 341.435 900.855 370.369 995.081 421.466C1074.5 464.532 1168.9 537.612 1167.67 641.206C1164.7 742.826 1114.1 840.239 1028.85 908.485C970.785 954.966 898.37 986.455 819.432 999.547C733.13 1013.86 641.067 1006.74 545.754 978.387C544.624 978.051 543.498 977.713 542.368 977.371C539.774 976.639 537.211 975.897 534.674 975.143ZM505.71 276.932C476.683 268.297 444.183 262.168 397.304 269.603C316.649 279.098 258.727 322.286 252.686 349.072C246.547 370.612 256.155 383.499 272.076 404.853C292.683 432.491 323.824 474.259 346.347 566.666C358.868 604.43 356.454 647.676 353.899 693.461C350.864 747.807 347.73 804.004 370.539 853.659C396.353 909.857 452.787 949.528 543.107 975.029C544.229 975.367 545.365 975.709 546.486 976.041C641.519 1004.31 733.25 1011.41 819.237 997.15C897.786 984.122 969.825 952.803 1027.57 906.58C1069.76 872.798 1103.26 832.421 1127.12 786.568C1151.05 740.598 1163.92 691.728 1165.4 641.318C1166.62 538.913 1072.83 466.416 993.941 423.635C899.971 372.677 791.143 343.826 729.793 338.584C645.018 331.195 610.98 316.996 574.943 301.965C561.589 296.395 547.78 290.636 530.927 284.99L526.939 283.681C519.968 281.392 512.945 279.084 505.71 276.932Z" fill="url(#paint10_linear_111_786)"/>
</mask>
<g mask="url(#mask5_111_786)">
<path d="M534.828 975.134C448.4 949.379 393.986 909.947 368.623 854.743C345.553 804.529 348.688 748.009 351.719 693.349C354.246 647.802 356.633 604.779 344.222 567.353C321.759 475.284 290.773 433.716 270.268 406.21C253.909 384.261 244.034 371.015 250.492 348.343C257.483 317.281 321.684 275.851 397.115 267.001C456.129 257.663 492.501 269.64 527.677 281.227L531.673 282.542C548.596 288.219 562.438 294 575.826 299.592C611.712 314.578 645.609 328.733 730.05 336.134C791.596 341.421 900.756 370.409 994.985 421.556C1074.4 464.664 1168.82 537.8 1167.62 641.412C1164.68 743.05 1114.12 840.459 1028.9 908.68C970.867 955.144 898.473 986.607 819.551 999.668C733.267 1013.95 641.216 1006.78 545.908 978.384C544.778 978.047 543.652 977.708 542.522 977.367C539.928 976.633 537.365 975.89 534.828 975.134ZM505.642 276.782C476.616 268.132 444.119 261.988 397.249 269.404C316.61 278.865 258.71 322.036 252.68 348.824C246.548 370.365 256.159 383.259 272.085 404.624C292.698 432.276 323.848 474.066 346.398 566.5C358.928 604.276 356.529 647.529 353.989 693.321C350.973 747.676 347.857 803.882 370.679 853.557C396.508 909.775 452.946 949.479 543.26 975.024C544.382 975.363 545.518 975.705 546.639 976.038C641.667 1004.36 733.386 1011.5 819.356 997.27C897.888 984.274 969.906 952.981 1027.62 906.774C1069.8 873.005 1103.28 832.635 1127.12 786.784C1151.03 740.816 1163.89 691.942 1165.35 641.523C1166.53 539.1 1072.74 466.549 993.846 423.726C899.873 372.716 791.053 343.813 729.71 338.543C644.947 331.115 610.908 316.899 574.873 301.85C561.519 296.273 547.709 290.506 530.857 284.852L526.869 283.541C519.898 281.249 512.876 278.937 505.642 276.782Z" fill="url(#paint11_linear_111_786)"/>
</g>
<mask id="mask6_111_786" style="mask-type:alpha" maskUnits="userSpaceOnUse" x="293" y="292" width="814" height="656">
<path d="M570.821 920.989C507.556 902.171 465.149 873.788 441.548 834.598C418.052 795.583 415.11 750.063 412.266 706.043C409.836 668.434 407.324 629.544 391.755 595.696C365.988 520.897 336.936 482.012 317.712 456.281C299.828 432.344 289.032 417.895 295.033 394.927C300.919 365.315 349.753 314.125 412.847 301.473C458.301 289.46 492.412 289.315 526.86 300.985L526.868 300.988C545.107 307.337 560.234 314.877 576.251 322.858C610.1 339.724 645.103 357.167 713.574 364.822C768.887 370.877 865.739 396.597 947.676 438.758C1018.68 475.292 1103.82 537.281 1106.2 625.121C1106.45 713.053 1065.77 798.117 994.572 858.527C947.475 898.489 888.315 926.329 823.486 939.036C751.776 953.092 674.589 949.126 594.068 927.247C586.03 925.294 578.275 923.206 570.821 920.989ZM519.951 301.137C487.932 291.612 455.546 292.429 413.152 303.631C350.898 316.117 302.822 366.264 297.05 395.308C291.311 417.274 301.278 430.614 319.373 454.83C338.673 480.663 367.841 519.7 393.672 594.71C409.371 628.825 411.896 667.925 414.339 705.738C417.167 749.495 420.09 794.741 443.321 833.314C469.422 876.658 518.932 906.67 594.686 925.096C674.947 946.901 751.839 950.859 823.249 936.861C887.722 924.223 946.542 896.55 993.348 856.833C1064 796.884 1104.37 712.497 1104.12 625.31C1101.77 538.536 1017.2 477.053 946.667 440.762C864.943 398.711 768.363 373.06 713.216 367.021C644.41 359.332 609.259 341.815 575.265 324.872C559.303 316.919 544.226 309.405 526.099 303.094C524.049 302.398 522 301.747 519.951 301.137Z" fill="url(#paint12_linear_111_786)"/>
</mask>
<g mask="url(#mask6_111_786)">
<path d="M570.957 920.983C507.697 902.135 465.287 873.728 441.677 834.521C418.172 795.488 415.215 749.959 412.358 705.93C409.916 668.313 407.392 629.415 391.814 595.555C366.027 520.731 336.967 481.826 317.738 456.082C299.849 432.133 289.049 417.677 295.042 394.707C300.917 365.092 349.727 313.915 412.807 301.289C458.25 289.294 492.355 289.163 526.801 300.85L526.809 300.853C545.047 307.211 560.174 314.759 576.191 322.748C610.04 339.632 645.043 357.094 713.506 364.78C768.812 370.861 865.657 396.628 947.595 438.832C1018.6 475.404 1103.75 537.442 1106.15 625.298C1106.44 713.245 1065.79 798.306 994.62 858.696C947.544 898.645 888.402 926.464 823.588 939.145C751.894 953.172 674.718 949.171 594.203 927.253C586.165 925.296 578.411 923.204 570.957 920.983ZM519.893 301C487.877 291.459 455.496 292.261 413.112 303.447C350.873 315.908 302.821 366.042 297.058 395.089C291.328 417.056 301.298 430.403 319.398 454.632C338.703 480.477 367.879 519.534 393.731 594.569C409.438 628.697 411.975 667.805 414.431 705.626C417.272 749.392 420.209 794.647 443.449 833.237C469.561 876.6 519.072 906.639 594.82 925.102C675.076 946.946 751.956 950.939 823.35 936.969C887.809 924.357 946.61 896.705 993.396 857.002C1064.02 797.073 1104.36 712.689 1104.07 625.486C1101.7 538.695 1017.12 477.165 946.587 440.836C864.861 398.741 768.289 373.044 713.149 366.98C644.351 359.259 609.2 341.724 575.206 324.763C559.245 316.801 544.167 309.279 526.041 302.959C523.991 302.263 521.942 301.61 519.893 301Z" fill="url(#paint13_linear_111_786)"/>
</g>
<mask id="mask7_111_786" style="mask-type:alpha" maskUnits="userSpaceOnUse" x="339" y="314" width="707" height="574">
<path d="M606.385 866.585C504.493 836.276 489.8 777.221 474.336 715.086C466.71 684.442 458.824 652.754 440.185 623.201C412.94 566.695 387.235 533.127 368.466 508.617C346.816 480.345 334.891 464.77 340.502 440.809C343.318 424.509 354.196 402.281 368.879 382.863C386.624 359.392 408.082 342.535 429.299 335.397C464.518 319.841 493.805 308.729 522.661 318.923L522.668 318.926C540.809 325.535 557.338 335.233 574.838 345.497C606.424 364.026 642.227 385.025 697.502 393.041C735.811 398.48 821.683 417.767 900.507 455.542C941.517 475.195 974.438 496.963 998.356 520.24C1026.61 547.738 1042.24 577.373 1044.79 608.322C1048.45 682.62 1017.79 755.425 960.665 808.103C924.508 841.444 878.604 865.527 827.913 877.749C771.855 891.266 710.788 890.711 646.407 876.104C631.749 873.363 618.453 870.175 606.385 866.585ZM518.75 319.783C491.514 311.68 463.434 322.428 429.83 337.269C381.323 353.592 347.101 413.534 342.337 441.099C336.935 464.166 348.664 479.482 369.955 507.286C388.771 531.858 414.542 565.511 441.818 622.098C460.566 651.816 468.492 683.656 476.154 714.449C484.891 749.556 493.144 782.717 516.455 810.712C542.724 842.26 584.171 862.411 646.89 874.139C711.039 888.695 771.835 889.25 827.622 875.8C877.993 863.654 923.593 839.737 959.494 806.631C1016.14 754.396 1046.55 682.217 1042.92 608.603C1040.4 578.171 1024.97 548.942 997.037 521.762C973.251 498.614 940.481 476.953 899.638 457.38C820.998 419.695 735.339 400.456 697.123 395.028C641.52 386.969 605.564 365.878 573.844 347.27C556.414 337.045 539.948 327.386 521.951 320.827C520.886 320.448 519.819 320.1 518.75 319.783Z" fill="url(#paint14_linear_111_786)"/>
</mask>
<g mask="url(#mask7_111_786)">
<path d="M606.496 866.593C504.61 836.234 489.9 777.162 474.419 715.009C466.783 684.357 458.889 652.659 440.243 623.093C412.984 566.564 387.271 532.979 368.498 508.456C346.842 480.169 334.914 464.586 340.516 440.624C343.327 424.322 354.195 402.095 368.869 382.679C386.605 359.213 408.054 342.362 429.265 335.232C464.473 319.688 493.752 308.587 522.606 318.795L522.613 318.799C540.753 325.417 557.283 335.124 574.784 345.397C606.372 363.943 642.175 384.962 697.444 393.004C735.749 398.46 821.614 417.788 900.438 455.605C941.447 475.28 974.37 497.066 998.292 520.357C1026.55 547.873 1042.18 577.52 1044.75 608.476C1048.44 682.789 1017.8 755.594 960.702 808.256C924.561 841.588 878.672 865.655 827.993 877.857C771.949 891.352 710.89 890.77 646.515 876.131C631.858 873.384 618.563 870.189 606.496 866.593ZM518.697 319.654C491.462 311.538 463.39 322.275 429.796 337.104C381.302 353.409 347.105 413.347 342.351 440.914C336.958 463.984 348.689 479.307 369.986 507.126C388.807 531.71 414.585 565.381 441.875 621.99C460.63 651.721 468.565 683.571 476.236 714.373C484.983 749.49 493.245 782.661 516.562 810.671C542.838 842.236 584.284 862.41 646.997 874.167C711.141 888.753 771.928 889.335 827.702 875.907C878.06 863.782 923.645 839.88 959.53 806.784C1016.15 754.564 1046.53 682.385 1042.88 608.756C1040.35 578.318 1024.91 549.076 996.974 521.879C973.184 498.717 940.413 477.037 899.569 457.443C820.93 419.717 735.278 400.436 697.066 394.991C641.469 386.906 605.512 365.795 573.791 347.17C556.36 336.936 539.893 327.267 521.897 320.7C520.832 320.32 519.766 319.972 518.697 319.654Z" fill="url(#paint15_linear_111_786)"/>
</g>
<mask id="mask8_111_786" style="mask-type:alpha" maskUnits="userSpaceOnUse" x="384" y="334" width="601" height="496">
<path d="M639.295 814.028C577.741 795.72 557.853 760.651 534.004 718.608C521.553 696.662 508.68 673.97 488.341 650.546C463.8 614.554 442.6 588.81 425.564 568.123C396.338 532.629 380.238 513.078 385.645 486.468C390.097 456.318 412.889 388.694 445.367 369.134C447.447 367.468 449.526 365.779 451.604 364.091C473.317 346.46 495.779 328.234 518.222 336.591L518.229 336.594C535.632 343.29 553.505 355.432 572.429 368.287C603.048 389.087 637.749 412.66 681.272 421.025C728.43 429.913 964.626 479.894 983.38 591.373C990.802 652.325 970.303 713.236 927.151 758.527C901.403 785.551 869.486 805.211 832.286 816.961C791.746 829.766 746.758 832.452 698.573 824.94C675.247 822.633 655.774 818.932 639.295 814.028ZM515.521 337.603C494.575 331.374 473.23 348.706 452.562 365.489C450.465 367.193 448.366 368.895 446.267 370.578L446.167 370.649C414.202 389.842 391.715 456.77 387.297 486.676C382.055 512.476 397.97 531.802 426.862 566.889C443.917 587.602 465.143 613.379 489.667 649.356C510.055 672.826 522.969 695.591 535.458 717.606C565.469 770.51 589.178 812.299 698.884 823.165C746.871 830.643 791.613 827.977 831.914 815.249C868.825 803.59 900.485 784.093 926.014 757.297C968.76 712.433 989.063 652.099 981.719 591.767C974.246 547.351 930.783 507.642 852.544 473.785C783.676 443.982 709.543 428.194 680.866 422.79C637.041 414.363 602.196 390.698 571.456 369.817C552.608 357.013 534.802 344.917 517.563 338.285C516.883 338.033 516.202 337.806 515.521 337.603Z" fill="url(#paint16_linear_111_786)"/>
</mask>
<g mask="url(#mask8_111_786)">
<path d="M639.384 814.051C577.834 795.713 557.938 760.628 534.079 718.568C521.623 696.612 508.744 673.91 488.401 650.473C463.852 614.464 442.647 588.706 425.608 568.008C396.374 532.495 380.27 512.933 385.668 486.321C390.109 456.168 412.876 388.542 445.342 368.992C447.421 367.327 449.499 365.638 451.576 363.951C473.28 346.326 495.733 328.107 518.175 336.475L518.182 336.478C535.584 343.183 553.458 355.335 572.383 368.2C603.005 389.017 637.708 412.61 681.226 420.996C728.38 429.905 964.555 480 983.342 591.506C990.783 652.473 970.308 713.385 927.177 758.666C901.442 785.684 869.536 805.333 832.346 817.069C791.816 829.859 746.836 832.525 698.657 824.991C675.333 822.673 655.862 818.962 639.384 814.051ZM515.474 337.486C494.53 331.246 473.194 348.573 452.535 365.349C450.439 367.052 448.341 368.755 446.243 370.437L446.142 370.508C414.189 389.69 391.727 456.621 387.32 486.53C382.087 512.332 398.006 531.669 426.905 566.775C443.963 587.498 465.195 613.289 489.726 649.283C510.119 672.766 523.038 695.541 535.533 717.566C565.556 770.493 589.275 812.299 698.968 823.215C746.949 830.716 791.683 828.069 831.973 815.356C868.875 803.711 900.523 784.225 926.039 757.435C968.764 712.581 989.044 652.246 981.681 591.9C974.196 547.473 930.726 507.738 852.489 473.84C783.622 444.002 709.495 428.178 680.821 422.76C637.001 414.313 602.154 390.629 571.412 369.73C552.562 356.915 534.755 344.81 517.516 338.169C516.837 337.917 516.156 337.69 515.474 337.486Z" fill="url(#paint17_linear_111_786)"/>
</g>
<mask id="mask9_111_786" style="mask-type:alpha" maskUnits="userSpaceOnUse" x="429" y="352" width="498" height="423">
<path d="M664.303 766.576C627.886 755.744 602.774 734.257 568.059 704.554C558.193 696.113 547.992 687.385 536.379 677.882C528.423 669.91 520.954 662.477 513.921 655.481C452.73 594.598 424.801 566.811 430.616 532.077C433.831 505.997 443.627 426.564 461.288 402.88C475.275 376.019 493.888 346.252 513.636 354.122L513.643 354.125C530.044 360.871 549.565 376.018 570.234 392.053C599.384 414.668 632.418 440.293 664.975 448.922C671.178 450.537 678.639 452.349 687.279 454.446C722.674 463.043 776.162 476.037 823.159 495.278C879.389 518.3 912.641 544.907 921.991 574.359C933.869 621.696 923.783 672.673 895.026 710.771C863.136 753.013 811.901 775.403 750.755 773.819C714.151 775.948 687.025 773.336 664.303 766.576ZM511.553 355.095C493.371 349.686 475.861 378.048 462.542 403.635L462.466 403.756C445.059 426.997 435.292 506.189 432.084 532.213C426.399 566.165 454.157 593.782 514.976 654.292C522.009 661.29 529.48 668.723 537.386 676.651C548.959 686.117 559.166 694.85 569.038 703.296C625.15 751.305 656.058 777.749 750.836 772.242C811.543 773.812 862.329 751.65 893.895 709.836C922.34 672.154 932.311 621.716 920.568 574.915C911.365 545.933 878.382 519.625 822.545 496.762C775.638 477.56 722.211 464.58 686.854 455.993C678.208 453.893 670.742 452.08 664.525 450.462C631.694 441.76 598.554 416.05 569.306 393.357C548.714 377.381 529.262 362.289 513.031 355.611C512.539 355.412 512.045 355.24 511.553 355.095Z" fill="url(#paint18_linear_111_786)"/>
</mask>
<g mask="url(#mask9_111_786)">
<path d="M664.374 766.609C627.959 755.758 602.845 734.257 568.126 704.534C558.259 696.087 548.056 687.353 536.442 677.843C528.484 669.866 521.015 662.429 513.981 655.428C452.78 594.508 424.846 566.704 430.649 531.967C433.855 505.883 443.623 426.441 461.274 402.761C475.25 375.901 493.849 346.137 513.597 354.017L513.604 354.02C530.005 360.775 549.528 375.933 570.198 391.98C599.35 414.611 632.388 440.255 664.942 448.9C671.144 450.518 678.605 452.333 687.244 454.435C722.636 463.049 776.119 476.069 823.115 495.334C879.343 518.384 912.598 545.01 921.956 574.471C933.848 621.822 923.781 672.803 895.04 710.895C863.17 753.131 811.95 775.502 750.814 773.891C714.216 776.004 687.095 773.379 664.374 766.609ZM511.515 354.99C493.335 349.572 475.837 377.931 462.528 403.517L462.452 403.638C445.055 426.875 435.315 506.076 432.117 532.104C426.444 566.058 454.206 593.693 515.035 654.24C522.069 661.242 529.541 668.68 537.448 676.612C549.023 686.085 559.231 694.824 569.104 703.276C625.223 751.317 656.134 777.78 750.894 772.313C811.592 773.911 862.362 751.767 893.909 709.959C922.337 672.283 932.29 621.841 920.534 575.027C911.323 546.036 878.337 519.708 822.501 496.818C775.596 477.592 722.173 464.586 686.819 455.982C678.175 453.878 670.71 452.061 664.492 450.44C631.664 441.722 598.522 415.993 569.27 393.284C548.677 377.296 529.223 362.193 512.993 355.507C512.5 355.307 512.006 355.135 511.515 354.99Z" fill="url(#paint19_linear_111_786)"/>
</g>
<mask id="mask10_111_786" style="mask-type:alpha" maskUnits="userSpaceOnUse" x="475" y="370" width="403" height="374">
<path d="M651.315 734.396C630.107 728.086 607.956 718.488 584.493 705.481C503.4 653.867 470.841 615.724 475.594 577.921C477.334 560.443 477.08 525.865 476.854 495.357C476.678 471.199 476.509 448.382 477.326 436.83C477.06 426.721 479.194 413.332 483.033 401.087C487.237 387.676 492.711 377.881 498.444 373.507C501.984 370.805 505.54 370.209 509.011 371.724L509.015 371.725C524.489 378.646 546.629 398.081 570.068 418.656C597.92 443.103 626.719 468.384 648.727 476.982C660.716 481.609 680.549 486.235 703.512 491.591C760.511 504.887 838.583 523.095 860.683 557.467C879.399 591.722 882.366 633.561 868.447 666.693C856.755 694.532 834.213 713.961 803.259 722.877C766.268 738.408 734.053 744.923 701.953 743.351C685.579 742.552 668.766 739.588 651.315 734.396ZM507.425 372.622C504.71 371.815 501.93 372.478 499.144 374.603C487.448 383.526 478.078 416.242 478.611 436.767C477.797 448.333 477.965 471.122 478.142 495.25C478.367 525.795 478.622 560.416 476.873 577.99C472.193 615.215 504.584 652.975 585.178 704.274C627.755 727.876 666.01 740.217 702.101 741.982C734.01 743.544 766.051 737.06 802.931 721.582C833.537 712.76 855.763 693.622 867.275 666.211C881.025 633.479 878.075 592.115 859.579 558.259C837.762 524.332 759.963 506.187 703.152 492.935C680.146 487.568 660.279 482.937 648.211 478.276C626.013 469.601 597.135 444.253 569.208 419.741C545.836 399.225 523.759 379.847 508.445 372.998C508.108 372.848 507.767 372.723 507.425 372.622Z" fill="url(#paint20_linear_111_786)"/>
</mask>
<g mask="url(#mask10_111_786)">
<path d="M651.378 734.422C630.172 728.102 608.021 718.493 584.559 705.474C503.463 653.816 470.898 615.652 475.638 577.846C477.371 560.366 477.106 525.782 476.871 495.269C476.687 471.108 476.51 448.287 477.323 436.733C477.054 426.622 479.183 413.232 483.017 400.988C487.216 387.576 492.686 377.782 498.417 373.409C501.955 370.709 505.51 370.114 508.981 371.631L508.985 371.632C524.459 378.561 546.601 398.008 570.043 418.597C597.898 443.06 626.7 468.357 648.707 476.966C660.695 481.6 680.525 486.235 703.487 491.602C760.48 504.925 838.543 523.17 860.65 557.557C879.375 591.825 882.355 633.672 868.449 666.804C856.768 694.642 834.236 714.064 803.291 722.968C766.312 738.486 734.105 744.987 702.01 743.401C685.638 742.595 668.828 739.623 651.378 734.422ZM507.396 372.529C504.681 371.72 501.902 372.382 499.117 374.506C487.426 383.425 478.068 416.142 478.608 436.671C477.798 448.238 477.973 471.031 478.158 495.163C478.393 525.713 478.659 560.34 476.916 577.916C472.249 615.144 504.647 652.925 585.243 704.266C627.82 727.891 666.072 740.25 702.157 742.032C734.062 743.608 766.095 737.137 802.963 721.672C833.56 712.862 855.776 693.731 867.277 666.321C881.014 633.59 878.051 592.218 859.547 558.349C837.723 524.407 759.932 506.225 703.127 492.945C680.124 487.568 660.258 482.928 648.191 478.261C625.994 469.574 597.113 444.21 569.183 419.681C545.808 399.152 523.729 379.762 508.416 372.905C508.079 372.754 507.738 372.629 507.396 372.529Z" fill="url(#paint21_linear_111_786)"/>
</g>
<mask id="mask11_111_786" style="mask-type:alpha" maskUnits="userSpaceOnUse" x="487" y="389" width="376" height="357">
<path d="M640.741 736.76C638.077 735.968 635.432 735.123 632.799 734.229C589.959 719.656 558.849 701.356 540.331 679.835C525.793 662.939 519.178 644.455 520.672 624.893C523.117 592.866 506.883 501.2 493.53 471.64C488.553 460.624 486.472 444.221 487.821 426.636C489.041 410.725 492.912 397.131 497.684 392C499.807 389.717 502.107 389.1 504.32 390.204C519.827 397.934 549.396 427.294 577.99 455.686C600.162 477.702 621.105 498.497 632.526 506.068C645.477 514.655 677.004 518.602 710.381 522.784C744.763 527.089 780.318 531.541 799.326 541.506C819.209 551.93 838.964 572.851 850.882 596.103C864.81 623.279 866.749 650.442 856.342 672.588C844.162 698.503 812.86 721.831 772.608 734.992C730.028 748.915 683.527 749.49 640.741 736.76ZM503.09 390.981C501.524 390.515 499.994 391.111 498.433 392.79C489.188 402.73 483.574 446.847 494.521 471.078C507.924 500.746 524.216 592.756 521.761 624.907C520.292 644.145 526.819 662.351 541.162 679.018C559.56 700.401 590.527 718.602 633.198 733.118C677.909 748.329 727.339 748.601 772.356 733.882C811.707 721.016 843.516 697.351 855.371 672.126C865.61 650.339 863.673 623.558 849.915 596.715C838.091 573.642 818.5 552.892 798.79 542.557C779.939 532.676 744.477 528.235 710.18 523.941C676.685 519.746 645.05 515.786 631.902 507.071C620.403 499.447 599.425 478.617 577.217 456.566C548.678 428.229 519.169 398.926 503.804 391.267C503.565 391.146 503.327 391.051 503.09 390.981Z" fill="url(#paint22_linear_111_786)"/>
</mask>
<g mask="url(#mask11_111_786)">
<path d="M640.805 736.774C638.142 735.981 635.496 735.136 632.864 734.24C590.028 719.647 558.918 701.331 540.397 679.8C525.856 662.895 519.236 644.405 520.724 624.842C523.159 592.811 506.898 501.126 493.538 471.556C488.559 460.537 486.473 444.131 487.816 426.544C489.031 410.632 492.897 397.038 497.666 391.907C499.788 389.626 502.087 389.009 504.301 390.114C519.807 397.852 549.379 427.228 577.977 455.637C600.151 477.665 621.097 498.472 632.518 506.049C645.469 514.642 676.992 518.604 710.363 522.8C744.739 527.121 780.289 531.589 799.296 541.563C819.178 551.997 838.936 572.929 850.859 596.19C864.794 623.375 866.74 650.542 856.342 672.687C844.173 698.6 812.884 721.918 772.646 735.064C730.078 748.97 683.586 749.525 640.805 736.774ZM503.071 390.891C501.505 390.424 499.976 391.02 498.416 392.698C489.175 402.636 483.577 446.756 494.529 470.995C507.939 500.673 524.257 592.702 521.813 624.857C520.35 644.096 526.882 662.307 541.227 678.982C559.629 700.376 590.595 718.593 633.263 733.129C677.969 748.362 727.39 748.655 772.392 733.953C811.732 721.102 843.527 697.448 855.372 672.225C865.602 650.439 863.656 623.653 849.893 596.801C838.064 573.72 818.47 552.959 798.76 542.614C779.91 532.724 744.453 528.266 710.162 523.957C676.673 519.748 645.043 515.773 631.895 507.051C620.395 499.422 599.415 478.58 577.204 456.517C548.662 428.164 519.149 398.844 503.785 391.177C503.546 391.056 503.308 390.961 503.071 390.891Z" fill="url(#paint23_linear_111_786)"/>
</g>
<defs>
<linearGradient id="paint0_linear_111_786" x1="449.513" y1="-76.1148" x2="1034.12" y2="1248.94" gradientUnits="userSpaceOnUse">
<stop stop-color="white"/>
<stop offset="0.0436" stop-color="#B4B4B4"/>
<stop offset="0.1507"/>
<stop offset="0.1714" stop-color="#171717"/>
<stop offset="0.3859" stop-color="white"/>
<stop offset="0.6326" stop-color="#E6E6E6"/>
<stop offset="0.8567" stop-color="#1A1A1A"/>
<stop offset="0.9987"/>
</linearGradient>
<linearGradient id="paint1_linear_111_786" x1="449.322" y1="-76.3504" x2="1033.93" y2="1249.38" gradientUnits="userSpaceOnUse">
<stop stop-color="#1E1F20"/>
<stop offset="1" stop-color="#1E1F20" stop-opacity="0"/>
</linearGradient>
<linearGradient id="paint2_linear_111_786" x1="477.019" y1="-23.4306" x2="1013.38" y2="1192.26" gradientUnits="userSpaceOnUse">
<stop stop-color="white"/>
<stop offset="0.0436" stop-color="#B4B4B4"/>
<stop offset="0.1507"/>
<stop offset="0.1714" stop-color="#171717"/>
<stop offset="0.3859" stop-color="white"/>
<stop offset="0.6326" stop-color="#E6E6E6"/>
<stop offset="0.8567" stop-color="#1A1A1A"/>
<stop offset="0.9987"/>
</linearGradient>
<linearGradient id="paint3_linear_111_786" x1="476.843" y1="-23.6458" x2="1013.21" y2="1192.66" gradientUnits="userSpaceOnUse">
<stop stop-color="#1E1F20"/>
<stop offset="1" stop-color="#1E1F20" stop-opacity="0"/>
</linearGradient>
<linearGradient id="paint4_linear_111_786" x1="504.209" y1="28.5435" x2="992.687" y2="1135.68" gradientUnits="userSpaceOnUse">
<stop stop-color="white"/>
<stop offset="0.0436" stop-color="#B4B4B4"/>
<stop offset="0.1507"/>
<stop offset="0.1714" stop-color="#171717"/>
<stop offset="0.3859" stop-color="white"/>
<stop offset="0.6326" stop-color="#E6E6E6"/>
<stop offset="0.8567" stop-color="#1A1A1A"/>
<stop offset="0.9987"/>
</linearGradient>
<linearGradient id="paint5_linear_111_786" x1="504.049" y1="28.3473" x2="992.526" y2="1136.04" gradientUnits="userSpaceOnUse">
<stop stop-color="#1E1F20"/>
<stop offset="1" stop-color="#1E1F20" stop-opacity="0"/>
</linearGradient>
<linearGradient id="paint6_linear_111_786" x1="530.971" y1="79.5195" x2="972.06" y2="1079.22" gradientUnits="userSpaceOnUse">
<stop stop-color="white"/>
<stop offset="0.0436" stop-color="#B4B4B4"/>
<stop offset="0.1507"/>
<stop offset="0.1714" stop-color="#171717"/>
<stop offset="0.3859" stop-color="white"/>
<stop offset="0.6326" stop-color="#E6E6E6"/>
<stop offset="0.8567" stop-color="#1A1A1A"/>
<stop offset="0.9987"/>
</linearGradient>
<linearGradient id="paint7_linear_111_786" x1="530.826" y1="79.3431" x2="971.913" y2="1079.54" gradientUnits="userSpaceOnUse">
<stop stop-color="#1E1F20"/>
<stop offset="1" stop-color="#1E1F20" stop-opacity="0"/>
</linearGradient>
<linearGradient id="paint8_linear_111_786" x1="556.836" y1="128.227" x2="951.6" y2="1022.91" gradientUnits="userSpaceOnUse">
<stop stop-color="white"/>
<stop offset="0.0436" stop-color="#B4B4B4"/>
<stop offset="0.1507"/>
<stop offset="0.1714" stop-color="#171717"/>
<stop offset="0.3859" stop-color="white"/>
<stop offset="0.6326" stop-color="#E6E6E6"/>
<stop offset="0.8567" stop-color="#1A1A1A"/>
<stop offset="0.9987"/>
</linearGradient>
<linearGradient id="paint9_linear_111_786" x1="556.707" y1="128.069" x2="951.468" y2="1023.2" gradientUnits="userSpaceOnUse">
<stop stop-color="#1E1F20"/>
<stop offset="1" stop-color="#1E1F20" stop-opacity="0"/>
</linearGradient>
<linearGradient id="paint10_linear_111_786" x1="581.077" y1="173.219" x2="931.265" y2="966.852" gradientUnits="userSpaceOnUse">
<stop stop-color="white"/>
<stop offset="0.0436" stop-color="#B4B4B4"/>
<stop offset="0.1507"/>
<stop offset="0.1714" stop-color="#171717"/>
<stop offset="0.3859" stop-color="white"/>
<stop offset="0.6326" stop-color="#E6E6E6"/>
<stop offset="0.8567" stop-color="#1A1A1A"/>
<stop offset="0.9987"/>
</linearGradient>
<linearGradient id="paint11_linear_111_786" x1="580.963" y1="173.082" x2="931.147" y2="967.11" gradientUnits="userSpaceOnUse">
<stop stop-color="#1E1F20"/>
<stop offset="1" stop-color="#1E1F20" stop-opacity="0"/>
</linearGradient>
<linearGradient id="paint12_linear_111_786" x1="601.322" y1="214.178" x2="909.224" y2="911.97" gradientUnits="userSpaceOnUse">
<stop stop-color="white"/>
<stop offset="0.0436" stop-color="#B4B4B4"/>
<stop offset="0.1507"/>
<stop offset="0.1714" stop-color="#171717"/>
<stop offset="0.3859" stop-color="white"/>
<stop offset="0.6326" stop-color="#E6E6E6"/>
<stop offset="0.8567" stop-color="#1A1A1A"/>
<stop offset="0.9987"/>
</linearGradient>
<linearGradient id="paint13_linear_111_786" x1="601.224" y1="214.062" x2="909.118" y2="912.195" gradientUnits="userSpaceOnUse">
<stop stop-color="#1E1F20"/>
<stop offset="1" stop-color="#1E1F20" stop-opacity="0"/>
</linearGradient>
<linearGradient id="paint14_linear_111_786" x1="602.114" y1="258.753" x2="869.581" y2="864.908" gradientUnits="userSpaceOnUse">
<stop stop-color="white"/>
<stop offset="0.0436" stop-color="#B4B4B4"/>
<stop offset="0.1507"/>
<stop offset="0.1714" stop-color="#171717"/>
<stop offset="0.3859" stop-color="white"/>
<stop offset="0.6326" stop-color="#E6E6E6"/>
<stop offset="0.8567" stop-color="#1A1A1A"/>
<stop offset="0.9987"/>
</linearGradient>
<linearGradient id="paint15_linear_111_786" x1="602.028" y1="258.651" x2="869.489" y2="865.103" gradientUnits="userSpaceOnUse">
<stop stop-color="#1E1F20"/>
<stop offset="1" stop-color="#1E1F20" stop-opacity="0"/>
</linearGradient>
<linearGradient id="paint16_linear_111_786" x1="598.801" y1="290.082" x2="832.04" y2="818.668" gradientUnits="userSpaceOnUse">
<stop stop-color="white"/>
<stop offset="0.0436" stop-color="#B4B4B4"/>
<stop offset="0.1507"/>
<stop offset="0.1714" stop-color="#171717"/>
<stop offset="0.3859" stop-color="white"/>
<stop offset="0.6326" stop-color="#E6E6E6"/>
<stop offset="0.8567" stop-color="#1A1A1A"/>
<stop offset="0.9987"/>
</linearGradient>
<linearGradient id="paint17_linear_111_786" x1="598.725" y1="289.991" x2="831.959" y2="818.835" gradientUnits="userSpaceOnUse">
<stop stop-color="#1E1F20"/>
<stop offset="1" stop-color="#1E1F20" stop-opacity="0"/>
</linearGradient>
<linearGradient id="paint18_linear_111_786" x1="593.171" y1="313.131" x2="796.972" y2="775.008" gradientUnits="userSpaceOnUse">
<stop stop-color="white"/>
<stop offset="0.0436" stop-color="#B4B4B4"/>
<stop offset="0.1507"/>
<stop offset="0.1714" stop-color="#171717"/>
<stop offset="0.3859" stop-color="white"/>
<stop offset="0.6326" stop-color="#E6E6E6"/>
<stop offset="0.8567" stop-color="#1A1A1A"/>
<stop offset="0.9987"/>
</linearGradient>
<linearGradient id="paint19_linear_111_786" x1="593.107" y1="313.054" x2="796.902" y2="775.154" gradientUnits="userSpaceOnUse">
<stop stop-color="#1E1F20"/>
<stop offset="1" stop-color="#1E1F20" stop-opacity="0"/>
</linearGradient>
<linearGradient id="paint20_linear_111_786" x1="588.295" y1="333.402" x2="767.598" y2="739.802" gradientUnits="userSpaceOnUse">
<stop stop-color="white"/>
<stop offset="0.0436" stop-color="#B4B4B4"/>
<stop offset="0.1507"/>
<stop offset="0.1714" stop-color="#171717"/>
<stop offset="0.3859" stop-color="white"/>
<stop offset="0.6326" stop-color="#E6E6E6"/>
<stop offset="0.8567" stop-color="#1A1A1A"/>
<stop offset="0.9987"/>
</linearGradient>
<linearGradient id="paint21_linear_111_786" x1="588.24" y1="333.338" x2="767.534" y2="739.926" gradientUnits="userSpaceOnUse">
<stop stop-color="#1E1F20"/>
<stop offset="1" stop-color="#1E1F20" stop-opacity="0"/>
</linearGradient>
<linearGradient id="paint22_linear_111_786" x1="596.215" y1="347.763" x2="768.322" y2="738.014" gradientUnits="userSpaceOnUse">
<stop stop-color="white"/>
<stop offset="0.0436" stop-color="#B4B4B4"/>
<stop offset="0.1507"/>
<stop offset="0.1714" stop-color="#171717"/>
<stop offset="0.3859" stop-color="white"/>
<stop offset="0.6326" stop-color="#E6E6E6"/>
<stop offset="0.8567" stop-color="#1A1A1A"/>
<stop offset="0.9987"/>
</linearGradient>
<linearGradient id="paint23_linear_111_786" x1="596.164" y1="347.707" x2="768.261" y2="738.13" gradientUnits="userSpaceOnUse">
<stop stop-color="#1E1F20"/>
<stop offset="1" stop-color="#1E1F20" stop-opacity="0"/>
</linearGradient>
</defs>
</svg>
