<svg width="1440" height="941" viewBox="0 0 1440 941" fill="none" xmlns="http://www.w3.org/2000/svg">
<mask id="mask0_16_1187" style="mask-type:alpha" maskUnits="userSpaceOnUse" x="-23" y="149" width="1448" height="1096">
<path d="M1276.93 672.471C1290.69 654.828 1303.6 637.506 1315.59 620.59C1381.43 527.698 1417.8 450.136 1423.67 390.057C1429.68 328.589 1403.26 287.018 1345.14 266.499C1168.7 204.203 1045.28 183.641 963.607 170.033C926.847 163.909 897.812 159.071 877.162 152.474L876.74 153.643L877.162 152.474C842.808 141.499 773.031 157.903 695.062 195.287C611.156 235.518 536.243 290.786 489.53 346.919C425.1 424.343 337.162 493.815 274.737 538.462C202.02 590.468 120.673 639.472 57.1354 669.548C16.1174 688.963 -10.232 721.614 -19.0619 763.972C-34.3511 837.315 4.73387 930.199 82.9421 1006.38C120.012 1042.48 158.343 1079.82 197.47 1113.12C240.729 1149.93 280.342 1177.67 318.573 1197.94C364.226 1222.14 409.153 1236.6 455.922 1242.15C508.142 1248.35 561.494 1243.4 619.027 1227.02C717.291 1199.03 909.89 1057.46 1087.39 882.754C1160 811.286 1224.59 739.57 1276.93 672.471ZM7.44583 711.251C20.1713 694.937 37.1379 681.612 57.9613 671.755C121.628 641.618 203.121 592.528 275.955 540.437C338.508 495.701 426.635 426.075 491.247 348.432C537.725 292.582 612.317 237.565 695.9 197.49C773.349 160.355 842.481 144.002 876.318 154.812C897.114 161.455 926.216 166.304 963.061 172.443C1044.66 186.038 1167.97 206.582 1344.24 268.816C1401.29 288.959 1427.23 329.732 1421.34 390.001C1415.51 449.614 1379.31 526.743 1313.75 619.245C1256.25 700.366 1177.44 790.895 1085.85 881.045C908.632 1055.48 716.48 1196.78 618.577 1224.67C561.345 1240.97 508.285 1245.89 456.367 1239.73C409.865 1234.21 365.182 1219.82 319.763 1195.75C234.554 1150.58 158.328 1076.34 84.6118 1004.53C6.95304 928.891 -31.8965 836.843 -16.7753 764.306C-12.6004 744.281 -4.42204 726.466 7.44583 711.251Z" fill="url(#paint0_linear_16_1187)"/>
</mask>
<g mask="url(#mask0_16_1187)">
<path d="M1276.53 674.074C1290.24 656.424 1303.12 639.092 1315.06 622.165C1380.68 529.214 1416.87 451.547 1422.63 391.321C1428.51 329.702 1402.03 287.939 1343.91 267.193C1167.47 204.204 1044.09 183.221 962.442 169.334C925.695 163.084 896.671 158.148 876.021 151.472L875.602 152.642L876.021 151.472C841.668 140.365 771.969 156.608 694.125 193.863C610.352 233.956 535.596 289.154 489.022 345.302C424.785 422.748 337.04 492.15 274.742 536.734C202.174 588.667 120.976 637.565 57.5385 667.535C16.5853 686.883 -9.68337 719.544 -18.4257 761.992C-33.5629 835.491 5.6758 928.744 83.9793 1005.36C121.094 1041.68 159.472 1079.23 198.638 1112.73C241.939 1149.77 281.579 1177.71 319.825 1198.15C365.493 1222.55 410.419 1237.18 457.167 1242.89C509.365 1249.26 562.672 1244.45 620.135 1228.19C718.28 1200.42 910.477 1059.04 1087.52 884.371C1159.94 812.923 1224.35 741.202 1276.53 674.074ZM7.96268 709.206C20.6481 692.884 37.5777 679.573 58.3681 669.751C121.935 639.72 203.279 590.736 275.964 538.718C338.388 494.044 426.322 424.488 490.741 346.824C537.08 290.959 611.517 236.012 694.966 196.074C772.292 159.067 841.347 142.873 875.182 153.813C895.977 160.536 925.069 165.484 961.901 171.749C1043.47 185.622 1166.74 206.588 1343.01 269.513C1400.07 289.88 1426.07 330.841 1420.3 391.258C1414.59 451.017 1378.56 528.25 1313.22 620.811C1255.91 701.984 1177.34 792.528 1085.98 882.654C909.216 1057.04 717.465 1198.16 619.681 1225.84C562.518 1242.01 509.504 1246.79 457.607 1240.46C411.126 1234.78 366.445 1220.22 321.009 1195.95C235.77 1150.41 159.45 1075.74 85.6444 1003.52C7.89091 927.44 -31.1107 835.025 -16.1399 762.334C-12.0064 742.267 -3.86795 724.427 7.96268 709.206Z" fill="url(#paint1_linear_16_1187)"/>
</g>
<mask id="mask1_16_1187" style="mask-type:alpha" maskUnits="userSpaceOnUse" x="34" y="177" width="1337" height="1011">
<path d="M1238.13 658.422C1249.01 644.47 1259.3 630.746 1268.95 617.297C1329.81 532.471 1363.58 461.661 1369.33 406.83C1375.14 351.396 1351.81 313.776 1300 295.015C1143.99 237.112 1027.88 214.829 951.043 200.084C914.973 193.162 886.484 187.695 865.658 180.906C831.991 169.954 766.047 184.145 693.557 217.94C615.939 254.127 545.74 305.141 500.959 357.901C441.204 429.056 360.642 493.389 303.581 534.83C236.549 583.513 164.394 628.097 105.618 657.15C68.533 675.491 44.8001 705.832 36.984 744.891C23.4172 812.697 59.4055 898.132 130.904 967.855L130.903 967.855C198.294 1033.71 267.981 1101.81 347.866 1144.01C389.944 1166.24 431.37 1179.56 474.513 1184.74C522.64 1190.51 571.79 1186.09 624.768 1171.23C715.777 1146.03 893.994 1016.75 1058.16 856.845C1127.42 789.374 1188.86 721.592 1238.13 658.422ZM61.901 694.741C73.2361 680.208 88.184 668.229 106.431 659.204C165.322 630.094 237.603 585.434 304.742 536.674C361.915 495.152 442.646 430.679 502.561 359.333C547.114 306.843 617.009 256.062 694.32 220.018C766.324 186.449 831.668 172.301 864.853 183.096C885.797 189.923 914.342 195.402 950.481 202.337C1027.25 217.07 1143.27 239.334 1299.13 297.183C1349.95 315.585 1372.83 352.451 1367.14 406.76C1361.44 461.153 1327.82 531.559 1267.22 616.021C1213.97 690.245 1141.18 772.961 1056.72 855.23C892.825 1014.88 715.031 1143.92 624.36 1169.02C571.658 1183.8 522.781 1188.2 474.934 1182.46C432.04 1177.32 390.84 1164.07 348.982 1141.95C269.348 1099.88 199.766 1031.89 132.475 966.127L132.475 966.126C61.4866 896.899 25.7215 812.239 39.1384 745.186C42.9531 726.122 50.6453 709.172 61.901 694.741Z" fill="url(#paint2_linear_16_1187)"/>
</mask>
<g mask="url(#mask1_16_1187)">
<path d="M1237.75 659.917C1248.6 645.959 1258.86 632.226 1268.47 618.769C1329.13 533.892 1362.74 462.987 1368.38 408.024C1374.08 352.455 1350.7 314.663 1298.88 295.698C1142.87 237.175 1026.78 214.487 949.972 199.474C913.913 192.426 885.432 186.86 864.606 179.991C830.941 168.909 765.068 182.944 692.692 216.617C615.196 252.674 545.142 303.619 500.492 356.391C440.914 427.564 360.531 491.835 303.588 533.22C236.694 581.838 164.673 626.331 105.993 655.29C68.9682 673.571 45.3096 703.924 37.5742 743.068C24.1476 811.019 60.2773 896.794 131.863 966.92L131.862 966.919C199.336 1033.15 269.108 1101.65 349.022 1144.2C391.114 1166.62 432.539 1180.09 475.663 1185.41C523.77 1191.34 572.878 1187.06 625.792 1172.32C716.692 1147.32 894.541 1018.21 1058.28 858.349C1127.37 790.899 1188.64 723.113 1237.75 659.917ZM62.3777 692.854C73.677 678.315 88.5919 666.348 106.81 657.352C165.605 628.336 237.751 583.767 304.751 535.073C361.807 493.606 442.359 429.196 502.096 357.832C546.517 305.33 616.268 254.617 693.458 218.703C765.349 185.255 830.622 171.262 863.806 182.185C884.75 189.093 913.286 194.671 949.414 201.731C1026.16 216.732 1142.14 239.4 1298.01 297.869C1348.84 316.472 1371.78 353.506 1366.19 407.947C1360.6 462.473 1327.14 532.972 1266.75 617.486C1213.68 691.754 1141.09 774.482 1056.85 856.726C893.369 1016.33 715.943 1145.19 625.38 1170.1C572.742 1184.76 523.906 1189.03 476.08 1183.13C433.204 1177.84 392.007 1164.44 350.133 1142.14C270.471 1099.72 200.804 1031.33 133.43 965.191L133.43 965.19C62.3547 895.564 26.4495 810.566 39.7277 743.37C43.5031 724.265 51.1573 707.291 62.3777 692.854Z" fill="url(#paint3_linear_16_1187)"/>
</g>
<mask id="mask2_16_1187" style="mask-type:alpha" maskUnits="userSpaceOnUse" x="90" y="205" width="1226" height="925">
<path d="M1199.3 644.53C1207.36 634.196 1215.04 624.015 1222.34 613.989C1278.22 537.229 1309.4 473.167 1315.02 423.586C1320.62 374.186 1300.38 340.519 1254.85 323.521C1118.28 269.642 1013.51 246.645 937.01 229.855C902.293 222.234 874.873 216.215 854.148 209.324C820.656 198.229 760.058 209.913 692.049 240.58C620.707 272.75 555.222 319.51 512.383 368.871C412.552 486.48 243.421 598.287 154.093 644.747C120.932 662.015 99.811 690.052 93.0148 725.829C81.1873 788.094 114.082 866.073 178.861 929.335C236.991 986.363 302.88 1051 377.155 1090.09C415.656 1110.34 453.582 1122.52 493.1 1127.32C537.135 1132.66 582.081 1128.78 630.507 1115.45C672.534 1104.2 733.741 1070.23 807.504 1017.22C878.361 966.296 957.005 900.136 1028.95 830.926C1094.87 767.512 1153.15 703.703 1199.3 644.53ZM116.348 678.166C126.284 665.428 139.213 654.813 154.894 646.649C244.38 600.105 413.828 488.082 513.869 370.228C556.486 321.123 621.685 274.578 692.739 242.537C760.29 212.076 820.346 200.426 853.388 211.371C874.203 218.293 901.667 224.322 936.436 231.953C1012.87 248.731 1117.56 271.71 1254.01 325.538C1298.62 342.195 1318.46 375.154 1312.98 423.501C1307.41 472.675 1276.37 536.358 1220.74 612.781C1171.73 680.1 1104.95 755.01 1027.62 829.404C955.753 898.54 877.199 964.624 806.428 1015.48C732.882 1068.34 671.921 1102.19 630.137 1113.38C581.965 1126.64 537.272 1130.5 493.496 1125.19C454.209 1120.42 416.495 1108.31 378.196 1088.15C304.16 1049.2 238.374 984.658 180.332 927.718L180.331 927.717C116.023 864.915 83.3396 787.652 95.0347 726.082C98.4787 707.945 105.688 691.833 116.348 678.166Z" fill="url(#paint4_linear_16_1187)"/>
</mask>
<g mask="url(#mask2_16_1187)">
<path d="M1198.95 645.917C1206.99 635.578 1214.64 625.392 1221.92 615.36C1277.61 538.555 1308.65 474.411 1314.17 424.71C1319.67 375.192 1299.37 341.373 1253.85 324.193C1117.26 269.763 1012.51 246.393 936.033 229.329C901.324 221.585 873.91 215.469 853.186 208.497C819.695 197.272 759.16 208.81 691.256 239.359C620.023 271.406 554.673 318.1 511.958 367.469C412.421 485.103 243.619 596.716 154.441 643.038C121.335 660.255 100.283 688.307 93.5602 724.162C81.8611 786.562 114.885 864.851 179.743 928.478C237.945 985.835 303.916 1050.85 378.216 1090.26C416.73 1110.68 454.655 1123.01 494.156 1127.93C538.172 1133.42 583.08 1129.66 631.448 1116.44C673.426 1105.28 734.526 1071.4 808.137 1018.47C878.849 967.612 957.312 901.505 1029.07 832.318C1094.83 768.925 1152.94 705.115 1198.95 645.917ZM116.786 676.437C126.69 663.693 139.59 653.088 155.245 644.948C244.582 598.542 413.699 486.714 513.445 368.833C555.939 319.721 621.005 273.241 691.949 241.323C759.396 210.979 819.389 199.475 852.43 210.548C873.245 217.55 900.702 223.677 935.463 231.432C1011.88 248.483 1116.54 271.834 1253.01 326.213C1297.62 343.049 1317.51 376.156 1312.13 424.619C1306.65 473.911 1275.76 537.676 1220.31 614.145C1171.47 681.502 1104.88 756.419 1027.74 830.787C956.058 899.9 877.684 965.932 807.059 1016.72C733.664 1069.5 672.81 1103.27 631.075 1114.36C582.96 1127.51 538.304 1131.25 494.548 1125.8C455.278 1120.9 417.565 1108.64 379.253 1088.32C305.191 1049.04 239.324 984.129 181.21 926.861L181.209 926.86C116.822 863.696 84.0112 786.125 95.5794 724.421C98.986 706.245 106.16 690.11 116.786 676.437Z" fill="url(#paint5_linear_16_1187)"/>
</g>
<mask id="mask3_16_1187" style="mask-type:alpha" maskUnits="userSpaceOnUse" x="147" y="233" width="1115" height="840">
<path d="M1160.44 630.846C1165.75 624.045 1170.86 617.323 1175.79 610.672C1226.69 541.975 1255.28 484.666 1260.77 440.334C1266.14 396.968 1248.96 367.257 1209.71 352.027C1091.32 301.629 992.653 276.995 920.606 259.009C889.561 251.258 862.75 244.564 842.638 237.744C809.811 226.668 752.952 236.192 690.54 263.222C625.458 291.408 564.686 333.915 523.807 379.843C483.941 426.21 427.736 477.282 361.257 527.553C307.896 567.904 250.057 606.1 202.567 632.346C173.314 648.539 154.8 674.285 149.032 706.798C138.968 763.517 168.772 834.027 226.815 890.811C287.539 950.666 342.97 1002.92 406.441 1036.16C441.364 1054.45 475.79 1065.48 511.684 1069.9C551.625 1074.81 592.369 1071.47 636.242 1059.67C674.871 1049.74 730.869 1019.39 798.171 971.887C862.555 926.446 934.155 867.178 999.78 805.001C1062.36 745.711 1117.46 685.947 1160.44 630.846ZM170.795 661.511C179.317 650.584 190.233 641.359 203.359 634.092C250.932 607.8 308.864 569.544 362.301 529.137C428.901 478.774 485.223 427.592 525.177 381.122C565.843 335.434 626.344 293.125 691.155 265.057C753.146 238.209 809.506 228.71 841.921 239.647C862.099 246.489 888.943 253.191 920.024 260.951C992.015 278.924 1090.61 303.539 1208.9 353.894C1247.31 368.801 1264.11 397.846 1258.87 440.233C1253.42 484.187 1224.97 541.147 1174.31 609.532C1129.53 669.951 1068.77 737.051 998.556 803.573C933.004 865.681 861.489 924.879 797.185 970.262C730.088 1017.62 674.321 1047.86 635.914 1057.73C592.27 1069.47 551.761 1072.8 512.057 1067.92C476.376 1063.53 442.145 1052.55 407.407 1034.36C344.146 1001.23 288.814 949.069 228.186 889.309L228.184 889.308C170.572 832.944 140.965 763.091 150.917 707.009C153.979 689.754 160.709 674.442 170.795 661.511Z" fill="url(#paint6_linear_16_1187)"/>
</mask>
<g mask="url(#mask3_16_1187)">
<path d="M1160.12 632.125C1165.41 625.321 1170.5 618.596 1175.41 611.941C1226.15 543.208 1254.61 485.826 1260.01 441.39C1265.29 397.921 1248.07 368.077 1208.81 352.69C1090.41 301.803 991.756 276.809 919.723 258.559C888.684 250.696 861.877 243.904 841.765 237.006C808.939 225.802 752.136 235.183 689.819 262.103C624.835 290.172 564.186 332.615 523.423 378.548C483.674 424.924 427.605 475.969 361.268 526.18C308.021 566.484 250.295 604.612 202.887 630.789C173.686 646.94 155.234 672.702 149.533 705.286C139.585 762.13 169.506 832.922 227.62 890.034C288.419 950.232 343.915 1002.79 407.407 1036.31C442.343 1054.75 476.767 1065.92 512.645 1070.46C552.569 1075.5 593.28 1072.27 637.1 1060.56C675.685 1050.73 731.586 1020.45 798.751 973.025C863.004 927.651 934.441 868.433 999.902 806.281C1062.32 747.014 1117.28 687.25 1160.12 632.125ZM171.193 659.94C179.689 649.008 190.579 639.79 203.682 632.542C251.172 606.32 308.991 568.131 362.314 527.771C428.773 477.468 484.957 426.313 524.795 379.834C565.345 334.142 625.723 291.896 690.437 263.944C752.334 237.206 808.639 227.849 841.052 238.912C861.23 245.832 888.07 252.632 919.145 260.505C991.122 278.741 1089.7 303.716 1208 354.559C1246.42 369.621 1263.27 398.795 1258.11 441.282C1252.75 485.34 1224.43 542.372 1173.93 610.794C1129.31 671.246 1068.71 738.349 998.676 804.844C933.288 866.928 861.936 926.076 797.763 971.392C730.803 1018.68 675.131 1048.84 636.769 1058.62C593.177 1070.27 552.701 1073.49 513.014 1068.47C477.348 1063.96 443.119 1052.85 408.369 1034.51C345.086 1001.1 289.69 948.634 228.988 888.532L228.985 888.53C171.302 831.841 141.58 761.709 151.416 705.503C154.443 688.21 161.139 672.876 171.193 659.94Z" fill="url(#paint7_linear_16_1187)"/>
</g>
<mask id="mask4_16_1187" style="mask-type:alpha" maskUnits="userSpaceOnUse" x="203" y="260" width="1005" height="755">
<path d="M1121.54 617.432C1124.18 614.048 1126.77 610.686 1129.3 607.345C1175.22 546.712 1201.22 496.153 1206.58 457.072C1211.7 419.735 1197.57 393.981 1164.57 380.529C1062.89 332.78 968.967 306.256 900.383 286.888C873.186 279.208 849.699 272.575 831.125 266.154C798.46 254.928 746.667 262.109 689.027 285.856C630.18 310.1 574.121 348.354 535.224 390.81C460.24 476.674 335.346 569.772 251.03 619.943C225.666 635.071 209.758 658.541 205.026 687.814C196.753 738.978 223.474 802.003 274.76 852.29L274.757 852.287C326.404 903.492 377.577 951.961 435.72 982.229C467.067 998.547 497.991 1008.44 530.262 1012.48C566.11 1016.97 602.651 1014.15 641.972 1003.88C677.215 995.28 728.013 968.541 788.861 926.556C846.784 886.588 911.349 834.211 970.661 779.072C1029.9 724.002 1081.82 668.356 1121.54 617.432ZM225.232 644.738C232.324 635.645 241.228 627.845 251.817 621.53C336.264 571.281 461.365 478.024 536.478 392.009C575.168 349.781 630.971 311.707 689.565 287.567C746.813 263.982 798.165 256.819 830.45 267.915C849.067 274.349 872.574 280.987 899.795 288.674C968.324 308.027 1062.18 334.531 1163.77 382.24C1196.02 395.389 1209.82 420.521 1204.83 456.954C1199.51 495.686 1173.65 545.924 1127.94 606.273C1087.39 659.782 1032.63 719.086 969.54 777.737C910.296 832.812 845.812 885.124 787.965 925.039C727.307 966.893 676.724 993.536 641.685 1002.09C602.569 1012.31 566.241 1015.11 530.611 1010.65C498.535 1006.63 467.788 996.793 436.612 980.563C378.666 950.398 327.591 902.018 276.035 850.902L276.032 850.899C225.135 800.993 198.598 738.566 206.778 687.98C209.434 671.541 215.692 656.969 225.232 644.738Z" fill="url(#paint8_linear_16_1187)"/>
</mask>
<g mask="url(#mask4_16_1187)">
<path d="M1121.25 618.606C1123.88 615.22 1126.46 611.857 1128.98 608.514C1174.75 547.851 1200.64 497.231 1205.92 458.059C1210.96 420.635 1196.79 394.769 1163.78 381.182C1062.09 333 968.169 306.125 899.594 286.5C872.401 278.718 848.917 271.998 830.342 265.504C797.677 254.15 745.933 261.198 688.378 284.837C629.617 308.973 573.67 347.166 534.882 389.622C460.115 475.499 335.485 568.481 251.323 618.538C226.006 633.633 210.154 657.119 205.482 686.459C197.314 737.738 224.139 801.014 275.488 851.592L275.486 851.588C327.197 903.087 378.43 951.841 436.592 982.364C467.95 998.82 498.873 1008.83 531.13 1012.98C566.962 1017.58 603.473 1014.87 642.748 1004.69C677.951 996.168 728.663 969.506 789.388 927.587C847.195 887.682 911.614 835.353 970.78 780.24C1029.87 725.195 1081.65 669.551 1121.25 618.606ZM225.59 643.325C232.66 634.228 241.543 626.433 252.113 620.132C336.405 569.997 461.242 476.855 536.137 390.829C574.719 348.6 630.411 310.587 688.919 286.555C746.083 263.075 797.386 256.045 829.672 267.267C848.288 273.774 871.792 280.501 899.01 288.29C967.531 307.899 1061.37 334.754 1162.99 382.896C1195.25 396.176 1209.08 421.417 1204.16 457.935C1198.93 496.758 1173.18 547.057 1127.62 607.435C1087.2 660.97 1032.59 720.274 969.657 778.898C910.56 833.947 846.22 886.211 788.489 926.064C727.954 967.852 677.457 994.417 642.458 1002.89C603.388 1013.02 567.089 1015.72 531.474 1011.14C499.413 1007.02 468.667 997.063 437.481 980.696C379.515 950.276 328.38 901.612 276.759 850.203L276.757 850.2C225.797 800.006 199.157 737.33 207.233 686.63C209.855 670.154 216.081 655.561 225.59 643.325Z" fill="url(#paint9_linear_16_1187)"/>
</g>
<mask id="mask5_16_1187" style="mask-type:alpha" maskUnits="userSpaceOnUse" x="259" y="288" width="895" height="670">
<path d="M1082.61 604.392C1082.71 604.267 1082.8 604.143 1082.9 604.017C1123.85 551.448 1147.27 507.639 1152.5 473.809C1157.34 442.491 1146.22 420.695 1119.43 409.029C1032.93 362.67 941.129 333.594 874.098 312.365C853.108 305.718 834.98 299.977 819.609 294.563C787.563 283.344 739.416 288.42 687.514 308.487C634.866 328.842 583.519 362.844 546.639 401.774C513.866 438.585 470.898 478.446 418.911 520.271C379.804 551.734 336.276 583.543 299.487 607.544C277.988 621.615 264.679 642.832 260.998 668.904C254.559 714.497 278.203 770.006 322.703 813.768C365.742 856.757 412.185 901.015 464.996 928.302C492.765 942.65 520.189 951.404 548.837 955.064C580.591 959.12 612.928 956.841 647.699 948.097C710.857 933.674 828.976 855.327 941.607 753.144C997.51 702.426 1046.26 650.997 1082.61 604.392ZM279.662 627.796C285.298 620.569 292.194 614.251 300.273 608.963C337.108 584.932 380.69 553.084 419.843 521.584C471.91 479.695 514.953 439.763 547.775 402.896C584.455 364.178 635.563 330.338 687.973 310.075C739.523 290.144 787.274 285.078 818.981 296.179C834.373 301.6 852.511 307.344 873.513 313.996C940.49 335.208 1032.22 364.258 1118.65 410.58C1144.77 421.961 1155.61 443.178 1150.89 473.669C1145.7 507.181 1122.41 550.698 1081.67 603.01C1081.57 603.132 1081.47 603.261 1081.37 603.383C1045.09 649.907 996.421 701.249 940.592 751.9C828.17 853.893 710.367 932.074 647.453 946.439C612.864 955.138 580.719 957.405 549.161 953.373C520.69 949.737 493.425 941.033 465.812 926.764C413.187 899.573 366.838 855.402 323.877 812.491L323.873 812.487C279.722 769.067 256.248 714.092 262.614 669.018C264.831 653.3 270.626 639.382 279.662 627.796Z" fill="url(#paint10_linear_16_1187)"/>
</mask>
<g mask="url(#mask5_16_1187)">
<path d="M1082.34 605.46C1082.44 605.335 1082.53 605.212 1082.63 605.086C1123.45 552.494 1146.76 508.635 1151.93 474.729C1156.71 443.339 1145.55 421.45 1118.75 409.673C1032.23 362.929 940.429 333.501 873.403 312.015C852.414 305.287 834.287 299.476 818.916 294.002C786.87 282.656 738.765 287.603 686.937 307.571C634.365 327.825 583.118 361.767 546.339 400.694C513.66 437.508 470.798 477.35 418.928 519.135C379.908 550.567 336.471 582.334 299.753 606.291C278.297 620.337 265.038 641.572 261.41 667.704C255.064 713.403 278.8 769.134 323.355 813.148C366.448 856.383 412.946 900.9 465.774 928.419C493.552 942.889 520.975 951.748 549.611 955.503C581.351 959.665 613.662 957.476 648.392 948.811C711.48 934.537 829.367 856.327 941.723 754.2C997.489 703.509 1046.1 652.085 1082.34 605.46ZM279.982 626.539C285.6 619.31 292.479 612.995 300.541 607.716C337.306 583.729 380.796 551.923 419.861 520.455C471.812 478.605 514.748 438.692 547.477 401.822C584.056 363.107 635.063 329.327 687.399 309.164C738.875 289.332 786.584 284.395 818.292 295.62C833.683 301.102 851.821 306.916 872.822 313.648C939.794 335.117 1031.51 364.52 1117.98 411.226C1144.11 422.716 1154.97 444.023 1150.32 474.583C1145.2 508.172 1122.01 551.738 1081.39 604.072C1081.3 604.194 1081.2 604.323 1081.1 604.445C1044.93 650.989 996.399 702.326 940.706 752.949C828.558 854.887 710.987 932.931 648.144 947.149C613.595 955.769 581.475 957.946 549.932 953.809C521.472 950.078 494.209 941.269 466.587 926.879C413.945 899.457 367.541 855.028 324.526 811.872L324.522 811.867C280.316 768.197 256.751 713.002 263.025 667.824C265.21 652.069 270.974 638.13 279.982 626.539Z" fill="url(#paint11_linear_16_1187)"/>
</g>
<mask id="mask6_16_1187" style="mask-type:alpha" maskUnits="userSpaceOnUse" x="316" y="316" width="784" height="584">
<path d="M1043.79 591.683C1075.39 551.173 1093.8 517.192 1098.57 490.564C1103.11 465.252 1094.95 447.416 1074.32 437.547C1001.86 390.619 907.328 357.657 838.3 333.589C827.469 329.813 817.236 326.245 808.087 322.962C776.15 311.573 732.789 314.467 685.992 331.11C638.806 347.891 593.366 376.879 558.043 412.732C534.657 438.359 467.416 507.386 347.927 595.144C330.258 608.179 319.54 627.185 316.935 650.112C312.389 690.101 332.965 738.047 370.629 775.24C405.559 810.468 446.8 850.09 494.262 874.374C544.418 900.04 596.477 905.907 653.415 892.313C681.929 886.357 722.37 866.85 770.347 835.905C816.044 806.431 865.248 768.852 912.638 727.231C961.575 684.25 1004.45 640.5 1036.62 600.708C1039.08 597.666 1041.48 594.656 1043.79 591.683ZM334.076 610.593C338.215 605.286 343.11 600.528 348.723 596.388C367.837 582.35 406.235 553.47 448.604 517.8C493.081 480.358 530.245 445.36 559.064 413.776C594.192 378.121 639.412 349.275 686.373 332.573C732.853 316.043 775.872 313.153 807.506 324.434C816.66 327.719 826.894 331.286 837.729 335.065C906.705 359.114 1001.17 392.051 1073.5 438.906L1073.58 438.948C1093.59 448.509 1101.51 465.819 1097.11 490.398C1092.11 518.293 1070.81 556.109 1035.52 599.765C1003.4 639.482 960.597 683.16 911.73 726.076C864.401 767.644 815.265 805.171 769.636 834.602C721.823 865.441 681.564 884.873 653.213 890.795C596.6 904.311 544.856 898.479 495.002 872.969C447.715 848.774 406.566 809.239 371.707 774.082L371.702 774.077C334.34 737.184 313.921 689.707 318.415 650.173C320.139 635.021 325.474 621.621 334.076 610.593Z" fill="url(#paint12_linear_16_1187)"/>
</mask>
<g mask="url(#mask6_16_1187)">
<path d="M1043.55 592.649C1075.05 552.123 1093.38 518.103 1098.1 491.417C1102.58 466.049 1094.39 448.14 1073.76 438.182C1001.26 390.91 906.724 357.576 837.697 333.236C826.866 329.417 816.633 325.809 807.483 322.49C775.546 310.974 732.221 313.747 685.488 330.295C638.367 346.982 593.014 375.913 557.785 411.759C534.465 437.387 467.405 506.402 348.168 594.043C330.537 607.06 319.863 626.086 317.304 649.069C312.84 689.153 333.494 737.292 371.205 774.698C406.18 810.128 447.471 849.98 494.947 874.473C545.119 900.358 597.155 906.397 654.027 892.936C682.51 887.048 722.885 867.609 770.769 836.722C816.377 807.304 865.474 769.77 912.751 728.176C961.571 685.224 1004.33 641.482 1036.41 601.677C1038.86 598.635 1041.24 595.623 1043.55 592.649ZM334.357 609.493C338.482 604.184 343.365 599.428 348.966 595.292C368.04 581.273 406.354 552.429 448.625 516.788C492.999 479.377 530.07 444.393 558.807 412.809C593.842 377.161 638.975 348.371 685.871 331.764C732.287 315.328 775.272 312.558 806.906 323.964C816.06 327.285 826.294 330.893 837.129 334.714C906.105 359.035 1000.57 392.344 1072.94 439.543L1073.02 439.585C1093.04 449.232 1100.98 466.613 1096.63 491.246C1091.69 519.202 1070.49 557.058 1035.3 600.728C1003.28 640.458 960.592 684.127 911.842 727.016C864.626 768.556 815.597 806.038 770.057 835.414C722.336 866.195 682.142 885.56 653.822 891.413C597.274 904.798 545.554 898.795 495.684 873.067C448.383 848.664 407.184 808.899 372.281 773.541L372.276 773.536C334.867 736.431 314.369 688.763 318.784 649.134C320.476 633.946 325.782 620.525 334.357 609.493Z" fill="url(#paint13_linear_16_1187)"/>
</g>
<mask id="mask7_16_1187" style="mask-type:alpha" maskUnits="userSpaceOnUse" x="372" y="343" width="675" height="499">
<path d="M1004.39 580.495C1026.83 551.726 1040.73 526.702 1044.9 507.399C1049.08 488.021 1043.8 474.114 1029.21 466.063C971.011 415.103 848.768 370.433 796.56 351.356C731.275 327.634 637.88 357.379 569.44 423.687C517.702 478.577 449.35 537.251 408.512 572.306C404.176 576.029 400.108 579.521 396.355 582.754C382.462 594.786 374.334 611.657 372.845 631.538C370.273 665.859 387.788 706.163 418.551 736.719C449.413 768.261 483.492 800.238 523.518 820.449C566.233 842.018 610.59 847.279 659.122 836.531C708.605 827.422 796.797 774.369 883.779 701.376C925.602 666.279 962.513 630.352 990.519 597.48C995.45 591.691 1000.08 586.021 1004.39 580.495ZM388.456 592.966C391.034 589.66 393.94 586.599 397.166 583.806C400.916 580.574 404.983 577.084 409.319 573.362C450.18 538.285 518.571 479.579 570.341 424.654C638.381 358.735 731.197 329.13 796.027 352.686C848.187 371.744 970.336 416.378 1028.34 467.21L1028.39 467.252L1028.45 467.285C1042.54 475.028 1047.63 488.455 1043.58 507.193C1038.66 529.955 1019.98 560.872 989.542 596.594C961.591 629.401 924.744 665.266 882.984 700.309C796.182 773.151 708.251 826.08 658.966 835.151C551.185 859.02 481.584 799.097 419.53 735.674L419.524 735.667C389.018 705.369 371.646 665.468 374.188 631.534C375.301 616.694 380.184 603.573 388.456 592.966Z" fill="url(#paint14_linear_16_1187)"/>
</mask>
<g mask="url(#mask7_16_1187)">
<path d="M1004.18 581.362C1026.55 552.581 1040.39 527.53 1044.52 508.187C1048.66 488.768 1043.36 474.808 1028.76 466.691C970.502 415.417 848.256 370.259 796.047 350.973C730.76 326.991 637.488 356.537 569.225 422.821C517.63 477.706 449.44 536.335 408.699 571.365C404.373 575.084 400.314 578.573 396.571 581.804C382.711 593.827 374.621 610.72 373.172 630.651C370.67 665.058 388.252 705.525 419.052 736.256C449.955 767.977 484.073 800.144 524.111 820.53C566.839 842.286 611.175 847.694 659.653 837.062C709.084 828.077 797.111 775.143 883.89 702.211C925.616 667.144 962.431 631.229 990.353 598.352C995.27 592.561 999.884 586.889 1004.18 581.362ZM388.697 592.021C391.267 588.713 394.165 585.653 397.383 582.861C401.125 579.632 405.181 576.145 409.508 572.425C450.272 537.375 518.5 478.713 570.127 423.794C637.991 357.898 730.685 328.491 795.517 352.305C847.677 371.572 969.83 416.694 1027.9 467.838L1027.95 467.881L1028 467.914C1042.1 475.721 1047.21 489.2 1043.2 507.977C1038.33 530.786 1019.72 561.731 989.375 597.46C961.508 630.273 924.756 666.125 883.094 701.139C796.495 773.919 708.727 826.729 659.495 835.678C551.834 859.289 482.164 798.994 420.029 735.212L420.022 735.205C389.479 704.733 372.041 664.67 374.515 630.651C375.598 615.774 380.451 602.632 388.697 592.021Z" fill="url(#paint15_linear_16_1187)"/>
</g>
<mask id="mask8_16_1187" style="mask-type:alpha" maskUnits="userSpaceOnUse" x="428" y="370" width="566" height="415">
<path d="M965.267 570.379C978.986 552.788 988.098 537.142 991.641 524.505C995.456 510.897 992.925 500.843 984.117 494.622C972.245 475.666 943.647 454.046 899.114 430.358C866.674 413.101 825.09 394.656 785.026 379.753C720.697 355.937 644.36 376.458 580.824 434.646C559.754 456.021 537.395 477.919 515.77 499.096C487.804 526.484 461.39 552.353 444.765 570.381C430.824 585.6 425.743 607.589 430.445 632.287C434.902 655.698 448.028 679.72 466.461 698.197C507.934 741.408 534.369 757.412 552.766 766.527C588.019 783.992 624.671 788.645 664.818 780.751C707.703 774.261 780.589 734.013 855.005 675.721C902.542 638.485 941.068 601.408 965.267 570.379ZM442.75 574.589C443.655 573.428 444.606 572.305 445.604 571.213C462.203 553.212 488.606 527.356 516.558 499.981C538.187 478.799 560.551 456.897 581.604 435.537C644.759 377.7 720.633 357.282 784.542 380.942C824.562 395.828 866.098 414.252 898.498 431.487C942.935 455.125 971.415 476.648 983.148 495.46L983.208 495.556L983.298 495.619C991.735 501.524 994.153 511.155 990.483 524.243C980.767 558.896 928.597 616.562 854.33 674.739C780.08 732.901 707.423 773.049 664.713 779.514C624.797 787.363 588.379 782.739 553.352 765.385C518.479 748.108 489.069 719.909 467.343 697.273L467.336 697.265C449.058 678.945 436.043 655.139 431.628 631.951C427.347 609.454 431.297 589.277 442.75 574.589Z" fill="url(#paint16_linear_16_1187)"/>
</mask>
<g mask="url(#mask8_16_1187)">
<path d="M965.092 571.15C978.767 553.552 987.842 537.891 991.357 525.23C995.143 511.596 992.593 501.507 983.78 495.243C971.879 476.2 943.259 454.434 898.71 430.547C866.259 413.145 824.668 394.524 784.603 379.46C720.272 355.385 644.029 375.732 580.653 433.887C559.639 455.257 537.339 477.147 515.771 498.317C487.879 525.695 461.534 551.555 444.956 569.583C431.055 584.801 426.02 606.834 430.768 631.614C435.268 655.102 448.432 679.23 466.888 697.813C508.417 741.266 534.866 757.394 553.267 766.589C588.53 784.208 625.165 788.985 665.269 781.191C708.111 774.811 780.866 734.674 855.114 676.447C902.545 639.253 940.971 602.191 965.092 571.15ZM442.951 573.796C443.853 572.635 444.801 571.511 445.796 570.419C462.348 552.419 488.681 526.572 516.56 499.207C538.132 478.032 560.437 456.137 581.434 434.783C644.43 376.978 720.211 356.733 784.122 380.65C824.143 395.698 865.685 414.297 898.097 431.677C942.549 455.513 971.051 477.181 982.813 496.08L982.873 496.176L982.964 496.241C991.406 502.186 993.842 511.851 990.2 524.964C980.559 559.682 928.538 617.349 854.438 675.46C780.355 733.557 707.828 773.596 665.16 779.95C625.288 787.699 588.887 782.953 553.851 765.447C518.968 748.016 489.524 719.652 467.768 696.889L467.761 696.881C449.459 678.455 436.407 654.545 431.95 631.281C427.627 608.709 431.535 588.489 442.951 573.796Z" fill="url(#paint17_linear_16_1187)"/>
</g>
<mask id="mask9_16_1187" style="mask-type:alpha" maskUnits="userSpaceOnUse" x="484" y="396" width="458" height="332">
<path d="M926.594 562.457C932.269 555.179 936.465 548.548 938.955 542.779C942.598 534.341 942.632 527.798 939.056 523.326C940.184 502.679 908.447 478.192 881.571 461.259C851.266 442.166 810.858 422.318 773.476 408.166C741.288 396.023 711.164 393.019 681.384 398.983C650.97 405.073 621.793 420.329 592.185 445.622C549.771 485.913 510.905 530.037 493.153 558.055C484.561 571.742 482.342 590.079 486.902 609.69C491.167 628.036 501.173 646.264 514.354 659.697C548.35 696.21 596.821 736.628 670.496 724.994C706.508 721.169 764.548 693.478 825.728 650.926C870.434 619.83 907.165 587.371 926.594 562.457ZM510.677 535.344C531.047 509.222 560.941 476.741 592.844 446.435C622.272 421.296 651.281 406.123 681.503 400.072C711.091 394.147 741.034 397.137 773.044 409.212C842.914 435.665 940.278 488.628 937.979 523.554L937.965 523.772L938.096 523.929C941.526 528.072 941.49 534.283 937.989 542.392C927.057 567.715 882.779 609.96 825.184 650.017C764.154 692.466 706.307 720.082 670.443 723.892C597.199 735.458 548.974 695.227 515.141 658.887L515.132 658.878C502.073 645.57 492.16 627.517 487.936 609.349C483.447 590.04 485.611 572.021 494.027 558.61C498.387 551.732 504.024 543.876 510.677 535.344Z" fill="url(#paint18_linear_16_1187)"/>
</mask>
<g mask="url(#mask9_16_1187)">
<path d="M926.457 563.139C932.113 555.858 936.293 549.223 938.77 543.445C942.394 534.996 942.415 528.435 938.833 523.94C939.919 503.239 908.156 478.59 881.266 461.529C850.946 442.292 810.527 422.267 773.144 407.962C740.955 395.688 710.847 392.584 681.1 398.473C650.721 404.488 621.595 419.697 592.059 444.968C549.755 485.24 511.005 529.366 493.321 557.406C484.763 571.105 482.581 589.485 487.177 609.163C491.475 627.572 501.51 645.88 514.708 659.39C548.753 696.106 597.268 736.781 670.867 725.34C706.845 721.614 764.789 694.025 825.84 651.543C870.452 620.498 907.091 588.062 926.457 563.139ZM510.788 534.687C531.091 508.555 560.898 476.077 592.718 445.786C622.076 420.667 651.034 405.542 681.221 399.565C710.776 393.715 740.704 396.804 772.714 409.009C842.586 435.747 939.986 489.151 937.757 524.165L937.744 524.383L937.875 524.541C941.31 528.706 941.286 534.934 937.804 543.055C926.93 568.413 882.769 610.638 825.294 650.629C764.393 693.008 706.642 720.524 670.811 724.235C597.644 735.609 549.373 695.122 515.493 658.58L515.484 658.571C502.408 645.187 492.467 627.055 488.21 608.824C483.686 589.448 485.812 571.387 494.196 557.966C498.539 551.082 504.157 543.222 510.788 534.687Z" fill="url(#paint19_linear_16_1187)"/>
</g>
<mask id="mask10_16_1187" style="mask-type:alpha" maskUnits="userSpaceOnUse" x="539" y="421" width="361" height="249">
<path d="M889.039 560.63C891.486 557.493 893.033 554.751 893.561 552.504C898.327 547.824 900.295 542.25 899.414 535.94C896.839 517.48 870.836 496.545 849.476 482.234C824.059 465.204 791.272 448.252 761.772 436.885C728.387 424.048 703.082 419.431 679.72 421.918C654.797 424.571 630.57 435.671 603.472 456.854C573.86 482.132 549.556 517.094 541.533 545.942C534.431 571.87 546.477 604.619 562.226 621.306C593.756 657.089 632.064 673.249 676.082 669.334C693.379 668.646 715.05 663.275 740.468 653.373C762.476 644.799 786.67 633.009 810.434 619.276C847.638 597.774 877.806 575.034 889.039 560.63ZM892.73 552.049L892.696 552.207C892.229 554.378 890.734 557.047 888.35 560.104C863.629 591.812 743.072 665.708 676.098 668.374C632.34 672.266 594.27 656.199 562.922 620.621L562.913 620.61C547.333 604.106 535.406 571.737 542.419 546.139C550.388 517.485 574.561 482.726 604.005 457.593C630.932 436.544 655.004 425.507 679.741 422.874C702.958 420.404 728.14 425.003 761.393 437.79C790.839 449.136 823.566 466.057 848.934 483.054C870.151 497.268 895.972 518.019 898.501 536.151C899.341 542.169 897.437 547.482 892.847 551.937L892.73 552.049Z" fill="url(#paint20_linear_16_1187)"/>
</mask>
<g mask="url(#mask10_16_1187)">
<path d="M888.965 561.22C891.403 558.082 892.945 555.338 893.467 553.086C898.221 548.408 900.176 542.824 899.284 536.495C896.674 517.976 870.648 496.905 849.275 482.491C823.843 465.337 791.045 448.24 761.544 436.753C728.157 423.78 702.861 419.074 679.521 421.496C654.621 424.081 630.433 435.138 603.396 456.297C573.855 481.554 549.637 516.537 541.677 545.44C534.631 571.417 546.733 604.292 562.504 621.073C594.083 657.049 632.395 673.368 676.374 669.576C693.657 668.938 715.302 663.618 740.683 653.767C762.658 645.236 786.811 633.487 810.532 619.789C847.666 598.341 877.768 575.629 888.965 561.22ZM892.636 552.628L892.603 552.786C892.14 554.961 890.652 557.633 888.275 560.691C863.634 592.411 743.31 666.143 676.388 668.614C632.669 672.383 594.594 656.157 563.199 620.387L563.189 620.376C547.588 603.78 535.606 571.286 542.563 545.64C550.47 516.932 574.557 482.152 603.931 457.039C630.797 436.014 654.829 425.02 679.544 422.455C702.739 420.048 727.913 424.737 761.167 437.659C790.614 449.125 823.351 466.191 848.736 483.311C869.965 497.628 895.809 518.514 898.372 536.704C899.223 542.74 897.33 548.063 892.752 552.516L892.636 552.628Z" fill="url(#paint21_linear_16_1187)"/>
</g>
<mask id="mask11_16_1187" style="mask-type:alpha" maskUnits="userSpaceOnUse" x="588" y="445" width="280" height="170">
<path d="M863.682 571.081C866.132 567.938 867.483 564.439 867.719 560.598C868.312 550.965 862.035 534.256 828.763 509.356C806.46 492.665 777.09 476.408 750.199 465.869C718.42 453.415 697.714 445.803 678.162 445.126C657.935 444.425 639.584 451.164 614.822 468.387C601.172 477.878 592.769 490.58 589.841 506.134C583.513 539.768 604.571 576.103 610.122 583.296C620.492 596.729 636.478 605.952 657.636 610.708C675.848 614.801 697.932 615.616 723.274 613.131C769.081 608.638 817.775 593.95 848.073 581.702C855.204 578.82 860.418 575.266 863.682 571.081ZM601.465 481.91C605.196 477.124 609.785 472.831 615.218 469.053C639.821 451.942 658.031 445.245 678.073 445.94C697.51 446.614 718.165 454.208 749.874 466.636C798.902 485.851 868.801 530.372 866.939 560.612C866.411 569.195 859.986 576.038 847.84 580.947C817.595 593.174 768.985 607.836 723.261 612.321C697.998 614.799 675.993 613.989 657.857 609.912C636.864 605.193 621.013 596.057 610.746 582.757C605.236 575.619 584.335 539.566 590.607 506.229C592.324 497.102 595.96 488.969 601.465 481.91Z" fill="url(#paint22_linear_16_1187)"/>
</mask>
<g mask="url(#mask11_16_1187)">
<path d="M863.674 571.635C866.116 568.491 867.459 564.987 867.688 561.136C868.261 551.479 861.955 534.705 828.658 509.635C806.338 492.831 776.957 476.44 750.065 465.79C718.285 453.204 697.578 445.509 678.039 444.769C657.826 444.004 639.502 450.706 614.792 467.899C601.172 477.375 592.8 490.086 589.905 505.673C583.649 539.379 604.764 575.878 610.325 583.107C620.715 596.609 636.707 605.906 657.859 610.739C676.065 614.899 698.135 615.784 723.453 613.369C769.218 609.005 817.847 594.426 848.098 582.237C855.217 579.369 860.421 575.822 863.674 571.635ZM601.472 481.418C605.191 476.631 609.768 472.341 615.19 468.569C639.741 451.487 657.924 444.828 677.952 445.586C697.376 446.321 718.031 453.998 749.742 466.557C798.772 485.975 868.708 530.831 866.908 561.147C866.397 569.752 859.991 576.595 847.863 581.48C817.665 593.647 769.121 608.201 723.439 612.557C698.199 614.965 676.209 614.085 658.078 609.942C637.091 605.146 621.234 595.937 610.948 582.568C605.427 575.394 584.47 539.179 590.671 505.771C592.369 496.624 595.986 488.48 601.472 481.418Z" fill="url(#paint23_linear_16_1187)"/>
</g>
<defs>
<linearGradient id="paint0_linear_16_1187" x1="629.523" y1="203.863" x2="894.536" y2="1149.84" gradientUnits="userSpaceOnUse">
<stop stop-color="white"/>
<stop offset="0.0436" stop-color="#B4B4B4"/>
<stop offset="0.1507"/>
<stop offset="0.1714" stop-color="#171717"/>
<stop offset="0.3859" stop-color="white"/>
<stop offset="0.6326" stop-color="#E6E6E6"/>
<stop offset="0.8567" stop-color="#1A1A1A"/>
<stop offset="0.9987"/>
</linearGradient>
<linearGradient id="paint1_linear_16_1187" x1="628.646" y1="202.268" x2="893.02" y2="1152.25" gradientUnits="userSpaceOnUse">
<stop stop-color="#1E1F20"/>
<stop offset="1" stop-color="#1E1F20" stop-opacity="0"/>
</linearGradient>
<linearGradient id="paint2_linear_16_1187" x1="635.304" y1="226.488" x2="879.951" y2="1099.74" gradientUnits="userSpaceOnUse">
<stop stop-color="white"/>
<stop offset="0.0436" stop-color="#B4B4B4"/>
<stop offset="0.1507"/>
<stop offset="0.1714" stop-color="#171717"/>
<stop offset="0.3859" stop-color="white"/>
<stop offset="0.6326" stop-color="#E6E6E6"/>
<stop offset="0.8567" stop-color="#1A1A1A"/>
<stop offset="0.9987"/>
</linearGradient>
<linearGradient id="paint3_linear_16_1187" x1="634.493" y1="225.018" x2="878.549" y2="1101.98" gradientUnits="userSpaceOnUse">
<stop stop-color="#1E1F20"/>
<stop offset="1" stop-color="#1E1F20" stop-opacity="0"/>
</linearGradient>
<linearGradient id="paint4_linear_16_1187" x1="641.046" y1="248.814" x2="865.413" y2="1049.65" gradientUnits="userSpaceOnUse">
<stop stop-color="white"/>
<stop offset="0.0436" stop-color="#B4B4B4"/>
<stop offset="0.1507"/>
<stop offset="0.1714" stop-color="#171717"/>
<stop offset="0.3859" stop-color="white"/>
<stop offset="0.6326" stop-color="#E6E6E6"/>
<stop offset="0.8567" stop-color="#1A1A1A"/>
<stop offset="0.9987"/>
</linearGradient>
<linearGradient id="paint5_linear_16_1187" x1="640.302" y1="247.465" x2="864.126" y2="1051.7" gradientUnits="userSpaceOnUse">
<stop stop-color="#1E1F20"/>
<stop offset="1" stop-color="#1E1F20" stop-opacity="0"/>
</linearGradient>
<linearGradient id="paint6_linear_16_1187" x1="646.811" y1="271.135" x2="850.902" y2="999.562" gradientUnits="userSpaceOnUse">
<stop stop-color="white"/>
<stop offset="0.0436" stop-color="#B4B4B4"/>
<stop offset="0.1507"/>
<stop offset="0.1714" stop-color="#171717"/>
<stop offset="0.3859" stop-color="white"/>
<stop offset="0.6326" stop-color="#E6E6E6"/>
<stop offset="0.8567" stop-color="#1A1A1A"/>
<stop offset="0.9987"/>
</linearGradient>
<linearGradient id="paint7_linear_16_1187" x1="646.134" y1="269.906" x2="849.73" y2="1001.42" gradientUnits="userSpaceOnUse">
<stop stop-color="#1E1F20"/>
<stop offset="1" stop-color="#1E1F20" stop-opacity="0"/>
</linearGradient>
<linearGradient id="paint8_linear_16_1187" x1="652.552" y1="293.146" x2="836.455" y2="949.475" gradientUnits="userSpaceOnUse">
<stop stop-color="white"/>
<stop offset="0.0436" stop-color="#B4B4B4"/>
<stop offset="0.1507"/>
<stop offset="0.1714" stop-color="#171717"/>
<stop offset="0.3859" stop-color="white"/>
<stop offset="0.6326" stop-color="#E6E6E6"/>
<stop offset="0.8567" stop-color="#1A1A1A"/>
<stop offset="0.9987"/>
</linearGradient>
<linearGradient id="paint9_linear_16_1187" x1="651.941" y1="292.039" x2="835.396" y2="951.155" gradientUnits="userSpaceOnUse">
<stop stop-color="#1E1F20"/>
<stop offset="1" stop-color="#1E1F20" stop-opacity="0"/>
</linearGradient>
<linearGradient id="paint10_linear_16_1187" x1="658.315" y1="315.011" x2="822.076" y2="899.398" gradientUnits="userSpaceOnUse">
<stop stop-color="white"/>
<stop offset="0.0436" stop-color="#B4B4B4"/>
<stop offset="0.1507"/>
<stop offset="0.1714" stop-color="#171717"/>
<stop offset="0.3859" stop-color="white"/>
<stop offset="0.6326" stop-color="#E6E6E6"/>
<stop offset="0.8567" stop-color="#1A1A1A"/>
<stop offset="0.9987"/>
</linearGradient>
<linearGradient id="paint11_linear_16_1187" x1="657.771" y1="314.025" x2="821.13" y2="900.896" gradientUnits="userSpaceOnUse">
<stop stop-color="#1E1F20"/>
<stop offset="1" stop-color="#1E1F20" stop-opacity="0"/>
</linearGradient>
<linearGradient id="paint12_linear_16_1187" x1="664.088" y1="336.514" x2="807.816" y2="849.345" gradientUnits="userSpaceOnUse">
<stop stop-color="white"/>
<stop offset="0.0436" stop-color="#B4B4B4"/>
<stop offset="0.1507"/>
<stop offset="0.1714" stop-color="#171717"/>
<stop offset="0.3859" stop-color="white"/>
<stop offset="0.6326" stop-color="#E6E6E6"/>
<stop offset="0.8567" stop-color="#1A1A1A"/>
<stop offset="0.9987"/>
</linearGradient>
<linearGradient id="paint13_linear_16_1187" x1="663.608" y1="335.65" x2="806.981" y2="850.662" gradientUnits="userSpaceOnUse">
<stop stop-color="#1E1F20"/>
<stop offset="1" stop-color="#1E1F20" stop-opacity="0"/>
</linearGradient>
<linearGradient id="paint14_linear_16_1187" x1="669.91" y1="357.604" x2="793.731" y2="799.315" gradientUnits="userSpaceOnUse">
<stop stop-color="white"/>
<stop offset="0.0436" stop-color="#B4B4B4"/>
<stop offset="0.1507"/>
<stop offset="0.1714" stop-color="#171717"/>
<stop offset="0.3859" stop-color="white"/>
<stop offset="0.6326" stop-color="#E6E6E6"/>
<stop offset="0.8567" stop-color="#1A1A1A"/>
<stop offset="0.9987"/>
</linearGradient>
<linearGradient id="paint15_linear_16_1187" x1="669.496" y1="356.859" x2="793.007" y2="800.452" gradientUnits="userSpaceOnUse">
<stop stop-color="#1E1F20"/>
<stop offset="1" stop-color="#1E1F20" stop-opacity="0"/>
</linearGradient>
<linearGradient id="paint16_linear_16_1187" x1="675.892" y1="378.326" x2="779.939" y2="749.391" gradientUnits="userSpaceOnUse">
<stop stop-color="white"/>
<stop offset="0.0436" stop-color="#B4B4B4"/>
<stop offset="0.1507"/>
<stop offset="0.1714" stop-color="#171717"/>
<stop offset="0.3859" stop-color="white"/>
<stop offset="0.6326" stop-color="#E6E6E6"/>
<stop offset="0.8567" stop-color="#1A1A1A"/>
<stop offset="0.9987"/>
</linearGradient>
<linearGradient id="paint17_linear_16_1187" x1="675.543" y1="377.698" x2="779.325" y2="750.346" gradientUnits="userSpaceOnUse">
<stop stop-color="#1E1F20"/>
<stop offset="1" stop-color="#1E1F20" stop-opacity="0"/>
</linearGradient>
<linearGradient id="paint18_linear_16_1187" x1="682.275" y1="398.262" x2="766.824" y2="699.663" gradientUnits="userSpaceOnUse">
<stop stop-color="white"/>
<stop offset="0.0436" stop-color="#B4B4B4"/>
<stop offset="0.1507"/>
<stop offset="0.1714" stop-color="#171717"/>
<stop offset="0.3859" stop-color="white"/>
<stop offset="0.6326" stop-color="#E6E6E6"/>
<stop offset="0.8567" stop-color="#1A1A1A"/>
<stop offset="0.9987"/>
</linearGradient>
<linearGradient id="paint19_linear_16_1187" x1="681.99" y1="397.755" x2="766.319" y2="700.445" gradientUnits="userSpaceOnUse">
<stop stop-color="#1E1F20"/>
<stop offset="1" stop-color="#1E1F20" stop-opacity="0"/>
</linearGradient>
<linearGradient id="paint20_linear_16_1187" x1="694.006" y1="416.288" x2="759.469" y2="649.702" gradientUnits="userSpaceOnUse">
<stop stop-color="white"/>
<stop offset="0.0436" stop-color="#B4B4B4"/>
<stop offset="0.1507"/>
<stop offset="0.1714" stop-color="#171717"/>
<stop offset="0.3859" stop-color="white"/>
<stop offset="0.6326" stop-color="#E6E6E6"/>
<stop offset="0.8567" stop-color="#1A1A1A"/>
<stop offset="0.9987"/>
</linearGradient>
<linearGradient id="paint21_linear_16_1187" x1="693.786" y1="415.895" x2="759.08" y2="650.307" gradientUnits="userSpaceOnUse">
<stop stop-color="#1E1F20"/>
<stop offset="1" stop-color="#1E1F20" stop-opacity="0"/>
</linearGradient>
<linearGradient id="paint22_linear_16_1187" x1="707.858" y1="433.01" x2="757.497" y2="609.915" gradientUnits="userSpaceOnUse">
<stop stop-color="white"/>
<stop offset="0.0436" stop-color="#B4B4B4"/>
<stop offset="0.1507"/>
<stop offset="0.1714" stop-color="#171717"/>
<stop offset="0.3859" stop-color="white"/>
<stop offset="0.6326" stop-color="#E6E6E6"/>
<stop offset="0.8567" stop-color="#1A1A1A"/>
<stop offset="0.9987"/>
</linearGradient>
<linearGradient id="paint23_linear_16_1187" x1="707.69" y1="432.711" x2="757.198" y2="610.374" gradientUnits="userSpaceOnUse">
<stop stop-color="#1E1F20"/>
<stop offset="1" stop-color="#1E1F20" stop-opacity="0"/>
</linearGradient>
</defs>
</svg>
