<svg width="1440" height="1329" viewBox="0 0 1440 1329" fill="none" xmlns="http://www.w3.org/2000/svg">
<g opacity="0.2" filter="url(#filter0_f_3_88)">
<circle cx="720" cy="460" r="369" fill="#6B6B6B"/>
</g>
<mask id="mask0_3_88" style="mask-type:alpha" maskUnits="userSpaceOnUse" x="0" y="80" width="1440" height="1039">
<path d="M193.509 741.8C177.473 727.762 162.291 713.809 148.049 700.004C69.8384 624.204 22.0362 555.603 5.97008 496.107C-10.4676 435.235 7.07781 385.372 58.1214 347.903C213.091 234.144 325.534 178.002 399.937 140.85C433.427 124.129 459.877 110.922 478.136 98.3146L478.738 99.384L478.136 98.3146C508.512 77.3398 577 74.1392 656.871 89.9633C742.825 106.992 822.962 141.897 876.735 185.726C950.904 246.18 1045.78 291.832 1112.31 319.485C1189.81 351.695 1274.9 378.387 1339.92 390.886C1381.89 398.954 1412.4 424.683 1428.13 465.292C1455.38 535.608 1434.93 641.33 1374.76 741.201C1346.24 788.539 1316.76 837.488 1285.81 882.552C1251.6 932.374 1219.22 971.924 1186.83 1003.46C1148.15 1041.12 1108.44 1068.66 1065.44 1087.66C1017.43 1108.87 966.396 1119.05 909.424 1118.77C812.119 1118.3 606.182 1029.1 408.625 901.844C327.812 849.787 254.495 795.191 193.509 741.8ZM1393.96 419.174C1379.13 406.193 1360.84 397.465 1339.53 393.368C1274.38 380.844 1189.14 354.106 1111.51 321.844C1044.85 294.136 949.764 248.381 875.386 187.756C821.884 144.148 742.092 109.407 656.47 92.4448C577.131 76.7265 509.258 79.7951 479.341 100.453C460.952 113.15 434.44 126.388 400.874 143.148C326.536 180.266 214.196 236.358 59.38 350.003C9.26865 386.787 -7.96632 435.701 8.15007 495.385C24.092 554.42 71.6656 622.626 149.548 698.109C217.848 764.304 307.831 834.001 409.77 899.666C607.017 1026.72 812.488 1115.79 909.435 1116.25C966.109 1116.52 1016.86 1106.4 1064.6 1085.32C1107.35 1066.43 1146.84 1039.04 1185.32 1001.57C1257.52 931.277 1316.16 833.937 1372.87 739.802C1432.61 640.632 1452.99 535.828 1426.04 466.285C1418.6 447.087 1407.79 431.28 1393.96 419.174Z" fill="url(#paint0_linear_3_88)"/>
</mask>
<g mask="url(#mask0_3_88)">
<path d="M193.509 741.8C177.473 727.762 162.291 713.809 148.049 700.004C69.8384 624.204 22.0362 555.603 5.97008 496.107C-10.4676 435.235 7.07781 385.372 58.1214 347.903C213.091 234.144 325.534 178.002 399.937 140.85C433.427 124.129 459.877 110.922 478.136 98.3146L478.738 99.384L478.136 98.3146C508.512 77.3398 577 74.1392 656.871 89.9633C742.825 106.992 822.962 141.897 876.735 185.726C950.904 246.18 1045.78 291.832 1112.31 319.485C1189.81 351.695 1274.9 378.387 1339.92 390.886C1381.89 398.954 1412.4 424.683 1428.13 465.292C1455.38 535.608 1434.93 641.33 1374.76 741.201C1346.24 788.539 1316.76 837.488 1285.81 882.552C1251.6 932.374 1219.22 971.924 1186.83 1003.46C1148.15 1041.12 1108.44 1068.66 1065.44 1087.66C1017.43 1108.87 966.396 1119.05 909.424 1118.77C812.119 1118.3 606.182 1029.1 408.625 901.844C327.812 849.787 254.495 795.191 193.509 741.8ZM1393.96 419.174C1379.13 406.193 1360.84 397.465 1339.53 393.368C1274.38 380.844 1189.14 354.106 1111.51 321.844C1044.85 294.136 949.764 248.381 875.386 187.756C821.884 144.148 742.092 109.407 656.47 92.4448C577.131 76.7265 509.258 79.7951 479.341 100.453C460.952 113.15 434.44 126.388 400.874 143.148C326.536 180.266 214.196 236.358 59.38 350.003C9.26865 386.787 -7.96632 435.701 8.15007 495.385C24.092 554.42 71.6656 622.626 149.548 698.109C217.848 764.304 307.831 834.001 409.77 899.666C607.017 1026.72 812.488 1115.79 909.435 1116.25C966.109 1116.52 1016.86 1106.4 1064.6 1085.32C1107.35 1066.43 1146.84 1039.04 1185.32 1001.57C1257.52 931.277 1316.16 833.937 1372.87 739.802C1432.61 640.632 1452.99 535.828 1426.04 466.285C1418.6 447.087 1407.79 431.28 1393.96 419.174Z" fill="url(#paint1_linear_3_88)"/>
</g>
<mask id="mask1_3_88" style="mask-type:alpha" maskUnits="userSpaceOnUse" x="54" y="105" width="1329" height="960">
<path d="M227.202 717.214C214.521 706.113 202.441 695.073 191.008 684.132C118.9 615.125 74.7188 552.661 59.6934 498.473C44.5014 443.69 59.8314 398.733 105.256 364.852C241.779 261.396 347.046 205.587 416.702 168.657C449.402 151.321 475.23 137.628 493.62 124.775C523.353 104.021 587.848 99.659 661.936 113.391C741.266 128.096 816.223 160.012 867.587 200.957C936.259 256.36 1023.3 298.883 1084.22 324.8C1155.79 355.247 1231.46 380.059 1291.82 392.875C1329.91 400.971 1357.55 425.093 1371.75 462.633C1396.4 527.801 1377.56 625.053 1322.57 716.438L1322.57 716.437C1270.76 802.713 1217.19 891.929 1149.48 957.684C1113.82 992.319 1077.21 1017.7 1037.55 1035.27C993.312 1054.88 946.324 1064.4 893.904 1064.39C803.911 1064.69 613.656 983.89 431.243 867.905C354.275 818.966 284.615 767.477 227.202 717.214ZM1339.52 418.678C1326.31 407.115 1310.16 399.182 1291.41 395.198C1230.93 382.358 1155.14 357.503 1083.45 327.009C1022.41 301.04 935.187 258.424 866.332 202.872C815.23 162.137 740.6 130.371 661.583 115.724C587.992 102.084 524.069 106.318 494.761 126.775C476.267 139.701 450.389 153.421 417.627 170.791C348.028 207.69 242.852 263.451 106.458 366.809C61.899 400.044 46.8549 444.107 61.7374 497.778C76.6436 551.534 120.607 613.63 192.407 682.341C255.499 742.724 338.457 806.18 432.306 865.852C614.426 981.651 804.241 1062.32 893.9 1062.02C946.047 1062.03 992.774 1052.57 1036.76 1033.08C1076.18 1015.6 1112.6 990.36 1148.07 955.904C1215.57 890.355 1269.06 801.275 1320.79 715.127V715.125C1375.39 624.392 1394.16 527.991 1369.78 463.547C1362.84 445.225 1352.64 430.161 1339.52 418.678Z" fill="url(#paint2_linear_3_88)"/>
</mask>
<g mask="url(#mask1_3_88)">
<path d="M227.202 717.214C214.521 706.113 202.441 695.073 191.008 684.132C118.9 615.125 74.7188 552.661 59.6934 498.473C44.5014 443.69 59.8314 398.733 105.256 364.852C241.779 261.396 347.046 205.587 416.702 168.657C449.402 151.321 475.23 137.628 493.62 124.775C523.353 104.021 587.848 99.659 661.936 113.391C741.266 128.096 816.223 160.012 867.587 200.957C936.259 256.36 1023.3 298.883 1084.22 324.8C1155.79 355.247 1231.46 380.059 1291.82 392.875C1329.91 400.971 1357.55 425.093 1371.75 462.633C1396.4 527.801 1377.56 625.053 1322.57 716.438L1322.57 716.437C1270.76 802.713 1217.19 891.929 1149.48 957.684C1113.82 992.319 1077.21 1017.7 1037.55 1035.27C993.312 1054.88 946.324 1064.4 893.904 1064.39C803.911 1064.69 613.656 983.89 431.243 867.905C354.275 818.966 284.615 767.477 227.202 717.214ZM1339.52 418.678C1326.31 407.115 1310.16 399.182 1291.41 395.198C1230.93 382.358 1155.14 357.503 1083.45 327.009C1022.41 301.04 935.187 258.424 866.332 202.872C815.23 162.137 740.6 130.371 661.583 115.724C587.992 102.084 524.069 106.318 494.761 126.775C476.267 139.701 450.389 153.421 417.627 170.791C348.028 207.69 242.852 263.451 106.458 366.809C61.899 400.044 46.8549 444.107 61.7374 497.778C76.6436 551.534 120.607 613.63 192.407 682.341C255.499 742.724 338.457 806.18 432.306 865.852C614.426 981.651 804.241 1062.32 893.9 1062.02C946.047 1062.03 992.774 1052.57 1036.76 1033.08C1076.18 1015.6 1112.6 990.36 1148.07 955.904C1215.57 890.355 1269.06 801.275 1320.79 715.127V715.125C1375.39 624.392 1394.16 527.991 1369.78 463.547C1362.84 445.225 1352.64 430.161 1339.52 418.678Z" fill="url(#paint3_linear_3_88)"/>
</g>
<mask id="mask2_3_88" style="mask-type:alpha" maskUnits="userSpaceOnUse" x="107" y="130" width="1218" height="881">
<path d="M260.952 692.787C251.559 684.564 242.55 676.39 233.928 668.264C167.922 606.05 127.363 549.721 113.379 500.844C99.4468 452.145 112.572 412.093 152.391 381.801C271.346 287.988 365.818 234.688 434.799 195.771C466.104 178.11 490.829 164.16 509.106 151.232C538.649 130.382 597.674 124.993 667 136.817C739.722 149.22 809.498 178.149 858.437 216.185C972.938 307.45 1151.58 373.042 1243.72 394.863C1277.93 402.985 1302.71 425.506 1315.37 459.994C1337.42 520.015 1320.18 608.79 1270.37 691.678C1225.72 766.322 1175.11 850.93 1112.14 911.907C1079.49 943.515 1045.97 966.734 1009.66 982.889C969.191 1000.89 926.251 1009.76 878.38 1010C836.89 1010.53 773.382 993.407 694.727 960.476C619.169 928.841 533.617 883.914 453.828 833.97C380.722 788.209 314.732 739.867 260.952 692.787ZM1285.07 418.122C1273.49 407.986 1259.48 400.867 1243.3 397.028C1151 375.166 972.02 309.446 857.278 217.99C808.592 180.151 739.123 151.36 666.694 139.006C597.836 127.261 539.326 132.531 510.18 153.099C491.823 166.084 467.059 180.056 435.707 197.744C366.782 236.631 272.386 289.888 153.536 383.615C114.515 413.3 101.65 452.513 115.285 500.175C129.154 548.651 169.507 604.636 235.224 666.577C293.116 721.137 369.047 778.358 454.812 832.041C534.514 881.932 619.968 926.807 695.433 958.403C773.858 991.237 837.114 1008.31 878.364 1007.78C925.983 1007.54 968.683 998.727 1008.91 980.832C1045.01 964.772 1078.35 941.681 1110.82 910.239C1173.59 849.456 1224.12 764.981 1268.7 690.451L1268.7 690.45C1318.15 608.165 1335.32 520.178 1313.52 460.828C1307.1 443.344 1297.49 428.996 1285.07 418.122Z" fill="url(#paint4_linear_3_88)"/>
</mask>
<g mask="url(#mask2_3_88)">
<path d="M260.952 692.787C251.559 684.564 242.55 676.39 233.928 668.264C167.922 606.05 127.363 549.721 113.379 500.844C99.4468 452.145 112.572 412.093 152.391 381.801C271.346 287.988 365.818 234.688 434.799 195.771C466.104 178.11 490.829 164.16 509.106 151.232C538.649 130.382 597.674 124.993 667 136.817C739.722 149.22 809.498 178.149 858.437 216.185C972.938 307.45 1151.58 373.042 1243.72 394.863C1277.93 402.985 1302.71 425.506 1315.37 459.994C1337.42 520.015 1320.18 608.79 1270.37 691.678C1225.72 766.322 1175.11 850.93 1112.14 911.907C1079.49 943.515 1045.97 966.734 1009.66 982.889C969.191 1000.89 926.251 1009.76 878.38 1010C836.89 1010.53 773.382 993.407 694.727 960.476C619.169 928.841 533.617 883.914 453.828 833.97C380.722 788.209 314.732 739.867 260.952 692.787ZM1285.07 418.122C1273.49 407.986 1259.48 400.867 1243.3 397.028C1151 375.166 972.02 309.446 857.278 217.99C808.592 180.151 739.123 151.36 666.694 139.006C597.836 127.261 539.326 132.531 510.18 153.099C491.823 166.084 467.059 180.056 435.707 197.744C366.782 236.631 272.386 289.888 153.536 383.615C114.515 413.3 101.65 452.513 115.285 500.175C129.154 548.651 169.507 604.636 235.224 666.577C293.116 721.137 369.047 778.358 454.812 832.041C534.514 881.932 619.968 926.807 695.433 958.403C773.858 991.237 837.114 1008.31 878.364 1007.78C925.983 1007.54 968.683 998.727 1008.91 980.832C1045.01 964.772 1078.35 941.681 1110.82 910.239C1173.59 849.456 1224.12 764.981 1268.7 690.451L1268.7 690.45C1318.15 608.165 1335.32 520.178 1313.52 460.828C1307.1 443.344 1297.49 428.996 1285.07 418.122Z" fill="url(#paint5_linear_3_88)"/>
</g>
<mask id="mask3_3_88" style="mask-type:alpha" maskUnits="userSpaceOnUse" x="161" y="155" width="1107" height="801">
<path d="M294.768 668.56C288.587 663.15 282.599 657.764 276.8 652.399C216.892 596.978 179.956 546.786 167.016 503.218C154.359 460.599 165.295 425.45 199.524 398.749C301.986 313.669 390.435 260.443 455.017 221.579C482.845 204.833 506.878 190.37 524.591 177.689C553.512 157.049 608.641 150.526 672.063 160.243C738.198 170.374 802.794 196.315 849.287 231.414C894.905 267.248 956.709 303.212 1028.03 335.43C1085.28 361.29 1146.36 383.678 1195.62 396.852C1225.96 404.994 1247.89 425.925 1259.02 457.382C1278.43 512.256 1262.78 592.544 1218.17 666.913C1171.58 745.173 1128.63 814.183 1074.79 866.127C1045.17 894.71 1014.74 915.767 981.764 930.502C945.073 946.899 906.178 955.114 862.859 955.614C824.798 956.527 766.823 941.598 695.212 912.436C626.705 884.539 548.988 844.622 476.378 800.039C407.139 757.527 344.844 712.4 294.768 668.56ZM1230.61 417.482C1220.68 408.788 1208.8 402.511 1195.18 398.856C1145.84 385.659 1084.66 363.236 1027.33 337.339C955.876 305.063 893.942 269.02 848.223 233.106C801.973 198.192 737.667 172.374 671.807 162.285C608.813 152.635 554.156 159.041 525.599 179.422C507.828 192.144 483.766 206.625 455.905 223.391C391.373 262.225 302.994 315.41 200.618 400.416C167.115 426.552 156.412 460.916 168.784 502.573C181.613 545.77 218.356 595.645 277.993 650.815C330.69 699.557 399.596 750.537 477.279 798.236C549.808 842.769 627.432 882.639 695.854 910.501C767.247 939.573 824.986 954.46 862.828 953.551C905.921 953.054 944.592 944.889 981.065 928.59C1013.84 913.941 1044.1 893.001 1073.57 864.572C1127.23 812.799 1170.1 743.91 1216.62 665.775L1216.62 665.773C1260.9 591.955 1276.48 512.392 1257.28 458.133C1251.38 441.44 1242.36 427.771 1230.61 417.482Z" fill="url(#paint6_linear_3_88)"/>
</mask>
<g mask="url(#mask3_3_88)">
<path d="M294.768 668.56C288.587 663.15 282.599 657.764 276.8 652.399C216.892 596.978 179.956 546.786 167.016 503.218C154.359 460.599 165.295 425.45 199.524 398.749C301.986 313.669 390.435 260.443 455.017 221.579C482.845 204.833 506.878 190.37 524.591 177.689C553.512 157.049 608.641 150.526 672.063 160.243C738.198 170.374 802.794 196.315 849.287 231.414C894.905 267.248 956.709 303.212 1028.03 335.43C1085.28 361.29 1146.36 383.678 1195.62 396.852C1225.96 404.994 1247.89 425.925 1259.02 457.382C1278.43 512.256 1262.78 592.544 1218.17 666.913C1171.58 745.173 1128.63 814.183 1074.79 866.127C1045.17 894.71 1014.74 915.767 981.764 930.502C945.073 946.899 906.178 955.114 862.859 955.614C824.798 956.527 766.823 941.598 695.212 912.436C626.705 884.539 548.988 844.622 476.378 800.039C407.139 757.527 344.844 712.4 294.768 668.56ZM1230.61 417.482C1220.68 408.788 1208.8 402.511 1195.18 398.856C1145.84 385.659 1084.66 363.236 1027.33 337.339C955.876 305.063 893.942 269.02 848.223 233.106C801.973 198.192 737.667 172.374 671.807 162.285C608.813 152.635 554.156 159.041 525.599 179.422C507.828 192.144 483.766 206.625 455.905 223.391C391.373 262.225 302.994 315.41 200.618 400.416C167.115 426.552 156.412 460.916 168.784 502.573C181.613 545.77 218.356 595.645 277.993 650.815C330.69 699.557 399.596 750.537 477.279 798.236C549.808 842.769 627.432 882.639 695.854 910.501C767.247 939.573 824.986 954.46 862.828 953.551C905.921 953.054 944.592 944.889 981.065 928.59C1013.84 913.941 1044.1 893.001 1073.57 864.572C1127.23 812.799 1170.1 743.91 1216.62 665.775L1216.62 665.773C1260.9 591.955 1276.48 512.392 1257.28 458.133C1251.38 441.44 1242.36 427.771 1230.61 417.482Z" fill="url(#paint7_linear_3_88)"/>
</g>
<mask id="mask4_3_88" style="mask-type:alpha" maskUnits="userSpaceOnUse" x="215" y="180" width="995" height="722">
<path d="M328.667 644.607C325.591 641.915 322.571 639.229 319.607 636.549C265.796 587.921 232.48 543.868 220.584 505.61C209.22 469.06 217.991 438.81 246.655 415.701C333.866 338.088 417.519 284.292 478.6 245.01C502.822 229.434 523.74 215.982 540.076 204.147C568.817 183.4 618.77 175.937 677.126 183.669C736.705 191.565 796.121 214.518 840.138 246.644C925.698 312.669 1059.45 371.819 1147.52 398.844C1174.02 407.01 1193.1 426.365 1202.68 454.817C1219.44 504.544 1205.37 576.328 1165.98 642.153L1165.98 642.148C1126.41 709.01 1086.8 772.951 1037.45 820.351C1010.84 845.905 983.501 864.801 953.87 878.118C920.954 892.91 886.107 900.47 847.337 901.228C812.694 902.526 760.245 889.794 695.673 864.408C634.204 840.243 564.314 805.337 498.878 766.124C433.522 726.958 374.943 685.119 328.667 644.607ZM1176.13 416.727C1167.87 409.493 1158.13 404.093 1147.06 400.684C1058.85 373.618 924.878 314.363 839.17 248.223C795.387 216.269 736.243 193.426 676.921 185.565C618.961 177.885 569.426 185.241 541.019 205.746C524.645 217.607 503.71 231.071 479.467 246.661C418.434 285.912 334.845 339.667 247.702 417.217C219.689 439.803 211.125 469.324 222.214 504.989C234.004 542.905 267.138 586.671 320.696 635.071C368.203 677.979 430.092 722.732 499.698 764.444C565.058 803.613 634.861 838.475 696.249 862.609C760.619 887.915 812.849 900.609 847.292 899.321C885.859 898.565 920.505 891.052 953.221 876.35C982.672 863.114 1009.85 844.325 1036.32 818.909C1085.5 771.67 1125.03 707.848 1164.54 641.103L1164.54 641.099C1203.63 575.774 1217.63 504.651 1201.06 455.485C1195.68 439.507 1187.24 426.458 1176.13 416.727Z" fill="url(#paint8_linear_3_88)"/>
</mask>
<g mask="url(#mask4_3_88)">
<path d="M328.667 644.607C325.591 641.915 322.571 639.229 319.607 636.549C265.796 587.921 232.48 543.868 220.584 505.61C209.22 469.06 217.991 438.81 246.655 415.701C333.866 338.088 417.519 284.292 478.6 245.01C502.822 229.434 523.74 215.982 540.076 204.147C568.817 183.4 618.77 175.937 677.126 183.669C736.705 191.565 796.121 214.518 840.138 246.644C925.698 312.669 1059.45 371.819 1147.52 398.844C1174.02 407.01 1193.1 426.365 1202.68 454.817C1219.44 504.544 1205.37 576.328 1165.98 642.153L1165.98 642.148C1126.41 709.01 1086.8 772.951 1037.45 820.351C1010.84 845.905 983.501 864.801 953.87 878.118C920.954 892.91 886.107 900.47 847.337 901.228C812.694 902.526 760.245 889.794 695.673 864.408C634.204 840.243 564.314 805.337 498.878 766.124C433.522 726.958 374.943 685.119 328.667 644.607ZM1176.13 416.727C1167.87 409.493 1158.13 404.093 1147.06 400.684C1058.85 373.618 924.878 314.363 839.17 248.223C795.387 216.269 736.243 193.426 676.921 185.565C618.961 177.885 569.426 185.241 541.019 205.746C524.645 217.607 503.71 231.071 479.467 246.661C418.434 285.912 334.845 339.667 247.702 417.217C219.689 439.803 211.125 469.324 222.214 504.989C234.004 542.905 267.138 586.671 320.696 635.071C368.203 677.979 430.092 722.732 499.698 764.444C565.058 803.613 634.861 838.475 696.249 862.609C760.619 887.915 812.849 900.609 847.292 899.321C885.859 898.565 920.505 891.052 953.221 876.35C982.672 863.114 1009.85 844.325 1036.32 818.909C1085.5 771.67 1125.03 707.848 1164.54 641.103L1164.54 641.099C1203.63 575.774 1217.63 504.651 1201.06 455.485C1195.68 439.507 1187.24 426.458 1176.13 416.727Z" fill="url(#paint9_linear_3_88)"/>
</g>
<mask id="mask5_3_88" style="mask-type:alpha" maskUnits="userSpaceOnUse" x="269" y="205" width="884" height="643">
<path d="M362.666 621.024C362.552 620.925 362.441 620.827 362.326 620.726C314.608 578.894 284.91 540.977 274.055 508.033C264.007 477.533 270.644 452.172 293.784 432.654C366.964 360.788 448.168 305.003 507.46 264.271C526.026 251.516 542.062 240.5 555.562 230.605C583.72 210.043 629.874 201.475 682.187 207.097C735.252 212.8 789.487 232.766 830.987 261.874C868.254 289.998 915.64 318.318 971.85 346.065C1014.13 366.937 1060.63 386.901 1099.43 400.839C1122.11 409.031 1138.34 426.832 1146.38 452.322C1160.43 496.898 1147.94 560.149 1113.78 617.392C1080.86 673.43 1044.96 731.732 1000.1 774.574C976.512 797.102 952.266 813.836 925.976 825.734C896.836 838.921 866.036 845.826 831.815 846.843C769.91 850.178 645.123 804.117 521.314 732.227C459.863 696.545 405.014 658.098 362.666 621.024ZM1121.62 415.8C1115.05 410.051 1107.46 405.587 1098.94 402.507C1060.1 388.552 1013.54 368.564 971.204 347.668C914.908 319.878 867.439 291.507 830.116 263.341C788.842 234.39 734.859 214.521 682.034 208.844C630.076 203.261 584.297 211.725 556.436 232.07C542.917 241.98 526.873 253.002 508.295 265.764C449.052 306.463 367.916 362.201 294.79 434.01C272.222 453.049 265.762 477.738 275.545 507.43C286.298 540.066 315.826 577.72 363.31 619.349C363.421 619.446 363.538 619.549 363.649 619.646C405.921 656.656 460.681 695.037 522.051 730.671C645.629 802.428 770.09 848.409 831.755 845.086C865.798 844.074 896.415 837.211 925.375 824.106C951.504 812.282 975.608 795.644 999.064 773.242C1043.77 730.55 1079.59 672.364 1112.45 616.427L1112.45 616.421C1146.34 559.627 1158.77 496.967 1144.88 452.9C1140.04 437.532 1132.15 425.016 1121.62 415.8Z" fill="url(#paint10_linear_3_88)"/>
</mask>
<g mask="url(#mask5_3_88)">
<path d="M362.666 621.024C362.552 620.925 362.441 620.827 362.326 620.726C314.608 578.894 284.91 540.977 274.055 508.033C264.007 477.533 270.644 452.172 293.784 432.654C366.964 360.788 448.168 305.003 507.46 264.271C526.026 251.516 542.062 240.5 555.562 230.605C583.72 210.043 629.874 201.475 682.187 207.097C735.252 212.8 789.487 232.766 830.987 261.874C868.254 289.998 915.64 318.318 971.85 346.065C1014.13 366.937 1060.63 386.901 1099.43 400.839C1122.11 409.031 1138.34 426.832 1146.38 452.322C1160.43 496.898 1147.94 560.149 1113.78 617.392C1080.86 673.43 1044.96 731.732 1000.1 774.574C976.512 797.102 952.266 813.836 925.976 825.734C896.836 838.921 866.036 845.826 831.815 846.843C769.91 850.178 645.123 804.117 521.314 732.227C459.863 696.545 405.014 658.098 362.666 621.024ZM1121.62 415.8C1115.05 410.051 1107.46 405.587 1098.94 402.507C1060.1 388.552 1013.54 368.564 971.204 347.668C914.908 319.878 867.439 291.507 830.116 263.341C788.842 234.39 734.859 214.521 682.034 208.844C630.076 203.261 584.297 211.725 556.436 232.07C542.917 241.98 526.873 253.002 508.295 265.764C449.052 306.463 367.916 362.201 294.79 434.01C272.222 453.049 265.762 477.738 275.545 507.43C286.298 540.066 315.826 577.72 363.31 619.349C363.421 619.446 363.538 619.549 363.649 619.646C405.921 656.656 460.681 695.037 522.051 730.671C645.629 802.428 770.09 848.409 831.755 845.086C865.798 844.074 896.415 837.211 925.375 824.106C951.504 812.282 975.608 795.644 999.064 773.242C1043.77 730.55 1079.59 672.364 1112.45 616.427L1112.45 616.421C1146.34 559.627 1158.77 496.967 1144.88 452.9C1140.04 437.532 1132.15 425.016 1121.62 415.8Z" fill="url(#paint11_linear_3_88)"/>
</g>
<mask id="mask6_3_88" style="mask-type:alpha" maskUnits="userSpaceOnUse" x="323" y="229" width="772" height="564">
<path d="M396.609 597.821C359.804 565.601 336.536 536.266 327.383 510.523C318.682 486.052 323.222 465.57 340.878 449.641C400.761 381.205 483.846 320.686 544.513 276.497C554.032 269.563 563.025 263.013 571.05 257.061C599.074 236.358 640.341 226.934 687.25 230.524C734.549 234.145 782.347 250.687 821.839 277.104C848.317 296.518 923.63 347.596 1051.34 402.835C1070.24 411.062 1083.65 427.35 1090.12 449.944C1101.4 489.35 1090.47 544.022 1061.59 592.623C1034.93 638.445 1003.11 690.539 962.757 728.797C920.11 769.228 872.202 790.052 816.296 792.458C788.448 794.529 747.011 786.21 696.485 768.399C648.36 751.435 595.517 727.221 543.67 698.375C490.13 668.587 442.154 636.287 404.931 604.963C402.085 602.568 399.309 600.186 396.609 597.821ZM1067.07 414.608C1062.25 410.387 1056.81 406.941 1050.81 404.328C1030.38 395.492 989.224 377.05 943.14 352.83C894.765 327.407 853.692 302.385 821.063 278.458C781.788 252.188 734.222 235.726 687.149 232.123C640.558 228.557 599.612 237.887 571.854 258.393C563.825 264.348 554.83 270.899 545.308 277.836C484.687 321.991 401.663 382.466 341.888 450.791L341.825 450.855C324.688 466.296 320.283 486.174 328.731 509.936C338.32 536.904 364.971 569.32 405.808 603.686C442.962 634.951 490.858 667.198 544.321 696.941C596.101 725.75 648.871 749.93 696.924 766.87C747.278 784.62 788.53 792.915 816.219 790.855C871.807 788.463 919.425 767.765 961.814 727.578C1002.02 689.461 1033.77 637.482 1060.37 591.752L1060.37 591.745C1089.03 543.535 1099.89 489.386 1088.74 450.427C1084.46 435.497 1077.09 423.38 1067.07 414.608Z" fill="url(#paint12_linear_3_88)"/>
</mask>
<g mask="url(#mask6_3_88)">
<path d="M396.609 597.821C359.804 565.601 336.536 536.266 327.383 510.523C318.682 486.052 323.222 465.57 340.878 449.641C400.761 381.205 483.846 320.686 544.513 276.497C554.032 269.563 563.025 263.013 571.05 257.061C599.074 236.358 640.341 226.934 687.25 230.524C734.549 234.145 782.347 250.687 821.839 277.104C848.317 296.518 923.63 347.596 1051.34 402.835C1070.24 411.062 1083.65 427.35 1090.12 449.944C1101.4 489.35 1090.47 544.022 1061.59 592.623C1034.93 638.445 1003.11 690.539 962.757 728.797C920.11 769.228 872.202 790.052 816.296 792.458C788.448 794.529 747.011 786.21 696.485 768.399C648.36 751.435 595.517 727.221 543.67 698.375C490.13 668.587 442.154 636.287 404.931 604.963C402.085 602.568 399.309 600.186 396.609 597.821ZM1067.07 414.608C1062.25 410.387 1056.81 406.941 1050.81 404.328C1030.38 395.492 989.224 377.05 943.14 352.83C894.765 327.407 853.692 302.385 821.063 278.458C781.788 252.188 734.222 235.726 687.149 232.123C640.558 228.557 599.612 237.887 571.854 258.393C563.825 264.348 554.83 270.899 545.308 277.836C484.687 321.991 401.663 382.466 341.888 450.791L341.825 450.855C324.688 466.296 320.283 486.174 328.731 509.936C338.32 536.904 364.971 569.32 405.808 603.686C442.962 634.951 490.858 667.198 544.321 696.941C596.101 725.75 648.871 749.93 696.924 766.87C747.278 784.62 788.53 792.915 816.219 790.855C871.807 788.463 919.425 767.765 961.814 727.578C1002.02 689.461 1033.77 637.482 1060.37 591.752L1060.37 591.745C1089.03 543.535 1099.89 489.386 1088.74 450.427C1084.46 435.497 1077.09 423.38 1067.07 414.608Z" fill="url(#paint13_linear_3_88)"/>
</g>
<mask id="mask7_3_88" style="mask-type:alpha" maskUnits="userSpaceOnUse" x="376" y="253" width="661" height="486">
<path d="M431.372 576.003C405.239 553.125 387.788 531.623 380.485 513.168C373.153 494.641 375.676 478.983 387.983 466.626C433.747 398.161 540.811 317.827 586.537 283.518C643.739 240.752 736.736 244.38 812.688 292.336C870.94 333.438 945.47 373.65 990 397.676C994.728 400.228 999.164 402.621 1003.26 404.84C1018.43 413.122 1029.02 427.973 1033.91 447.781C1042.34 481.976 1032.95 527.99 1009.39 567.862C985.913 608.767 959.488 651.032 925.411 683.02C889.045 717.156 848.276 735.164 800.777 738.071C752.671 742.918 660.478 714.086 565.926 664.615C520.464 640.828 479.473 614.796 447.387 589.331C441.737 584.846 436.392 580.396 431.372 576.003ZM1012.47 412.98C1009.47 410.351 1006.2 408.065 1002.68 406.142C998.589 403.924 994.155 401.532 989.426 398.98C944.871 374.94 870.299 334.705 812.011 293.577C736.503 245.902 644.075 242.252 587.271 284.72C541.588 318.996 434.605 399.266 388.997 467.545L388.957 467.603L388.909 467.652C377.026 479.552 374.594 494.669 381.684 512.584C390.296 534.346 413.28 560.479 448.149 588.151C480.172 613.565 521.093 639.553 566.486 663.302C660.842 712.67 752.768 741.451 800.681 736.623C906.169 730.166 961.081 649.327 1008.29 567.079L1008.29 567.07C1031.65 527.533 1040.98 481.969 1032.64 448.161C1029 433.375 1022.11 421.415 1012.47 412.98Z" fill="url(#paint14_linear_3_88)"/>
</mask>
<g mask="url(#mask7_3_88)">
<path d="M431.372 576.003C405.239 553.125 387.788 531.623 380.485 513.168C373.153 494.641 375.676 478.983 387.983 466.626C433.747 398.161 540.811 317.827 586.537 283.518C643.739 240.752 736.736 244.38 812.688 292.336C870.94 333.438 945.47 373.65 990 397.676C994.728 400.228 999.164 402.621 1003.26 404.84C1018.43 413.122 1029.02 427.973 1033.91 447.781C1042.34 481.976 1032.95 527.99 1009.39 567.862C985.913 608.767 959.488 651.032 925.411 683.02C889.045 717.156 848.276 735.164 800.777 738.071C752.671 742.918 660.478 714.086 565.926 664.615C520.464 640.828 479.473 614.796 447.387 589.331C441.737 584.846 436.392 580.396 431.372 576.003ZM1012.47 412.98C1009.47 410.351 1006.2 408.065 1002.68 406.142C998.589 403.924 994.155 401.532 989.426 398.98C944.871 374.94 870.299 334.705 812.011 293.577C736.503 245.902 644.075 242.252 587.271 284.72C541.588 318.996 434.605 399.266 388.997 467.545L388.957 467.603L388.909 467.652C377.026 479.552 374.594 494.669 381.684 512.584C390.296 534.346 413.28 560.479 448.149 588.151C480.172 613.565 521.093 639.553 566.486 663.302C660.842 712.67 752.768 741.451 800.681 736.623C906.169 730.166 961.081 649.327 1008.29 567.079L1008.29 567.07C1031.65 527.533 1040.98 481.969 1032.64 448.161C1029 433.375 1022.11 421.415 1012.47 412.98Z" fill="url(#paint15_linear_3_88)"/>
</g>
<mask id="mask8_3_88" style="mask-type:alpha" maskUnits="userSpaceOnUse" x="429" y="277" width="551" height="408">
<path d="M466.054 555.351C450.078 541.367 438.774 528.047 433.23 516.201C427.26 503.443 427.877 492.491 435.064 483.649C442.899 460.975 465.984 430.819 503.681 394.011C531.142 367.198 566.987 336.567 602.024 309.973C658.303 267.389 733.635 266.489 803.538 307.567C827.084 323.304 851.934 339.205 875.966 354.583C907.045 374.471 936.401 393.256 955.184 406.856C970.951 418.363 979.58 439.287 979.489 465.758C979.403 490.849 971.278 519.036 957.194 543.094C925.793 598.892 903.756 622.718 888.065 637.24C857.998 665.068 824.37 680.259 785.259 683.681C743.822 689.312 668.276 669.156 588.13 631.076C536.933 606.752 494.232 580.019 466.054 555.351ZM957.814 410.563C956.761 409.64 955.67 408.768 954.541 407.942C935.787 394.362 906.445 375.586 875.38 355.708C851.343 340.327 826.489 324.422 802.961 308.696C733.478 267.866 658.599 268.738 602.688 311.045C567.689 337.609 531.885 368.204 504.458 394.984C466.842 431.712 443.851 461.737 436.121 484.225L436.082 484.34L436.008 484.43C429.114 492.845 428.53 503.334 434.272 515.604C449.475 548.09 508.607 591.879 588.593 629.884C668.56 667.879 743.873 687.999 785.142 682.393C824.027 678.99 857.44 663.896 887.314 636.246C917.057 608.717 939.753 571.636 956.203 542.406L956.209 542.396C970.175 518.54 978.233 490.606 978.318 465.754C978.399 441.641 971.151 422.239 957.814 410.563Z" fill="url(#paint16_linear_3_88)"/>
</mask>
<g mask="url(#mask8_3_88)">
<path d="M466.054 555.351C450.078 541.367 438.774 528.047 433.23 516.201C427.26 503.443 427.877 492.491 435.064 483.649C442.899 460.975 465.984 430.819 503.681 394.011C531.142 367.198 566.987 336.567 602.024 309.973C658.303 267.389 733.635 266.489 803.538 307.567C827.084 323.304 851.934 339.205 875.966 354.583C907.045 374.471 936.401 393.256 955.184 406.856C970.951 418.363 979.58 439.287 979.489 465.758C979.403 490.849 971.278 519.036 957.194 543.094C925.793 598.892 903.756 622.718 888.065 637.24C857.998 665.068 824.37 680.259 785.259 683.681C743.822 689.312 668.276 669.156 588.13 631.076C536.933 606.752 494.232 580.019 466.054 555.351ZM957.814 410.563C956.761 409.64 955.67 408.768 954.541 407.942C935.787 394.362 906.445 375.586 875.38 355.708C851.343 340.327 826.489 324.422 802.961 308.696C733.478 267.866 658.599 268.738 602.688 311.045C567.689 337.609 531.885 368.204 504.458 394.984C466.842 431.712 443.851 461.737 436.121 484.225L436.082 484.34L436.008 484.43C429.114 492.845 428.53 503.334 434.272 515.604C449.475 548.09 508.607 591.879 588.593 629.884C668.56 667.879 743.873 687.999 785.142 682.393C824.027 678.99 857.44 663.896 887.314 636.246C917.057 608.717 939.753 571.636 956.203 542.406L956.209 542.396C970.175 518.54 978.233 490.606 978.318 465.754C978.399 441.641 971.151 422.239 957.814 410.563Z" fill="url(#paint17_linear_3_88)"/>
</g>
<mask id="mask9_3_88" style="mask-type:alpha" maskUnits="userSpaceOnUse" x="480" y="300" width="443" height="332">
<path d="M500.686 537.049C494.08 531.265 488.977 525.718 485.627 520.561C480.727 513.019 479.549 506.373 482.126 500.804C477.45 480.125 502.978 446.165 525.261 421.273C550.387 393.208 584.874 361.491 617.514 336.43C645.627 314.896 673.402 303.246 702.423 300.814C732.062 298.332 762.145 305.524 794.389 322.802C841.292 351.68 885.532 385.471 907.116 408.903C917.585 420.373 922.881 438.391 922.031 459.638C921.237 479.515 915.029 500.909 904.998 518.333C879.454 565.171 840.996 620.11 769.744 629.298C735.243 635.682 675.866 624.078 610.939 598.253C563.493 579.38 523.302 556.846 500.686 537.049ZM886.675 390.804C862.965 370.046 829.192 345.539 793.913 323.817C761.864 306.644 731.954 299.488 702.502 301.956C673.668 304.372 646.061 315.956 618.103 337.371C557.096 384.212 474.901 465.862 483.177 500.729L483.228 500.946L483.133 501.144C480.636 506.336 481.758 512.643 486.467 519.892C501.172 542.529 550.167 572.863 611.29 597.173C676.059 622.935 735.241 634.52 769.601 628.162C840.436 619.027 878.697 564.348 904.117 517.734L904.124 517.722C914.062 500.461 920.213 479.271 921 459.586C921.835 438.666 916.647 420.956 906.392 409.717C901.092 403.965 894.42 397.584 886.675 390.804Z" fill="url(#paint18_linear_3_88)"/>
</mask>
<g mask="url(#mask9_3_88)">
<path d="M500.686 537.049C494.08 531.265 488.977 525.718 485.627 520.561C480.727 513.019 479.549 506.373 482.126 500.804C477.45 480.125 502.978 446.165 525.261 421.273C550.387 393.208 584.874 361.491 617.514 336.43C645.627 314.896 673.402 303.246 702.423 300.814C732.062 298.332 762.145 305.524 794.389 322.802C841.292 351.68 885.532 385.471 907.116 408.903C917.585 420.373 922.881 438.391 922.031 459.638C921.237 479.515 915.029 500.909 904.998 518.333C879.454 565.171 840.996 620.11 769.744 629.298C735.243 635.682 675.866 624.078 610.939 598.253C563.493 579.38 523.302 556.846 500.686 537.049ZM886.675 390.804C862.965 370.046 829.192 345.539 793.913 323.817C761.864 306.644 731.954 299.488 702.502 301.956C673.668 304.372 646.061 315.956 618.103 337.371C557.096 384.212 474.901 465.862 483.177 500.729L483.228 500.946L483.133 501.144C480.636 506.336 481.758 512.643 486.467 519.892C501.172 542.529 550.167 572.863 611.29 597.173C676.059 622.935 735.241 634.52 769.601 628.162C840.436 619.027 878.697 564.348 904.117 517.734L904.124 517.722C914.062 500.461 920.213 479.271 921 459.586C921.835 438.666 916.647 420.956 906.392 409.717C901.092 403.965 894.42 397.584 886.675 390.804Z" fill="url(#paint19_linear_3_88)"/>
</g>
<mask id="mask10_3_88" style="mask-type:alpha" maskUnits="userSpaceOnUse" x="521" y="322" width="345" height="257">
<path d="M535.101 525.081C532.253 522.588 530.318 520.24 529.429 518.105C524.131 514.704 521.305 509.594 521.027 502.925C520.212 483.41 540.978 454.694 558.541 434.041C579.439 409.465 607.276 382.865 633.004 362.885C662.123 340.301 685.091 328.385 707.477 324.249C731.36 319.837 756.069 324.217 785.241 338.036C817.493 355.302 846.454 383.934 859.046 410.993C870.261 435.343 864.68 472.096 852.806 493.565C829.449 538.963 796.285 566.331 754.24 574.907C737.867 579.142 716.564 579.862 690.946 577.041C668.766 574.597 643.968 569.506 619.233 562.316C580.509 551.056 548.179 536.529 535.101 525.081ZM530.13 517.405L530.189 517.556C531.009 519.632 532.88 521.92 535.657 524.35C564.439 549.553 690.66 590.332 754.056 573.936C795.854 565.41 828.81 538.203 852.031 493.066L852.038 493.052C863.785 471.818 869.321 435.486 858.248 411.446C845.74 384.569 816.938 356.107 784.869 338.939C755.881 325.208 731.33 320.849 707.625 325.228C685.378 329.338 662.522 341.202 633.518 363.697C607.838 383.641 580.052 410.192 559.193 434.721C541.748 455.234 521.122 483.711 521.922 502.879C522.187 509.24 524.907 514.102 530.001 517.325L530.13 517.405Z" fill="url(#paint20_linear_3_88)"/>
</mask>
<g mask="url(#mask10_3_88)">
<path d="M535.101 525.081C532.253 522.588 530.318 520.24 529.429 518.105C524.131 514.704 521.305 509.594 521.027 502.925C520.212 483.41 540.978 454.694 558.541 434.041C579.439 409.465 607.276 382.865 633.004 362.885C662.123 340.301 685.091 328.385 707.477 324.249C731.36 319.837 756.069 324.217 785.241 338.036C817.493 355.302 846.454 383.934 859.046 410.993C870.261 435.343 864.68 472.096 852.806 493.565C829.449 538.963 796.285 566.331 754.24 574.907C737.867 579.142 716.564 579.862 690.946 577.041C668.766 574.597 643.968 569.506 619.233 562.316C580.509 551.056 548.179 536.529 535.101 525.081ZM530.13 517.405L530.189 517.556C531.009 519.632 532.88 521.92 535.657 524.35C564.439 549.553 690.66 590.332 754.056 573.936C795.854 565.41 828.81 538.203 852.031 493.066L852.038 493.052C863.785 471.818 869.321 435.486 858.248 411.446C845.74 384.569 816.938 356.107 784.869 338.939C755.881 325.208 731.33 320.849 707.625 325.228C685.378 329.338 662.522 341.202 633.518 363.697C607.838 383.641 580.052 410.192 559.193 434.721C541.748 455.234 521.122 483.711 521.922 502.879C522.187 509.24 524.907 514.102 530.001 517.325L530.13 517.405Z" fill="url(#paint21_linear_3_88)"/>
</g>
<mask id="mask11_3_88" style="mask-type:alpha" maskUnits="userSpaceOnUse" x="554" y="343" width="257" height="195">
<path d="M560.318 528.705C557.467 526.208 555.585 523.036 554.69 519.197C552.447 509.571 555.419 490.789 582.312 455.975C600.339 432.639 625.08 407.728 648.493 389.338C676.163 367.606 694.28 353.958 712.526 347.69C731.402 341.206 749.819 342.823 776.092 353.27C790.574 359.028 800.691 369.546 806.163 384.527C817.995 416.923 804.576 459.879 800.621 468.777C793.231 485.397 779.831 499.337 760.79 510.21C744.4 519.568 723.8 526.698 699.561 531.402C655.749 539.904 607.44 538.861 576.838 535.052C569.636 534.156 564.116 532.03 560.318 528.705ZM791.005 363.211C786.663 359.409 781.601 356.353 775.837 354.062C749.732 343.682 731.455 342.068 712.752 348.493C694.613 354.724 676.541 368.339 648.933 390.025C606.245 423.553 548.384 488.77 555.426 518.989C557.424 527.566 564.657 532.691 576.925 534.218C607.473 538.021 655.698 539.061 699.431 530.575C723.595 525.887 744.121 518.784 760.443 509.463C779.335 498.675 792.624 484.862 799.94 468.407C803.866 459.577 817.188 416.952 805.461 384.842C802.25 376.051 797.411 368.818 791.005 363.211Z" fill="url(#paint22_linear_3_88)"/>
</mask>
<g mask="url(#mask11_3_88)">
<path d="M560.318 528.705C557.467 526.208 555.585 523.036 554.69 519.197C552.447 509.571 555.419 490.789 582.312 455.975C600.339 432.639 625.08 407.728 648.493 389.338C676.163 367.606 694.28 353.958 712.526 347.69C731.402 341.206 749.819 342.823 776.092 353.27C790.574 359.028 800.691 369.546 806.163 384.527C817.995 416.923 804.576 459.879 800.621 468.777C793.231 485.397 779.831 499.337 760.79 510.21C744.4 519.568 723.8 526.698 699.561 531.402C655.749 539.904 607.44 538.861 576.838 535.052C569.636 534.156 564.116 532.03 560.318 528.705ZM791.005 363.211C786.663 359.409 781.601 356.353 775.837 354.062C749.732 343.682 731.455 342.068 712.752 348.493C694.613 354.724 676.541 368.339 648.933 390.025C606.245 423.553 548.384 488.77 555.426 518.989C557.424 527.566 564.657 532.691 576.925 534.218C607.473 538.021 655.698 539.061 699.431 530.575C723.595 525.887 744.121 518.784 760.443 509.463C779.335 498.675 792.624 484.862 799.94 468.407C803.866 459.577 817.188 416.952 805.461 384.842C802.25 376.051 797.411 368.818 791.005 363.211Z" fill="url(#paint23_linear_3_88)"/>
</g>
<defs>
<filter id="filter0_f_3_88" x="-149" y="-409" width="1738" height="1738" filterUnits="userSpaceOnUse" color-interpolation-filters="sRGB">
<feFlood flood-opacity="0" result="BackgroundImageFix"/>
<feBlend mode="normal" in="SourceGraphic" in2="BackgroundImageFix" result="shape"/>
<feGaussianBlur stdDeviation="250" result="effect1_foregroundBlur_3_88"/>
</filter>
<linearGradient id="paint0_linear_3_88" x1="720" y1="80.0002" x2="720" y2="1118.78" gradientUnits="userSpaceOnUse">
<stop stop-color="white"/>
<stop offset="0.0436" stop-color="#B4B4B4"/>
<stop offset="0.1507"/>
<stop offset="0.1714" stop-color="#171717"/>
<stop offset="0.3859" stop-color="white"/>
<stop offset="0.6326" stop-color="#E6E6E6"/>
<stop offset="0.8567" stop-color="#1A1A1A"/>
<stop offset="0.9987"/>
</linearGradient>
<linearGradient id="paint1_linear_3_88" x1="720" y1="80" x2="720" y2="1118.78" gradientUnits="userSpaceOnUse">
<stop stop-color="#1D1E1F"/>
<stop offset="1" stop-color="#34384C" stop-opacity="0"/>
</linearGradient>
<linearGradient id="paint2_linear_3_88" x1="718.208" y1="105.478" x2="718.208" y2="1064.39" gradientUnits="userSpaceOnUse">
<stop stop-color="white"/>
<stop offset="0.0436" stop-color="#B4B4B4"/>
<stop offset="0.1507"/>
<stop offset="0.1714" stop-color="#171717"/>
<stop offset="0.3859" stop-color="white"/>
<stop offset="0.6326" stop-color="#E6E6E6"/>
<stop offset="0.8567" stop-color="#1A1A1A"/>
<stop offset="0.9987"/>
</linearGradient>
<linearGradient id="paint3_linear_3_88" x1="718.209" y1="105.479" x2="718.209" y2="1064.39" gradientUnits="userSpaceOnUse">
<stop stop-color="#1D1E1F"/>
<stop offset="1" stop-color="#34384C" stop-opacity="0"/>
</linearGradient>
<linearGradient id="paint4_linear_3_88" x1="716.399" y1="130.652" x2="716.399" y2="1010.01" gradientUnits="userSpaceOnUse">
<stop stop-color="white"/>
<stop offset="0.0436" stop-color="#B4B4B4"/>
<stop offset="0.1507"/>
<stop offset="0.1714" stop-color="#171717"/>
<stop offset="0.3859" stop-color="white"/>
<stop offset="0.6326" stop-color="#E6E6E6"/>
<stop offset="0.8567" stop-color="#1A1A1A"/>
<stop offset="0.9987"/>
</linearGradient>
<linearGradient id="paint5_linear_3_88" x1="716.399" y1="130.653" x2="716.399" y2="1010.01" gradientUnits="userSpaceOnUse">
<stop stop-color="#1D1E1F"/>
<stop offset="1" stop-color="#34384C" stop-opacity="0"/>
</linearGradient>
<linearGradient id="paint6_linear_3_88" x1="714.565" y1="155.825" x2="714.565" y2="955.654" gradientUnits="userSpaceOnUse">
<stop stop-color="white"/>
<stop offset="0.0436" stop-color="#B4B4B4"/>
<stop offset="0.1507"/>
<stop offset="0.1714" stop-color="#171717"/>
<stop offset="0.3859" stop-color="white"/>
<stop offset="0.6326" stop-color="#E6E6E6"/>
<stop offset="0.8567" stop-color="#1A1A1A"/>
<stop offset="0.9987"/>
</linearGradient>
<linearGradient id="paint7_linear_3_88" x1="714.565" y1="155.824" x2="714.565" y2="955.653" gradientUnits="userSpaceOnUse">
<stop stop-color="#1D1E1F"/>
<stop offset="1" stop-color="#34384C" stop-opacity="0"/>
</linearGradient>
<linearGradient id="paint8_linear_3_88" x1="712.697" y1="180.687" x2="712.697" y2="901.318" gradientUnits="userSpaceOnUse">
<stop stop-color="white"/>
<stop offset="0.0436" stop-color="#B4B4B4"/>
<stop offset="0.1507"/>
<stop offset="0.1714" stop-color="#171717"/>
<stop offset="0.3859" stop-color="white"/>
<stop offset="0.6326" stop-color="#E6E6E6"/>
<stop offset="0.8567" stop-color="#1A1A1A"/>
<stop offset="0.9987"/>
</linearGradient>
<linearGradient id="paint9_linear_3_88" x1="712.698" y1="180.686" x2="712.698" y2="901.318" gradientUnits="userSpaceOnUse">
<stop stop-color="#1D1E1F"/>
<stop offset="1" stop-color="#34384C" stop-opacity="0"/>
</linearGradient>
<linearGradient id="paint10_linear_3_88" x1="710.781" y1="205.409" x2="710.781" y2="847.012" gradientUnits="userSpaceOnUse">
<stop stop-color="white"/>
<stop offset="0.0436" stop-color="#B4B4B4"/>
<stop offset="0.1507"/>
<stop offset="0.1714" stop-color="#171717"/>
<stop offset="0.3859" stop-color="white"/>
<stop offset="0.6326" stop-color="#E6E6E6"/>
<stop offset="0.8567" stop-color="#1A1A1A"/>
<stop offset="0.9987"/>
</linearGradient>
<linearGradient id="paint11_linear_3_88" x1="710.781" y1="205.409" x2="710.781" y2="847.013" gradientUnits="userSpaceOnUse">
<stop stop-color="#1D1E1F"/>
<stop offset="1" stop-color="#34384C" stop-opacity="0"/>
</linearGradient>
<linearGradient id="paint12_linear_3_88" x1="708.788" y1="229.777" x2="708.788" y2="792.768" gradientUnits="userSpaceOnUse">
<stop stop-color="white"/>
<stop offset="0.0436" stop-color="#B4B4B4"/>
<stop offset="0.1507"/>
<stop offset="0.1714" stop-color="#171717"/>
<stop offset="0.3859" stop-color="white"/>
<stop offset="0.6326" stop-color="#E6E6E6"/>
<stop offset="0.8567" stop-color="#1A1A1A"/>
<stop offset="0.9987"/>
</linearGradient>
<linearGradient id="paint13_linear_3_88" x1="708.789" y1="229.777" x2="708.789" y2="792.768" gradientUnits="userSpaceOnUse">
<stop stop-color="#1D1E1F"/>
<stop offset="1" stop-color="#34384C" stop-opacity="0"/>
</linearGradient>
<linearGradient id="paint14_linear_3_88" x1="706.67" y1="253.746" x2="706.67" y2="738.598" gradientUnits="userSpaceOnUse">
<stop stop-color="white"/>
<stop offset="0.0436" stop-color="#B4B4B4"/>
<stop offset="0.1507"/>
<stop offset="0.1714" stop-color="#171717"/>
<stop offset="0.3859" stop-color="white"/>
<stop offset="0.6326" stop-color="#E6E6E6"/>
<stop offset="0.8567" stop-color="#1A1A1A"/>
<stop offset="0.9987"/>
</linearGradient>
<linearGradient id="paint15_linear_3_88" x1="706.671" y1="253.746" x2="706.671" y2="738.599" gradientUnits="userSpaceOnUse">
<stop stop-color="#1D1E1F"/>
<stop offset="1" stop-color="#34384C" stop-opacity="0"/>
</linearGradient>
<linearGradient id="paint16_linear_3_88" x1="704.33" y1="277.385" x2="704.33" y2="684.617" gradientUnits="userSpaceOnUse">
<stop stop-color="white"/>
<stop offset="0.0436" stop-color="#B4B4B4"/>
<stop offset="0.1507"/>
<stop offset="0.1714" stop-color="#171717"/>
<stop offset="0.3859" stop-color="white"/>
<stop offset="0.6326" stop-color="#E6E6E6"/>
<stop offset="0.8567" stop-color="#1A1A1A"/>
<stop offset="0.9987"/>
</linearGradient>
<linearGradient id="paint17_linear_3_88" x1="704.33" y1="277.384" x2="704.33" y2="684.614" gradientUnits="userSpaceOnUse">
<stop stop-color="#1D1E1F"/>
<stop offset="1" stop-color="#34384C" stop-opacity="0"/>
</linearGradient>
<linearGradient id="paint18_linear_3_88" x1="701.46" y1="300.336" x2="701.46" y2="631.017" gradientUnits="userSpaceOnUse">
<stop stop-color="white"/>
<stop offset="0.0436" stop-color="#B4B4B4"/>
<stop offset="0.1507"/>
<stop offset="0.1714" stop-color="#171717"/>
<stop offset="0.3859" stop-color="white"/>
<stop offset="0.6326" stop-color="#E6E6E6"/>
<stop offset="0.8567" stop-color="#1A1A1A"/>
<stop offset="0.9987"/>
</linearGradient>
<linearGradient id="paint19_linear_3_88" x1="701.459" y1="300.337" x2="701.459" y2="631.019" gradientUnits="userSpaceOnUse">
<stop stop-color="#1D1E1F"/>
<stop offset="1" stop-color="#34384C" stop-opacity="0"/>
</linearGradient>
<linearGradient id="paint20_linear_3_88" x1="693.068" y1="322.597" x2="693.068" y2="578.727" gradientUnits="userSpaceOnUse">
<stop stop-color="white"/>
<stop offset="0.0436" stop-color="#B4B4B4"/>
<stop offset="0.1507"/>
<stop offset="0.1714" stop-color="#171717"/>
<stop offset="0.3859" stop-color="white"/>
<stop offset="0.6326" stop-color="#E6E6E6"/>
<stop offset="0.8567" stop-color="#1A1A1A"/>
<stop offset="0.9987"/>
</linearGradient>
<linearGradient id="paint21_linear_3_88" x1="693.068" y1="322.599" x2="693.068" y2="578.728" gradientUnits="userSpaceOnUse">
<stop stop-color="#1D1E1F"/>
<stop offset="1" stop-color="#34384C" stop-opacity="0"/>
</linearGradient>
<linearGradient id="paint22_linear_3_88" x1="682.512" y1="343.843" x2="682.512" y2="537.897" gradientUnits="userSpaceOnUse">
<stop stop-color="white"/>
<stop offset="0.0436" stop-color="#B4B4B4"/>
<stop offset="0.1507"/>
<stop offset="0.1714" stop-color="#171717"/>
<stop offset="0.3859" stop-color="white"/>
<stop offset="0.6326" stop-color="#E6E6E6"/>
<stop offset="0.8567" stop-color="#1A1A1A"/>
<stop offset="0.9987"/>
</linearGradient>
<linearGradient id="paint23_linear_3_88" x1="682.512" y1="343.843" x2="682.512" y2="537.896" gradientUnits="userSpaceOnUse">
<stop stop-color="#1D1E1F"/>
<stop offset="1" stop-color="#34384C" stop-opacity="0"/>
</linearGradient>
</defs>
</svg>
