<svg width="44" height="44" viewBox="0 0 44 44" fill="none" xmlns="http://www.w3.org/2000/svg">
<path d="M27.4999 18.333L20.1666 25.6663L16.4999 21.9996M24.2844 6.34112L26.5229 8.2487C27.0868 8.72929 27.787 9.01983 28.5256 9.07877L31.4572 9.31241C33.1808 9.44995 34.5498 10.8181 34.6873 12.5417L34.9204 15.4738C34.9794 16.2124 35.2709 16.9136 35.7515 17.4775L37.6583 19.7153C38.7798 21.0313 38.7799 22.9671 37.6584 24.2832L35.7517 26.5213C35.2711 27.0853 34.9799 27.7867 34.921 28.5253L34.6864 31.4569C34.5489 33.1805 33.182 34.5495 31.4584 34.6871L28.5258 34.9211C27.7872 34.98 27.0863 35.2698 26.5224 35.7504L24.2844 37.658C22.9684 38.7795 21.0314 38.7797 19.7154 37.6582L17.4775 35.7505C16.9135 35.27 16.2126 34.9796 15.474 34.9207L12.5414 34.6871C10.8178 34.5495 9.45093 33.1808 9.31339 31.4572L9.07885 28.5255C9.01991 27.7869 8.72871 27.086 8.24812 26.5221L6.34138 24.2833C5.21989 22.9672 5.21936 21.032 6.34086 19.716L8.24931 17.4772C8.7299 16.9132 9.0183 16.2124 9.07724 15.4738L9.31178 12.542C9.44932 10.8185 10.8202 9.44977 12.5438 9.31223L15.4731 9.07859C16.2117 9.01965 16.913 8.72934 17.4769 8.24875L19.7156 6.34112C21.0316 5.21963 22.9684 5.21963 24.2844 6.34112Z" stroke="#2453CC" stroke-width="4" stroke-linecap="round" stroke-linejoin="round"/>
</svg>
