<svg width="44" height="44" viewBox="0 0 44 44" fill="none" xmlns="http://www.w3.org/2000/svg">
<path d="M38.5 36.6666C38.5 33.4736 35.439 30.7573 31.1667 29.7506M27.5 36.6667C27.5 32.6167 22.5751 29.3334 16.5 29.3334C10.4249 29.3334 5.5 32.6167 5.5 36.6667M27.5 23.8334C31.5501 23.8334 34.8333 20.5502 34.8333 16.5001C34.8333 12.45 31.5501 9.16675 27.5 9.16675M16.5 23.8334C12.4499 23.8334 9.16667 20.5502 9.16667 16.5001C9.16667 12.45 12.4499 9.16675 16.5 9.16675C20.5501 9.16675 23.8333 12.45 23.8333 16.5001C23.8333 20.5502 20.5501 23.8334 16.5 23.8334Z" stroke="#2453CC" stroke-width="4" stroke-linecap="round" stroke-linejoin="round"/>
</svg>
