<svg width="44" height="44" viewBox="0 0 44 44" fill="none" xmlns="http://www.w3.org/2000/svg">
<path d="M27.5 16.5L20.1667 23.8333L16.5 20.1667M36.6667 18.6359C36.6667 30.6777 27.5585 36.0764 23.6973 37.8242L23.6924 37.8263C23.2863 38.0102 23.0827 38.1023 22.6213 38.1815C22.329 38.2317 21.6728 38.2317 21.3806 38.1815C20.9173 38.102 20.7116 38.0095 20.3022 37.8242C16.441 36.0765 7.33333 30.6777 7.33333 18.6359V11.367C7.33333 9.3135 7.33333 8.28597 7.73297 7.50163C8.08451 6.8117 8.64503 6.25118 9.33496 5.89964C10.1193 5.5 11.1468 5.5 13.2004 5.5H30.8004C32.8539 5.5 33.8792 5.5 34.6636 5.89964C35.3535 6.25118 35.9159 6.8117 36.2674 7.50163C36.6667 8.2852 36.6667 9.31149 36.6667 11.361V18.6359Z" stroke="#2453CC" stroke-width="4" stroke-linecap="round" stroke-linejoin="round"/>
</svg>
