<svg width="24" height="24" viewBox="0 0 24 24" fill="none" xmlns="http://www.w3.org/2000/svg">
<path d="M23.474 11.4375C21.1131 7.34985 16.7167 4.81054 11.9999 4.81054C7.28312 4.81054 2.88675 7.34985 0.525789 11.4375C0.324737 11.7854 0.324737 12.2146 0.525789 12.5625C2.88675 16.6501 7.28312 19.1895 11.9999 19.1895C16.7167 19.1895 21.1131 16.6501 23.474 12.5625C23.6751 12.2146 23.6751 11.7854 23.474 11.4375ZM11.9999 16.9395C8.30558 16.9395 4.84745 15.0626 2.8223 12C4.84745 8.93737 8.30558 7.06054 11.9999 7.06054C15.6942 7.06054 19.1524 8.93737 21.1775 12C19.1524 15.0626 15.6942 16.9395 11.9999 16.9395Z" fill="#6F6F6F"/>
<path fill-rule="evenodd" clip-rule="evenodd" d="M2.2318 3.35981C2.58537 2.93553 3.21593 2.87821 3.64021 3.23177L21.6402 18.2318C22.0645 18.5853 22.1218 19.2159 21.7682 19.6402C21.4147 20.0645 20.7841 20.1218 20.3598 19.7682L2.35984 4.76822C1.93556 4.41465 1.87824 3.78409 2.2318 3.35981Z" fill="#6F6F6F"/>
<path fill-rule="evenodd" clip-rule="evenodd" d="M15.3469 14.4773L13.588 13.0702C13.2434 13.5797 12.6603 13.9153 12.0002 13.9153C10.9441 13.9153 10.085 13.0561 10.085 12C10.085 11.4918 10.2838 11.0293 10.6079 10.6861L8.84894 9.27896C8.2174 10.0094 7.83496 10.9608 7.83496 12C7.83496 14.2969 9.70337 16.1653 12.0002 16.1653C13.37 16.1653 14.5873 15.5008 15.3469 14.4773Z" fill="#6F6F6F"/>
</svg>
