<svg width="24" height="24" viewBox="0 0 24 24" fill="none" xmlns="http://www.w3.org/2000/svg">
<path d="M23.474 11.4375C21.1131 7.34985 16.7167 4.81054 11.9999 4.81054C7.28312 4.81054 2.88675 7.34985 0.525789 11.4375C0.324737 11.7854 0.324737 12.2146 0.525789 12.5625C2.88675 16.6501 7.28312 19.1895 11.9999 19.1895C16.7167 19.1895 21.1131 16.6501 23.474 12.5625C23.6751 12.2146 23.6751 11.7854 23.474 11.4375ZM11.9999 16.9395C8.30558 16.9395 4.84745 15.0626 2.8223 12C4.84745 8.93737 8.30558 7.06054 11.9999 7.06054C15.6942 7.06054 19.1524 8.93737 21.1775 12C19.1524 15.0626 15.6942 16.9395 11.9999 16.9395Z" fill="#6F6F6F"/>
<path d="M12.0002 7.83472C9.70337 7.83472 7.83496 9.70312 7.83496 12C7.83496 14.2969 9.70337 16.1653 12.0002 16.1653C14.2971 16.1653 16.1655 14.2969 16.1655 12C16.1655 9.70312 14.2971 7.83472 12.0002 7.83472ZM12.0002 13.9153C10.9441 13.9153 10.085 13.0561 10.085 12C10.085 10.9438 10.9441 10.0847 12.0002 10.0847C13.0564 10.0847 13.9155 10.9438 13.9155 12C13.9155 13.0561 13.0564 13.9153 12.0002 13.9153Z" fill="#6F6F6F"/>
</svg>
