<svg width="30" height="31" viewBox="0 0 30 31" fill="none" xmlns="http://www.w3.org/2000/svg">
<path d="M3.75 15.5H10M3.75 15.5C3.75 21.7132 8.7868 26.75 15 26.75M3.75 15.5C3.75 9.2868 8.7868 4.25 15 4.25M10 15.5H20M10 15.5C10 21.7132 12.2386 26.75 15 26.75M10 15.5C10 9.2868 12.2386 4.25 15 4.25M20 15.5H26.25M20 15.5C20 9.2868 17.7614 4.25 15 4.25M20 15.5C20 21.7132 17.7614 26.75 15 26.75M26.25 15.5C26.25 9.2868 21.2132 4.25 15 4.25M26.25 15.5C26.25 21.7132 21.2132 26.75 15 26.75" stroke="#2453CC" stroke-width="3" stroke-linecap="round" stroke-linejoin="round"/>
</svg>
