<svg width="32" height="33" viewBox="0 0 32 33" fill="none" xmlns="http://www.w3.org/2000/svg">
<path d="M6.66667 13.7305C6.66667 20.1996 12.326 25.5492 14.8309 27.6003C15.1894 27.8938 15.3708 28.0423 15.6383 28.1176C15.8465 28.1763 16.1531 28.1763 16.3613 28.1176C16.6293 28.0422 16.8094 27.8951 17.1693 27.6005C19.6742 25.5494 25.3332 20.2002 25.3332 13.7311C25.3332 11.2829 24.35 8.93473 22.5996 7.20363C20.8493 5.47252 18.4755 4.5 16.0001 4.5C13.5248 4.5 11.1507 5.47267 9.40034 7.20378C7.65 8.93488 6.66667 11.2823 6.66667 13.7305Z" stroke="#2453CC" stroke-width="3" stroke-linecap="round" stroke-linejoin="round"/>
<path d="M13.3333 12.5C13.3333 13.9728 14.5272 15.1667 16 15.1667C17.4728 15.1667 18.6667 13.9728 18.6667 12.5C18.6667 11.0272 17.4728 9.83333 16 9.83333C14.5272 9.83333 13.3333 11.0272 13.3333 12.5Z" stroke="#2453CC" stroke-width="3" stroke-linecap="round" stroke-linejoin="round"/>
</svg>
