<svg width="24" height="25" viewBox="0 0 24 25" fill="none" xmlns="http://www.w3.org/2000/svg">
<path d="M6.66667 8.74268H6.2002C5.08009 8.74268 4.51962 8.74268 4.0918 8.96066C3.71547 9.15241 3.40973 9.45815 3.21799 9.83447C3 10.2623 3 10.8228 3 11.9429V17.5429C3 18.663 3 19.2227 3.21799 19.6506C3.40973 20.0269 3.71547 20.3332 4.0918 20.5249C4.5192 20.7427 5.07899 20.7427 6.19691 20.7427H17.8031C18.921 20.7427 19.48 20.7427 19.9074 20.5249C20.2837 20.3332 20.5905 20.0269 20.7822 19.6506C21 19.2232 21 18.6642 21 17.5463V11.9396C21 10.8217 21 10.2619 20.7822 9.83447C20.5905 9.45815 20.2837 9.15241 19.9074 8.96066C19.4796 8.74268 18.9203 8.74268 17.8002 8.74268H17.3333M6.66667 8.74268H17.3333M6.66667 8.74268C6.66667 6.53354 6.66667 2.74268 12 2.74268C17.3333 2.74268 17.3333 6.53354 17.3333 8.74268" stroke="#2453CC" stroke-width="2" stroke-linecap="round" stroke-linejoin="round"/>
</svg>
