<svg width="24" height="25" viewBox="0 0 24 25" fill="none" xmlns="http://www.w3.org/2000/svg">
<path d="M12.9258 21.3741C15.0319 20.4207 20 17.476 20 10.9077V6.93959C20 5.82167 20 5.26188 19.7822 4.83447C19.5905 4.45815 19.2837 4.15241 18.9074 3.96066C18.4796 3.74268 17.9203 3.74268 16.8002 3.74268H7.2002C6.08009 3.74268 5.51962 3.74268 5.0918 3.96066C4.71547 4.15241 4.40973 4.45815 4.21799 4.83447C4 5.2623 4 5.82277 4 6.94287V10.9077C4 17.476 8.9678 20.4207 11.074 21.3741C11.2972 21.4751 11.4094 21.5256 11.6621 21.569C11.8215 21.5963 12.1795 21.5963 12.3389 21.569C12.5907 21.5257 12.7017 21.4755 12.9235 21.3751L12.9258 21.3741Z" stroke="#2453CC" stroke-width="2" stroke-linecap="round" stroke-linejoin="round"/>
<path d="M14 7.07593L9.66666 12.0759H14.6667L10.6667 16.7426" stroke="#2453CC" stroke-width="2" stroke-linecap="round" stroke-linejoin="round"/>
</svg>
