<svg width="36" height="37" viewBox="0 0 36 37" fill="none" xmlns="http://www.w3.org/2000/svg">
<g id="Shape / Shield">
<path id="Vector" d="M19.3887 31.4471C22.5479 30.0171 30 25.6 30 15.7476V9.79537C30 8.11849 30 7.2788 29.6733 6.6377C29.3857 6.07321 28.9256 5.6146 28.3611 5.32698C27.7194 5 26.8805 5 25.2003 5H10.8003C9.12014 5 8.27943 5 7.6377 5.32698C7.07321 5.6146 6.6146 6.07321 6.32698 6.6377C6 7.27943 6 8.12014 6 9.80029V15.7476C6 25.5999 13.4517 30.0171 16.6109 31.4471C16.9458 31.5987 17.1141 31.6744 17.4932 31.7394C17.7323 31.7805 18.2692 31.7805 18.5083 31.7394C18.8861 31.6746 19.0526 31.5992 19.3852 31.4486L19.3887 31.4471Z" stroke="#2453CC" stroke-width="3" stroke-linecap="round" stroke-linejoin="round"/>
<path id="Vector 6" d="M13 16.5H23.5" stroke="#2453CC" stroke-width="3" stroke-linecap="round"/>
</g>
</svg>
